<svg width="130" height="120" viewBox="0 0 130 120" fill="none" xmlns="http://www.w3.org/2000/svg">
<g clip-path="url(#clip0_320_71)">
<path fill-rule="evenodd" clip-rule="evenodd" d="M37.5112 2.57014C37.1169 2.76785 36.7384 2.97939 36.3539 3.19093C37.0893 2.34872 37.3989 1.34043 37.6906 0C34.4218 0.945022 33.3847 2.14904 32.9924 5.11261L33.0397 5.15215C32.3497 5.59369 31.6688 6.04906 30.9972 6.51828C31.7602 5.42893 31.9948 4.19131 32.1446 2.56421C28.4381 4.13398 27.3892 5.69188 27.3419 9.22681L27.3852 9.25252C26.8726 9.67165 26.3679 10.0967 25.8711 10.5336C26.4034 9.3059 26.4625 7.98524 26.3837 6.31069C22.5884 8.56846 21.6204 10.4249 22.0462 14.1951C21.6243 14.636 21.2083 15.0808 20.8002 15.5355C21.0348 14.3493 20.881 13.1097 20.5754 11.6032C17.3006 14.3137 16.5593 16.2552 17.3933 19.6497C16.8347 20.3891 16.2951 21.1417 15.7746 21.9075C16.0408 20.3081 15.6662 18.7996 15.0018 16.9056C11.6935 20.5295 11.2341 22.8268 12.8449 26.6642C12.2981 27.6488 11.7802 28.6492 11.2913 29.6654C11.5298 27.7734 10.9226 26.1917 9.88555 24.1771C7.04057 28.3289 6.96762 30.6776 9.25465 34.4083C8.72101 35.8173 8.23863 37.2532 7.80751 38.7162C7.9751 36.3023 7.03663 34.608 5.45937 32.4233C3.14277 37.2671 3.46808 39.7483 6.52993 43.3128L6.66597 43.2931C6.32292 44.9314 6.0469 46.5954 5.83791 48.2851C5.80045 45.2741 4.4933 43.5244 2.26148 41.3062C0.629017 46.7944 1.38413 49.3507 5.20109 52.5891L5.46134 52.5041C5.40745 53.5466 5.38051 54.5964 5.38051 55.6535C5.38051 56.3441 5.39168 57.0302 5.41402 57.7116C5.35882 58.0134 5.3115 58.3317 5.27207 58.6665C5.15772 54.5246 3.543 52.8006 0.579728 50.614C-0.234532 56.2861 0.887293 58.7179 5.13603 61.3533C5.30362 61.2702 5.46529 61.1872 5.62498 61.1042C5.78928 62.9296 6.03376 64.7281 6.35841 66.4995C5.37262 63.5339 3.50751 62.2133 0.589586 60.7167C0.699994 66.7328 2.26937 69.0538 7.12141 71.0803L7.34025 70.9221C7.72142 72.3719 8.15254 73.7941 8.6336 75.1886C7.00705 71.8276 4.69046 70.6651 1.08445 69.4769C2.24768 76.1217 4.38881 78.419 10.1162 79.8188C10.1951 79.7417 10.272 79.6665 10.3449 79.5894C10.7248 80.4567 11.123 81.3134 11.5397 82.1596C9.63122 80.6392 7.4132 80.1193 4.46176 79.7298C6.90256 86.2323 9.49715 88.3042 15.3172 88.7391C16.0664 89.8674 16.8551 90.9692 17.6831 92.0447C15.0747 90.2654 12.4289 90.1152 8.81104 90.3346C12.7542 96.7461 15.9205 98.304 22.3558 97.4519C23.1746 98.2928 24.0165 99.1087 24.8813 99.8995C22.407 99.1937 20.0293 99.5852 16.995 100.398C21.9614 105.722 25.323 106.724 31.0997 104.862C32.3023 105.696 33.5352 106.487 34.7983 107.234C31.768 106.916 29.2129 107.926 25.9736 109.623C32.5902 114.142 36.4229 114.389 42.2115 110.947C44.6667 111.973 47.1882 112.832 49.7586 113.517C46.2276 113.899 43.8084 115.692 40.8176 118.529C48.8419 121.226 52.7692 120.328 57.6922 115.055C62.4576 115.646 67.2764 115.661 72.0453 115.101C76.9486 120.334 80.876 121.218 88.8766 118.529C85.9764 115.785 83.6125 114.008 80.249 113.557C82.7747 112.891 85.2538 112.059 87.67 111.066C93.3501 114.391 97.177 114.103 103.721 109.63C100.673 108.035 98.2278 107.044 95.4222 107.199C96.6052 106.495 97.7664 105.75 98.906 104.963C104.495 106.695 107.823 105.627 112.707 100.402C109.923 99.6563 107.693 99.2669 105.436 99.7492C106.225 99.0217 106.993 98.2744 107.743 97.5073C113.91 98.2447 117.031 96.6196 120.885 90.3425C117.652 90.1448 115.195 90.2476 112.851 91.5287C113.542 90.6061 114.207 89.6637 114.844 88.7016C120.335 88.1876 122.855 86.0524 125.227 79.7338C122.626 80.0778 120.595 80.5246 118.847 81.6614C119.144 81.0432 119.431 80.4185 119.708 79.7871C125.335 78.3834 127.448 76.0703 128.604 69.4789C125.684 70.4397 123.608 71.3927 122.062 73.5002C122.325 72.6725 122.565 71.8362 122.782 70.9913C127.468 68.9846 128.99 66.6418 129.091 60.7107C126.776 61.897 125.13 62.9705 124.051 64.8467C124.233 63.6829 124.379 62.5072 124.489 61.3197L124.544 61.3473C128.781 58.7179 129.901 56.2861 129.087 50.6121C126.839 52.2708 125.368 53.6626 124.738 56.0449V55.6495C124.738 54.5661 124.709 53.4906 124.653 52.423C128.304 49.2598 129.008 46.6896 127.403 41.2983C125.66 43.0282 124.481 44.4615 124.036 46.4583C123.856 45.2998 123.644 44.1505 123.401 43.0104C126.222 39.6039 126.467 37.1287 124.215 32.4233C122.943 34.1631 122.092 35.5965 121.885 37.3343C121.519 36.185 121.119 35.0528 120.684 33.9378C122.687 30.472 122.504 28.1431 119.779 24.1692C118.931 25.8161 118.371 27.1704 118.324 28.6452C117.905 27.8149 117.467 26.9957 117.011 26.1878C118.391 22.6291 117.835 20.3714 114.663 16.8957C114.107 18.4774 113.752 19.802 113.809 21.1286C113.344 20.4695 112.866 19.8211 112.376 19.1832C113.034 16.0654 112.214 14.1813 109.099 11.5894C108.843 12.8487 108.693 13.9183 108.79 14.9306C108.421 14.5351 108.048 14.1397 107.672 13.7562C107.965 10.2687 106.932 8.46763 103.281 6.29685C103.218 7.71241 103.249 8.87688 103.581 9.94448C103.165 9.59125 102.743 9.24263 102.315 8.89863C102.212 5.595 101.118 4.08257 97.5318 2.57014C97.658 3.93825 97.8433 5.03155 98.352 5.99041C97.7894 5.61082 97.2223 5.24177 96.6505 4.88327C96.2247 2.08379 95.1659 0.919321 91.9759 0C92.2165 1.12098 92.4767 2.01064 92.9834 2.76785L92.6029 2.57014L92.9972 2.76785C93.4645 3.44992 94.1387 4.01338 95.1916 4.52741C92.8513 3.77811 91.5757 4.36727 89.7835 5.63652C92.8277 7.16477 94.401 6.98486 96.6841 5.11063L96.6643 4.96038C97.2696 5.35578 97.869 5.75119 98.4604 6.17428C98.9159 6.94927 99.604 7.64123 100.671 8.32726C98.0247 7.11732 96.4455 7.63135 94.1644 8.86897C97.5161 11.0892 99.3989 11.101 102.335 9.22088V9.14378C102.806 9.53919 103.272 9.94118 103.732 10.3498C104.115 11.3185 104.781 12.222 105.901 13.1789C103.151 11.4352 101.319 11.7673 98.6063 12.7835C101.997 15.749 104.075 16.0535 107.616 14.4126L107.646 14.1556C108.068 14.6063 108.483 15.0676 108.89 15.5395C109.103 16.5992 109.622 17.6292 110.617 18.7957C108.172 16.6427 106.313 16.6802 103.47 17.2694C106.357 20.7391 108.36 21.3579 112.114 20.2923C112.166 20.1064 112.215 19.9245 112.261 19.7466C112.848 20.5506 113.414 21.3704 113.961 22.206C114.21 23.2495 114.647 24.2388 115.248 25.1261C112.863 22.3583 110.793 22.1191 107.547 22.3365C110.221 26.6287 112.352 27.6251 116.682 27.0162L116.735 26.8936C117.403 28.1536 118.027 29.4387 118.608 30.7488C118.77 31.3146 118.976 31.8667 119.225 32.3996C117.244 29.3293 115.227 28.8034 111.981 28.5681C113.992 33.0916 115.925 34.4142 120.104 34.4696C120.762 36.2766 121.333 38.1218 121.818 40.0053C120.307 37.2374 118.36 36.4466 115.311 35.7448C116.642 40.6873 118.397 42.437 122.535 43.214C122.855 44.8233 123.11 46.4557 123.3 48.1111C122.143 45.5153 120.296 44.4457 117.474 43.301C118.042 48.639 119.556 50.7939 123.63 52.3024C123.669 53.1901 123.691 54.0817 123.691 54.9773C123.691 55.2344 123.691 55.4894 123.691 55.7444C122.817 53.6606 121.256 52.4823 118.975 51.136C118.764 56.3474 119.874 58.7139 123.421 60.7562C123.262 62.4327 123.033 64.0869 122.736 65.7186C122.293 63.0575 120.818 61.4719 118.5 59.5423C117.384 65.0128 118.188 67.6482 121.688 70.4298C121.388 71.5633 121.055 72.6837 120.688 73.7908C120.625 70.8252 119.272 68.8482 117.07 66.3354C114.884 72.2032 115.319 75.2676 118.716 78.9548C117.835 80.9746 116.842 82.9435 115.741 84.8523C115.553 85.133 115.368 85.4303 115.185 85.7439C117.157 80.9338 116.124 78.1482 113.762 74.1625C110.134 80.1865 110.164 83.5237 113.492 88.4545C112.47 89.9675 111.383 91.4279 110.231 92.8356C112.09 89.1227 111.522 86.2481 110.085 82.2268C105.195 87.6478 104.486 91.0938 106.784 96.6908C105.172 98.3416 103.465 99.8969 101.672 101.349C101.278 101.606 100.864 101.89 100.444 102.209C104.306 98.2961 104.428 95.1546 103.727 90.2951C97.7034 94.7474 96.41 98.0371 97.7172 104.289C95.4039 105.864 92.9805 107.271 90.4657 108.498L90.1897 108.622C95.2527 105.376 96.134 102.039 96.546 96.6769C89.0639 99.9806 86.8853 103.181 86.7789 110.143C83.7293 111.375 80.5805 112.345 77.3666 113.041C81.9643 111.153 83.6027 108.181 85.3219 103.478C76.9821 104.664 73.8611 107.201 71.789 113.956C67.1624 114.495 62.4881 114.478 57.8657 113.903C55.7936 107.181 52.6667 104.648 44.3486 103.472C46.0048 108.007 47.5899 110.933 51.8268 112.829C48.7752 112.114 45.7864 111.152 42.8897 109.953C42.7477 103.118 40.5396 99.945 33.1265 96.671C33.503 101.614 34.2798 104.82 38.3492 107.839C36.1572 106.7 34.0394 105.422 32.0086 104.014C33.2211 97.9363 31.8765 94.6782 25.942 90.2911C25.2954 94.7632 25.3506 97.7821 28.373 101.285C26.4912 99.7544 24.7049 98.1091 23.0241 96.3586C25.1593 90.9515 24.3825 87.5351 19.5916 82.2209C18.3199 85.7795 17.7285 88.4347 18.8917 91.5703C18.0242 90.4473 17.1961 89.294 16.4075 88.1105C19.5108 83.3656 19.4575 80.0422 15.9127 74.1565C13.8662 77.6124 12.8232 80.1667 13.8622 83.9172C12.9119 82.2037 12.0457 80.4343 11.2637 78.6088C14.3807 75.0699 14.7238 72.0174 12.6044 66.3295C10.6939 68.5042 9.4242 70.2934 9.07918 72.656C8.8163 71.8204 8.57643 70.9755 8.35955 70.1214C11.5436 67.4524 12.2495 64.8091 11.175 59.5384C9.20536 61.1892 7.82526 62.585 7.1983 64.6114C6.98142 63.2552 6.80924 61.8838 6.68175 60.4972C9.8895 58.5202 10.9009 56.1319 10.6978 51.1379C8.7657 52.2787 7.34617 53.2988 6.43136 54.8508C6.43136 53.9374 6.45436 53.0286 6.50036 52.1245C10.2266 50.6259 11.6481 48.4373 12.1943 43.297C9.81063 44.2658 8.12297 45.1792 6.95777 47.0059C7.13126 45.6879 7.34682 44.391 7.60444 43.1151C11.4076 42.2927 13.0775 40.4956 14.3571 35.7408C11.8157 36.3339 10.0354 36.9824 8.63952 38.7993C9.05223 37.3271 9.51687 35.8772 10.0334 34.4498C13.8977 34.3035 15.7628 32.9137 17.6989 28.5602C14.9229 28.7579 13.046 29.1771 11.3209 31.2154C11.932 29.7985 12.5958 28.4106 13.3121 27.0517C17.4327 27.5658 19.5265 26.516 22.133 22.3286C18.8878 22.1111 16.8097 22.3543 14.432 25.1182C14.7157 24.6803 14.9686 24.2232 15.1891 23.7501C15.933 22.5362 16.7177 21.35 17.5431 20.1914L17.5668 20.2784C21.3128 21.3441 23.3258 20.7252 26.2102 17.2555C23.3672 16.6624 21.508 16.6288 19.0632 18.7818C19.7181 18.0546 20.2316 17.2111 20.5774 16.2947C21.1031 15.6766 21.642 15.067 22.1941 14.466C25.6562 16.0476 27.7145 15.7174 31.0662 12.7795C28.3513 11.7535 26.5217 11.4213 23.7713 13.175C24.4964 12.5852 25.1135 11.8734 25.595 11.0714C26.2352 10.4875 26.8838 9.91482 27.541 9.35335C30.3603 11.101 32.2235 11.0398 35.5022 8.87095C33.2231 7.63333 31.6438 7.1193 28.996 8.32924C29.6555 7.9232 30.2475 7.41622 30.7507 6.8267C31.5157 6.26522 32.2945 5.72549 33.089 5.1996C35.309 6.99277 36.8823 7.14302 39.8771 5.6385C38.085 4.36924 36.8094 3.78009 34.4671 4.52938C35.1581 4.21777 35.7821 3.77463 36.3046 3.22454C36.7095 2.99916 37.1117 2.78103 37.5112 2.57014Z" fill="url(#paint0_linear_320_71)"/>
<path fill-rule="evenodd" clip-rule="evenodd" d="M51.3791 19.0883C51.7689 19.462 52.1295 19.8652 52.4576 20.2943C53.5104 19.9622 54.5435 20.2469 55.5608 20.6897C57.3747 21.4805 57.1046 23.4358 54.928 22.8269C53.8061 22.5145 53.0905 21.5557 52.3649 20.6007C51.6453 20.8795 50.9198 21.4825 50.1962 22.5778C50.2632 21.5596 51.9154 20.4347 52.1973 20.403C51.8802 19.9769 51.5259 19.58 51.1386 19.2168C49.3718 20.041 47.6775 21.0132 46.0736 22.1231C41.2906 25.4188 37.8482 19.7328 41.4759 17.5443C42.7791 16.7534 45.147 16.8029 46.2077 17.8388C47.7357 17.6174 49.9537 17.9001 51.247 18.9618C53.2068 18.1334 55.9453 18.2738 58.2796 20.4485C56.6846 19.292 54.1393 17.7953 51.3791 19.0883ZM58.2796 16.9571C59.2911 18.8432 59.9653 20.6858 59.7504 22.4117H69.9316C69.7187 20.6917 70.3871 18.8531 71.3926 16.9768C71.4926 17.0594 71.6179 17.1048 71.7475 17.1054C71.874 17.1036 71.996 17.058 72.0928 16.9763C72.1896 16.8946 72.2553 16.7819 72.2786 16.6572C72.302 16.5325 72.2816 16.4035 72.2209 16.2922C72.1602 16.1808 72.0629 16.094 71.9457 16.0464C71.8284 15.9987 71.6983 15.9933 71.5774 16.0309C71.4566 16.0685 71.3525 16.1469 71.2827 16.2527C71.2129 16.3586 71.1818 16.4853 71.1947 16.6116C71.2075 16.7378 71.2635 16.8557 71.3531 16.9452C69.7325 18.6712 68.5496 18.9796 68.1947 16.6665C68.2236 16.6685 68.2526 16.6685 68.2814 16.6665C68.3911 16.6668 68.4984 16.6346 68.5898 16.5738C68.6811 16.513 68.7524 16.4264 68.7947 16.3249C68.8369 16.2234 68.8482 16.1116 68.827 16.0037C68.8059 15.8958 68.7532 15.7967 68.6758 15.7188C68.5984 15.6409 68.4997 15.5878 68.3922 15.5662C68.2847 15.5446 68.1732 15.5555 68.0719 15.5975C67.9705 15.6394 67.8839 15.7107 67.8229 15.8021C67.7619 15.8935 67.7294 16.0009 67.7294 16.1109C67.7288 16.2199 67.7606 16.3265 67.8206 16.4173C67.8807 16.5082 67.9662 16.579 68.0665 16.621C66.8836 18.4339 65.8978 18.1215 65.1249 15.5395C65.3454 15.4533 65.5275 15.2904 65.6381 15.0807C65.7487 14.871 65.7803 14.6284 65.7273 14.3971C65.6743 14.1659 65.5401 13.9615 65.3493 13.8213C65.1585 13.6811 64.9237 13.6143 64.6879 13.6333C64.452 13.6522 64.2309 13.7556 64.0647 13.9245C63.8986 14.0935 63.7986 14.3167 63.783 14.5534C63.7674 14.7901 63.8372 15.0246 63.9797 15.214C64.1221 15.4034 64.3278 15.5351 64.5591 15.585C63.7823 18.1295 62.7985 18.4221 61.6234 16.6111C61.7456 16.5518 61.8417 16.4494 61.8933 16.3235C61.945 16.1976 61.9485 16.057 61.9034 15.9287C61.8582 15.8003 61.7675 15.6931 61.6485 15.6276C61.5295 15.5621 61.3906 15.5429 61.2583 15.5736C61.1261 15.6043 61.0098 15.6827 60.9316 15.794C60.8534 15.9053 60.8188 16.0415 60.8344 16.1767C60.8501 16.3119 60.9149 16.4366 61.0164 16.527C61.118 16.6173 61.2491 16.667 61.3849 16.6665C61.4247 16.666 61.4643 16.6613 61.5032 16.6526C61.1601 18.9855 59.9653 18.6633 58.3171 16.9195C58.4158 16.8128 58.4688 16.6715 58.4646 16.5261C58.4605 16.3806 58.3997 16.2426 58.2951 16.1416C58.1906 16.0407 58.0507 15.9849 57.9056 15.9863C57.7605 15.9876 57.6217 16.0461 57.5191 16.149C57.4165 16.2519 57.3582 16.391 57.3569 16.5365C57.3555 16.6821 57.4111 16.8223 57.5118 16.9271C57.6124 17.032 57.7501 17.093 57.8952 17.0971C58.0402 17.1012 58.1811 17.0481 58.2875 16.9492L58.2796 16.9571ZM60.2276 21.7949H69.3875V22.0776H60.2354V21.7949H60.2276ZM78.2793 19.0883C75.5191 17.7953 72.9757 19.286 71.3788 20.4485C73.7131 18.2738 76.4497 18.1334 78.4094 18.9618C79.7067 17.9001 81.9227 17.6174 83.4487 17.8388C84.5173 16.8029 86.8832 16.7594 88.1805 17.5443C91.8082 19.7328 88.3658 25.4188 83.5828 22.1231C81.9762 21.0054 80.2778 20.0266 78.506 19.1971C78.1187 19.5602 77.7644 19.9572 77.4473 20.3833C77.7292 20.4228 79.3814 21.5477 79.4484 22.558C78.7268 21.4706 78.0033 20.8676 77.2797 20.581C76.5561 21.5359 75.8385 22.4947 74.7166 22.8071C72.5479 23.416 72.2699 21.4568 74.0838 20.6699C75.1011 20.2251 76.1342 19.9404 77.187 20.2745C77.5152 19.8454 77.8757 19.4422 78.2655 19.0685L78.2793 19.0883ZM81.0947 20.405C81.8557 20.8538 82.7114 21.3599 83.7129 21.8937C85.5702 22.8822 87.0883 22.8071 88.0662 22.2298C88.4094 22.0361 88.6986 21.759 88.907 21.4239C89.1155 21.0887 89.2365 20.7064 89.259 20.3121C89.3674 17.8013 85.6056 16.4608 83.7839 17.8942C85.1739 18.1611 86.7275 18.6712 87.3939 19.6142C88.3382 20.9507 86.8024 21.9076 85.4045 21.7712C82.7469 21.5141 81.8163 19.3216 83.2358 18.0741C81.8557 17.91 79.8605 18.1769 78.6756 19.0784C79.4129 19.4165 80.1838 19.8692 81.0868 20.405H81.0947ZM83.2122 18.7008C82.7271 20.2983 84.679 22.0104 86.4317 21.4271C88.1529 20.8558 86.3943 18.5822 83.5453 18.1176C83.3911 18.2876 83.2772 18.4903 83.2122 18.7107V18.7008ZM77.0313 20.5157C76.0829 20.2469 75.1287 20.5157 74.204 20.9309C73.0664 21.4469 73.2005 22.9613 74.6654 22.5758C75.6768 22.3109 76.3491 21.4153 77.0313 20.5157ZM48.5558 20.405C49.4588 19.8732 50.2297 19.4165 50.9691 19.0784C49.7861 18.1769 47.783 17.91 46.4068 18.0741C47.8343 19.3216 46.9037 21.5141 44.2381 21.7712C42.8442 21.9076 41.3024 20.9507 42.2488 19.6142C42.9152 18.6712 44.4708 18.1611 45.8587 17.8942C44.035 16.4608 40.2733 17.8013 40.3837 20.3121C40.4058 20.7065 40.5267 21.089 40.7352 21.4241C40.9436 21.7593 41.233 22.0364 41.5765 22.2298C42.5623 22.8071 44.0725 22.8783 45.9277 21.8937C46.9313 21.3599 47.7869 20.8538 48.548 20.405H48.5558ZM46.4384 18.7008C46.3733 18.4805 46.2594 18.2777 46.1052 18.1077C43.2563 18.5723 41.4996 20.8459 43.2188 21.4173C44.9715 22.0104 46.9234 20.2884 46.4384 18.6909V18.7008ZM52.6193 20.5157C53.3014 21.4153 53.9737 22.3109 54.9851 22.5758C56.45 22.9712 56.5841 21.4469 55.4465 20.9309C54.5297 20.5078 53.5755 20.2469 52.6271 20.5157H52.6193Z" fill="url(#paint1_linear_320_71)"/>
<path d="M32.2861 49.9062V53.1875C32.2861 53.7292 32.3148 54.0677 32.3721 54.2031C32.4346 54.3385 32.5518 54.4583 32.7236 54.5625C32.9007 54.6615 33.1377 54.7109 33.4346 54.7109H33.7861V55H28.2471V54.7109H28.5986C28.9059 54.7109 29.1533 54.6562 29.3408 54.5469C29.4762 54.474 29.5804 54.349 29.6533 54.1719C29.7106 54.0469 29.7393 53.7188 29.7393 53.1875V46.2188C29.7393 45.6771 29.7106 45.3385 29.6533 45.2031C29.596 45.0677 29.4788 44.9505 29.3018 44.8516C29.1299 44.7474 28.8955 44.6953 28.5986 44.6953H28.2471V44.4062H33.7861V44.6953H33.4346C33.1273 44.6953 32.8799 44.75 32.6924 44.8594C32.557 44.9323 32.4502 45.0573 32.3721 45.2344C32.3148 45.3594 32.2861 45.6875 32.2861 46.2188V49.2188H36.0283V46.2188C36.0283 45.6771 35.9997 45.3385 35.9424 45.2031C35.8851 45.0677 35.7679 44.9505 35.5908 44.8516C35.4137 44.7474 35.1768 44.6953 34.8799 44.6953H34.5361V44.4062H40.0674V44.6953H39.7236C39.4111 44.6953 39.1637 44.75 38.9814 44.8594C38.846 44.9323 38.7393 45.0573 38.6611 45.2344C38.6038 45.3594 38.5752 45.6875 38.5752 46.2188V53.1875C38.5752 53.7292 38.6038 54.0677 38.6611 54.2031C38.7184 54.3385 38.8356 54.4583 39.0127 54.5625C39.1898 54.6615 39.4268 54.7109 39.7236 54.7109H40.0674V55H34.5361V54.7109H34.8799C35.1924 54.7109 35.4398 54.6562 35.6221 54.5469C35.7575 54.474 35.8643 54.349 35.9424 54.1719C35.9997 54.0469 36.0283 53.7188 36.0283 53.1875V49.9062H32.2861ZM46.2236 54.7109V55H40.6846V54.7109H41.0361C41.3434 54.7109 41.5908 54.6562 41.7783 54.5469C41.9137 54.474 42.0179 54.349 42.0908 54.1719C42.1481 54.0469 42.1768 53.7188 42.1768 53.1875V46.2188C42.1768 45.6771 42.1481 45.3385 42.0908 45.2031C42.0335 45.0677 41.9163 44.9505 41.7393 44.8516C41.5674 44.7474 41.333 44.6953 41.0361 44.6953H40.6846V44.4062H46.2236V44.6953H45.8721C45.5648 44.6953 45.3174 44.75 45.1299 44.8594C44.9945 44.9323 44.8877 45.0573 44.8096 45.2344C44.7523 45.3594 44.7236 45.6875 44.7236 46.2188V53.1875C44.7236 53.7292 44.7523 54.0677 44.8096 54.2031C44.8721 54.3385 44.9893 54.4583 45.1611 54.5625C45.3382 54.6615 45.5752 54.7109 45.8721 54.7109H46.2236ZM57.6377 44.1641V47.8984H57.3486C56.9997 46.8776 56.4762 46.1016 55.7783 45.5703C55.0804 45.0391 54.3174 44.7734 53.4893 44.7734C52.6976 44.7734 52.0387 44.9974 51.5127 45.4453C50.9867 45.888 50.6143 46.5078 50.3955 47.3047C50.1768 48.1016 50.0674 48.9193 50.0674 49.7578C50.0674 50.7734 50.1872 51.6641 50.4268 52.4297C50.6663 53.1953 51.0518 53.7578 51.583 54.1172C52.1195 54.4766 52.7549 54.6562 53.4893 54.6562C53.7445 54.6562 54.0049 54.6302 54.2705 54.5781C54.5413 54.5208 54.8174 54.4401 55.0986 54.3359V52.1328C55.0986 51.7161 55.07 51.4479 55.0127 51.3281C54.9554 51.2031 54.8356 51.0911 54.6533 50.9922C54.4762 50.8932 54.2601 50.8438 54.0049 50.8438H53.7314V50.5547H58.8799V50.8438C58.4893 50.8698 58.2158 50.9245 58.0596 51.0078C57.9085 51.0859 57.7913 51.2188 57.708 51.4062C57.6611 51.5052 57.6377 51.7474 57.6377 52.1328V54.3359C56.9606 54.638 56.2549 54.8646 55.5205 55.0156C54.7913 55.1719 54.0335 55.25 53.2471 55.25C52.2419 55.25 51.4059 55.1146 50.7393 54.8438C50.0778 54.5677 49.4919 54.2083 48.9814 53.7656C48.4762 53.3177 48.0804 52.8151 47.7939 52.2578C47.4294 51.5391 47.2471 50.7344 47.2471 49.8438C47.2471 48.25 47.807 46.9036 48.9268 45.8047C50.0465 44.7057 51.4554 44.1562 53.1533 44.1562C53.6794 44.1562 54.1533 44.1979 54.5752 44.2812C54.8044 44.3229 55.1742 44.4427 55.6846 44.6406C56.2002 44.8333 56.5049 44.9297 56.5986 44.9297C56.7445 44.9297 56.8799 44.8776 57.0049 44.7734C57.1299 44.6641 57.2445 44.4609 57.3486 44.1641H57.6377ZM63.4268 49.9062V53.1875C63.4268 53.7292 63.4554 54.0677 63.5127 54.2031C63.5752 54.3385 63.6924 54.4583 63.8643 54.5625C64.0413 54.6615 64.2783 54.7109 64.5752 54.7109H64.9268V55H59.3877V54.7109H59.7393C60.0465 54.7109 60.2939 54.6562 60.4814 54.5469C60.6169 54.474 60.721 54.349 60.7939 54.1719C60.8512 54.0469 60.8799 53.7188 60.8799 53.1875V46.2188C60.8799 45.6771 60.8512 45.3385 60.7939 45.2031C60.7367 45.0677 60.6195 44.9505 60.4424 44.8516C60.2705 44.7474 60.0361 44.6953 59.7393 44.6953H59.3877V44.4062H64.9268V44.6953H64.5752C64.2679 44.6953 64.0205 44.75 63.833 44.8594C63.6976 44.9323 63.5908 45.0573 63.5127 45.2344C63.4554 45.3594 63.4268 45.6875 63.4268 46.2188V49.2188H67.1689V46.2188C67.1689 45.6771 67.1403 45.3385 67.083 45.2031C67.0257 45.0677 66.9085 44.9505 66.7314 44.8516C66.5544 44.7474 66.3174 44.6953 66.0205 44.6953H65.6768V44.4062H71.208V44.6953H70.8643C70.5518 44.6953 70.3044 44.75 70.1221 44.8594C69.9867 44.9323 69.8799 45.0573 69.8018 45.2344C69.7445 45.3594 69.7158 45.6875 69.7158 46.2188V53.1875C69.7158 53.7292 69.7445 54.0677 69.8018 54.2031C69.859 54.3385 69.9762 54.4583 70.1533 54.5625C70.3304 54.6615 70.5674 54.7109 70.8643 54.7109H71.208V55H65.6768V54.7109H66.0205C66.333 54.7109 66.5804 54.6562 66.7627 54.5469C66.8981 54.474 67.0049 54.349 67.083 54.1719C67.1403 54.0469 67.1689 53.7188 67.1689 53.1875V49.9062H63.4268ZM75.8643 45.0156V49.3281H76.0752C76.7471 49.3281 77.234 49.1172 77.5361 48.6953C77.8382 48.2734 78.0309 47.651 78.1143 46.8281H78.4111V52.375H78.1143C78.0518 51.7708 77.9189 51.276 77.7158 50.8906C77.5179 50.5052 77.2861 50.2474 77.0205 50.1172C76.7549 49.9818 76.3695 49.9141 75.8643 49.9141V52.8984C75.8643 53.4818 75.8877 53.8385 75.9346 53.9688C75.9867 54.099 76.0804 54.2057 76.2158 54.2891C76.3512 54.3724 76.57 54.4141 76.8721 54.4141H77.5049C78.4945 54.4141 79.2861 54.1849 79.8799 53.7266C80.4788 53.2682 80.9085 52.5703 81.1689 51.6328H81.458L80.9814 55H71.8252V54.7109H72.1768C72.484 54.7109 72.7314 54.6562 72.9189 54.5469C73.0544 54.474 73.1585 54.349 73.2314 54.1719C73.2887 54.0469 73.3174 53.7188 73.3174 53.1875V46.2188C73.3174 45.7396 73.3044 45.4453 73.2783 45.3359C73.2262 45.1536 73.1299 45.013 72.9893 44.9141C72.7913 44.7682 72.5205 44.6953 72.1768 44.6953H71.8252V44.4062H80.6924V47.5391H80.3955C80.2445 46.7734 80.0309 46.224 79.7549 45.8906C79.484 45.5573 79.0986 45.3125 78.5986 45.1562C78.307 45.0625 77.7601 45.0156 76.958 45.0156H75.8643ZM89.6924 44.1641L89.7783 47.6953H89.458C89.307 46.8099 88.9346 46.099 88.3408 45.5625C87.7523 45.0208 87.1143 44.75 86.4268 44.75C85.8955 44.75 85.4736 44.8932 85.1611 45.1797C84.8538 45.4609 84.7002 45.7865 84.7002 46.1562C84.7002 46.3906 84.7549 46.599 84.8643 46.7812C85.0153 47.026 85.2575 47.2682 85.5908 47.5078C85.8356 47.6797 86.4007 47.9844 87.2861 48.4219C88.5257 49.0312 89.3617 49.6068 89.7939 50.1484C90.221 50.6901 90.4346 51.3099 90.4346 52.0078C90.4346 52.8932 90.0882 53.6562 89.3955 54.2969C88.708 54.9323 87.833 55.25 86.7705 55.25C86.4372 55.25 86.1221 55.2161 85.8252 55.1484C85.5283 55.0807 85.1559 54.9531 84.708 54.7656C84.458 54.6615 84.2523 54.6094 84.0908 54.6094C83.9554 54.6094 83.8122 54.6615 83.6611 54.7656C83.5101 54.8698 83.3877 55.0286 83.2939 55.2422H83.0049V51.2422H83.2939C83.5231 52.3672 83.9632 53.2266 84.6143 53.8203C85.2705 54.4089 85.9762 54.7031 86.7314 54.7031C87.3148 54.7031 87.7783 54.5443 88.1221 54.2266C88.471 53.9089 88.6455 53.5391 88.6455 53.1172C88.6455 52.8672 88.5778 52.625 88.4424 52.3906C88.3122 52.1562 88.1117 51.9349 87.8408 51.7266C87.57 51.513 87.0908 51.237 86.4033 50.8984C85.4398 50.4245 84.7471 50.0208 84.3252 49.6875C83.9033 49.3542 83.5778 48.9818 83.3486 48.5703C83.1247 48.1589 83.0127 47.7057 83.0127 47.2109C83.0127 46.3672 83.3226 45.6484 83.9424 45.0547C84.5622 44.4609 85.3434 44.1641 86.2861 44.1641C86.6299 44.1641 86.9632 44.2057 87.2861 44.2891C87.5309 44.3516 87.8278 44.4688 88.1768 44.6406C88.5309 44.8073 88.7783 44.8906 88.9189 44.8906C89.0544 44.8906 89.1611 44.849 89.2393 44.7656C89.3174 44.6823 89.3903 44.4818 89.458 44.1641H89.6924ZM101.177 44.4062V47.2734H100.896C100.729 46.612 100.544 46.138 100.341 45.8516C100.138 45.5599 99.859 45.3281 99.5049 45.1562C99.307 45.0625 98.9606 45.0156 98.4658 45.0156H97.6768V53.1875C97.6768 53.7292 97.7054 54.0677 97.7627 54.2031C97.8252 54.3385 97.9424 54.4583 98.1143 54.5625C98.2913 54.6615 98.5309 54.7109 98.833 54.7109H99.1846V55H93.6377V54.7109H93.9893C94.2965 54.7109 94.5439 54.6562 94.7314 54.5469C94.8669 54.474 94.9736 54.349 95.0518 54.1719C95.109 54.0469 95.1377 53.7188 95.1377 53.1875V45.0156H94.3721C93.6585 45.0156 93.1403 45.1667 92.8174 45.4688C92.3643 45.8906 92.0778 46.4922 91.958 47.2734H91.6611V44.4062H101.177Z" fill="url(#paint2_linear_320_71)"/>
<path d="M27.3124 76.096C26.1124 76.096 25.1084 75.72 24.3004 74.968C23.4924 74.216 23.0884 73.16 23.0884 71.8C23.0884 70.448 23.4924 69.396 24.3004 68.644C25.1164 67.884 26.1204 67.504 27.3124 67.504C28.3604 67.504 29.2244 67.764 29.9044 68.284C30.5924 68.804 30.9964 69.5 31.1164 70.372L29.2324 70.768C29.1364 70.264 28.9124 69.864 28.5604 69.568C28.2084 69.272 27.7884 69.124 27.3004 69.124C26.6364 69.124 26.0844 69.36 25.6444 69.832C25.2124 70.296 24.9964 70.952 24.9964 71.8C24.9964 72.648 25.2124 73.304 25.6444 73.768C26.0764 74.232 26.6284 74.464 27.3004 74.464C27.7884 74.464 28.2004 74.336 28.5364 74.08C28.8724 73.816 29.0884 73.456 29.1844 73L31.0924 73.432C30.8924 74.264 30.4604 74.916 29.7964 75.388C29.1324 75.86 28.3044 76.096 27.3124 76.096ZM35.1278 76.096C34.1918 76.096 33.4238 75.804 32.8238 75.22C32.2318 74.628 31.9358 73.88 31.9358 72.976C31.9358 72.072 32.2318 71.328 32.8238 70.744C33.4238 70.152 34.1918 69.856 35.1278 69.856C36.0478 69.856 36.8078 70.152 37.4078 70.744C38.0158 71.328 38.3198 72.072 38.3198 72.976C38.3198 73.88 38.0158 74.628 37.4078 75.22C36.8078 75.804 36.0478 76.096 35.1278 76.096ZM35.1278 74.596C35.5518 74.596 35.8958 74.448 36.1598 74.152C36.4238 73.848 36.5558 73.456 36.5558 72.976C36.5558 72.496 36.4238 72.108 36.1598 71.812C35.8958 71.508 35.5518 71.356 35.1278 71.356C34.6958 71.356 34.3478 71.508 34.0838 71.812C33.8198 72.108 33.6878 72.496 33.6878 72.976C33.6878 73.456 33.8198 73.848 34.0838 74.152C34.3478 74.448 34.6958 74.596 35.1278 74.596ZM39.3725 76V69.952H41.1365V70.756C41.5445 70.156 42.1605 69.856 42.9845 69.856C43.6485 69.856 44.1845 70.056 44.5925 70.456C45.0005 70.856 45.2045 71.388 45.2045 72.052V76H43.4525V72.52C43.4525 72.192 43.3565 71.928 43.1645 71.728C42.9805 71.52 42.7285 71.416 42.4085 71.416C41.5605 71.416 41.1365 72.06 41.1365 73.348V76H39.3725ZM50.1483 75.94C49.8363 76.044 49.5083 76.096 49.1643 76.096C48.4763 76.096 47.9203 75.912 47.4963 75.544C47.0723 75.176 46.8603 74.64 46.8603 73.936V71.416H45.9003V69.952H46.8603V68.2H48.6243V69.952H50.0883V71.416H48.6243V73.708C48.6243 73.972 48.6883 74.18 48.8163 74.332C48.9523 74.484 49.1283 74.56 49.3443 74.56C49.6163 74.56 49.8443 74.512 50.0283 74.416L50.1483 75.94ZM55.1947 71.644C54.9867 71.548 54.7307 71.5 54.4267 71.5C53.9867 71.5 53.6187 71.688 53.3227 72.064C53.0267 72.432 52.8787 73.016 52.8787 73.816V76H51.1147V69.952H52.8787V70.996C53.0147 70.676 53.2547 70.408 53.5987 70.192C53.9427 69.968 54.2947 69.856 54.6547 69.856C54.9107 69.856 55.1267 69.888 55.3027 69.952L55.1947 71.644ZM58.3419 69.856C59.1899 69.856 59.8619 70.076 60.3579 70.516C60.8539 70.948 61.1019 71.58 61.1019 72.412V76H59.3979V75.232C59.2219 75.496 58.9779 75.708 58.6659 75.868C58.3539 76.02 58.0299 76.096 57.6939 76.096C57.1099 76.096 56.6299 75.924 56.2539 75.58C55.8779 75.236 55.6899 74.808 55.6899 74.296C55.6899 73.128 56.5619 72.452 58.3059 72.268L59.3979 72.16V72.124C59.3979 71.828 59.3019 71.596 59.1099 71.428C58.9259 71.252 58.6699 71.164 58.3419 71.164C58.0539 71.164 57.8139 71.248 57.6219 71.416C57.4299 71.584 57.3179 71.812 57.2859 72.1L55.7499 71.812C55.8459 71.228 56.1379 70.756 56.6259 70.396C57.1139 70.036 57.6859 69.856 58.3419 69.856ZM58.1259 74.836C58.5099 74.836 58.8139 74.704 59.0379 74.44C59.2699 74.176 59.3899 73.86 59.3979 73.492V73.48V73.444V73.396L58.2699 73.528C57.9819 73.56 57.7579 73.64 57.5979 73.768C57.4459 73.896 57.3699 74.052 57.3699 74.236C57.3699 74.412 57.4339 74.556 57.5619 74.668C57.6979 74.78 57.8859 74.836 58.1259 74.836ZM65.2661 76.096C64.3541 76.096 63.6101 75.808 63.0341 75.232C62.4581 74.648 62.1701 73.896 62.1701 72.976C62.1701 72.056 62.4581 71.308 63.0341 70.732C63.6101 70.148 64.3541 69.856 65.2661 69.856C66.0741 69.856 66.7421 70.048 67.2701 70.432C67.7981 70.816 68.1101 71.34 68.2061 72.004L66.5021 72.34C66.4541 72.036 66.3261 71.796 66.1181 71.62C65.9101 71.444 65.6501 71.356 65.3381 71.356C64.9221 71.356 64.5901 71.504 64.3421 71.8C64.1021 72.088 63.9821 72.48 63.9821 72.976C63.9821 73.464 64.1061 73.856 64.3541 74.152C64.6021 74.448 64.9301 74.596 65.3381 74.596C65.9621 74.596 66.3421 74.292 66.4781 73.684L68.1941 74.032C68.0821 74.672 67.7661 75.176 67.2461 75.544C66.7261 75.912 66.0661 76.096 65.2661 76.096ZM72.9178 75.94C72.6058 76.044 72.2778 76.096 71.9338 76.096C71.2458 76.096 70.6898 75.912 70.2658 75.544C69.8418 75.176 69.6298 74.64 69.6298 73.936V71.416H68.6698V69.952H69.6298V68.2H71.3938V69.952H72.8578V71.416H71.3938V73.708C71.3938 73.972 71.4578 74.18 71.5858 74.332C71.7218 74.484 71.8978 74.56 72.1138 74.56C72.3858 74.56 72.6138 74.512 72.7978 74.416L72.9178 75.94ZM79.1553 76L76.1433 67.6H78.0753L80.0553 73.72L82.0473 67.6H83.9793L80.9673 76H79.1553ZM86.3146 69.856C87.1626 69.856 87.8346 70.076 88.3306 70.516C88.8266 70.948 89.0746 71.58 89.0746 72.412V76H87.3706V75.232C87.1946 75.496 86.9506 75.708 86.6386 75.868C86.3266 76.02 86.0026 76.096 85.6666 76.096C85.0826 76.096 84.6026 75.924 84.2266 75.58C83.8506 75.236 83.6626 74.808 83.6626 74.296C83.6626 73.128 84.5346 72.452 86.2786 72.268L87.3706 72.16V72.124C87.3706 71.828 87.2746 71.596 87.0826 71.428C86.8986 71.252 86.6426 71.164 86.3146 71.164C86.0266 71.164 85.7866 71.248 85.5946 71.416C85.4026 71.584 85.2906 71.812 85.2586 72.1L83.7226 71.812C83.8186 71.228 84.1106 70.756 84.5986 70.396C85.0866 70.036 85.6586 69.856 86.3146 69.856ZM86.0986 74.836C86.4826 74.836 86.7866 74.704 87.0106 74.44C87.2426 74.176 87.3626 73.86 87.3706 73.492V73.48V73.444V73.396L86.2426 73.528C85.9546 73.56 85.7306 73.64 85.5706 73.768C85.4186 73.896 85.3426 74.052 85.3426 74.236C85.3426 74.412 85.4066 74.556 85.5346 74.668C85.6706 74.78 85.8586 74.836 86.0986 74.836ZM90.4428 76V67.504H92.2068V76H90.4428ZM99.4037 69.952V76H97.6517V75.196C97.2277 75.796 96.6117 76.096 95.8037 76.096C95.1317 76.096 94.5917 75.896 94.1837 75.496C93.7757 75.096 93.5717 74.564 93.5717 73.9V69.952H95.3357V73.432C95.3357 73.76 95.4277 74.028 95.6117 74.236C95.8037 74.436 96.0557 74.536 96.3677 74.536C96.7837 74.536 97.0997 74.372 97.3157 74.044C97.5397 73.708 97.6517 73.228 97.6517 72.604V69.952H99.4037ZM106.587 72.82C106.587 73.084 106.579 73.304 106.563 73.48H102.219C102.395 74.248 102.867 74.632 103.635 74.632C104.283 74.632 104.675 74.372 104.811 73.852L106.467 74.296C106.291 74.864 105.947 75.308 105.435 75.628C104.923 75.94 104.307 76.096 103.587 76.096C102.611 76.096 101.847 75.784 101.295 75.16C100.751 74.528 100.479 73.8 100.479 72.976C100.479 72.448 100.579 71.956 100.779 71.5C100.979 71.044 101.311 70.656 101.775 70.336C102.247 70.016 102.815 69.856 103.479 69.856C103.999 69.856 104.463 69.948 104.871 70.132C105.287 70.308 105.615 70.544 105.855 70.84C106.095 71.136 106.275 71.452 106.395 71.788C106.523 72.124 106.587 72.468 106.587 72.82ZM102.243 72.232H104.703C104.671 71.912 104.551 71.656 104.343 71.464C104.143 71.264 103.855 71.164 103.479 71.164C102.823 71.164 102.411 71.52 102.243 72.232Z" fill="url(#paint3_linear_320_71)"/>
</g>
<defs>
<linearGradient id="paint0_linear_320_71" x1="5.49289" y1="59.999" x2="124.174" y2="59.999" gradientUnits="userSpaceOnUse">
<stop stop-color="#DBA73E"/>
<stop offset="0.25" stop-color="#F4F3B8"/>
<stop offset="0.5" stop-color="#D5B767"/>
<stop offset="0.8" stop-color="#F7ED9A"/>
<stop offset="0.94" stop-color="#D0AB5B"/>
<stop offset="1" stop-color="#E0C77D"/>
</linearGradient>
<linearGradient id="paint1_linear_320_71" x1="45.9258" y1="18.3845" x2="83.7386" y2="18.3845" gradientUnits="userSpaceOnUse">
<stop stop-color="#CABE90"/>
<stop offset="0.11" stop-color="#926F3E"/>
<stop offset="0.41" stop-color="#F8EDD6"/>
<stop offset="0.65" stop-color="#F3E7CF"/>
<stop offset="0.86" stop-color="#906A3A"/>
<stop offset="1" stop-color="#C8BE8C"/>
</linearGradient>
<linearGradient id="paint2_linear_320_71" x1="37.4534" y1="49.9913" x2="92.2121" y2="49.9913" gradientUnits="userSpaceOnUse">
<stop stop-color="#CABE90"/>
<stop offset="0.11" stop-color="#926F3E"/>
<stop offset="0.41" stop-color="#F8EDD6"/>
<stop offset="0.65" stop-color="#F3E7CF"/>
<stop offset="0.86" stop-color="#906A3A"/>
<stop offset="1" stop-color="#C8BE8C"/>
</linearGradient>
<linearGradient id="paint3_linear_320_71" x1="33.3835" y1="71.9931" x2="96.282" y2="71.9931" gradientUnits="userSpaceOnUse">
<stop stop-color="#CABE90"/>
<stop offset="0.11" stop-color="#926F3E"/>
<stop offset="0.41" stop-color="#F8EDD6"/>
<stop offset="0.65" stop-color="#F3E7CF"/>
<stop offset="0.86" stop-color="#906A3A"/>
<stop offset="1" stop-color="#C8BE8C"/>
</linearGradient>
<clipPath id="clip0_320_71">
<rect width="129" height="120" fill="white" transform="translate(0.333008)"/>
</clipPath>
</defs>
</svg>
