<svg width="130" height="120" viewBox="0 0 130 120" fill="none" xmlns="http://www.w3.org/2000/svg">
<g clip-path="url(#clip0_320_81)">
<path fill-rule="evenodd" clip-rule="evenodd" d="M37.8452 2.57014C37.4509 2.76785 37.0724 2.97939 36.6879 3.19093C37.4233 2.34872 37.7328 1.34043 38.0246 0C34.7558 0.945022 33.7187 2.14904 33.3264 5.11261L33.3737 5.15215C32.6836 5.59369 32.0028 6.04906 31.3311 6.51828C32.0941 5.42893 32.3288 4.19131 32.4786 2.56421C28.772 4.13398 27.7232 5.69188 27.6758 9.22681L27.7192 9.25252C27.2066 9.67165 26.7019 10.0967 26.205 10.5336C26.7374 9.3059 26.7965 7.98524 26.7177 6.31069C22.9224 8.56846 21.9543 10.4249 22.3802 14.1951C21.9583 14.636 21.5423 15.0808 21.1342 15.5355C21.3688 14.3493 21.215 13.1097 20.9094 11.6032C17.6346 14.3137 16.8933 16.2552 17.7273 19.6497C17.1687 20.3891 16.6291 21.1417 16.1086 21.9075C16.3748 20.3081 16.0002 18.7996 15.3358 16.9056C12.0275 20.5295 11.5681 22.8268 13.1789 26.6642C12.6321 27.6488 12.1142 28.6492 11.6253 29.6654C11.8638 27.7734 11.2566 26.1917 10.2195 24.1771C7.37456 28.3289 7.30161 30.6776 9.58863 34.4083C9.05499 35.8173 8.57262 37.2532 8.1415 38.7162C8.30908 36.3023 7.37061 34.608 5.79336 32.4233C3.47676 37.2671 3.80207 39.7483 6.86392 43.3128L6.99996 43.2931C6.6569 44.9314 6.38088 46.5954 6.1719 48.2851C6.13444 45.2741 4.82728 43.5244 2.59546 41.3062C0.963002 46.7944 1.71811 49.3507 5.53508 52.5891L5.79533 52.5041C5.74144 53.5466 5.71449 54.5964 5.71449 55.6535C5.71449 56.3441 5.72566 57.0302 5.74801 57.7116C5.69281 58.0134 5.64549 58.3317 5.60606 58.6665C5.4917 54.5246 3.87699 52.8006 0.913712 50.614C0.0994525 56.2861 1.22128 58.7179 5.47002 61.3533C5.6376 61.2702 5.79927 61.1872 5.95897 61.1042C6.12327 62.9296 6.36774 64.7281 6.69239 66.4995C5.70661 63.5339 3.8415 62.2133 0.92357 60.7167C1.03398 66.7328 2.60335 69.0538 7.45539 71.0803L7.67424 70.9221C8.05541 72.3719 8.48652 73.7941 8.96759 75.1886C7.34104 71.8276 5.02444 70.6651 1.41843 69.4769C2.58166 76.1217 4.72279 78.419 10.4502 79.8188C10.5291 79.7417 10.606 79.6665 10.6789 79.5894C11.0588 80.4567 11.457 81.3134 11.8737 82.1596C9.9652 80.6392 7.74718 80.1193 4.79574 79.7298C7.23655 86.2323 9.83114 88.3042 15.6512 88.7391C16.4004 89.8674 17.189 90.9692 18.0171 92.0447C15.4087 90.2654 12.7629 90.1152 9.14503 90.3346C13.0882 96.7461 16.2545 98.304 22.6897 97.4519C23.5086 98.2928 24.3505 99.1087 25.2153 99.8995C22.741 99.1937 20.3633 99.5852 17.329 100.398C22.2954 105.722 25.657 106.724 31.4337 104.862C32.6363 105.696 33.8692 106.487 35.1323 107.234C32.102 106.916 29.5469 107.926 26.3076 109.623C32.9242 114.142 36.7569 114.389 42.5454 110.947C45.0007 111.973 47.5222 112.832 50.0926 113.517C46.5615 113.899 44.1424 115.692 41.1515 118.529C49.1758 121.226 53.1032 120.328 58.0262 115.055C62.7916 115.646 67.6103 115.661 72.3793 115.101C77.2826 120.334 81.21 121.218 89.2106 118.529C86.3104 115.785 83.9465 114.008 80.583 113.557C83.1087 112.891 85.5878 112.059 88.004 111.066C93.6841 114.391 97.5109 114.103 104.055 109.63C101.007 108.035 98.5618 107.044 95.7562 107.199C96.9392 106.495 98.1004 105.75 99.24 104.963C104.829 106.695 108.157 105.627 113.041 100.402C110.257 99.6563 108.027 99.2669 105.77 99.7492C106.558 99.0217 107.327 98.2744 108.077 97.5073C114.244 98.2447 117.365 96.6196 121.219 90.3425C117.986 90.1448 115.529 90.2476 113.185 91.5287C113.876 90.6061 114.541 89.6637 115.178 88.7016C120.669 88.1876 123.189 86.0524 125.56 79.7338C122.96 80.0778 120.929 80.5246 119.18 81.6614C119.478 81.0432 119.765 80.4185 120.042 79.7871C125.669 78.3834 127.782 76.0703 128.938 69.4789C126.018 70.4397 123.942 71.3927 122.396 73.5002C122.659 72.6725 122.899 71.8362 123.116 70.9913C127.802 68.9846 129.324 66.6418 129.425 60.7107C127.11 61.897 125.464 62.9705 124.385 64.8467C124.567 63.6829 124.713 62.5072 124.823 61.3197L124.878 61.3473C129.115 58.7179 130.235 56.2861 129.421 50.6121C127.173 52.2708 125.702 53.6626 125.072 56.0449V55.6495C125.072 54.5661 125.043 53.4906 124.987 52.423C128.638 49.2598 129.342 46.6896 127.737 41.2983C125.994 43.0282 124.815 44.4615 124.37 46.4583C124.19 45.2998 123.978 44.1505 123.735 43.0104C126.556 39.6039 126.801 37.1287 124.549 32.4233C123.277 34.1631 122.426 35.5965 122.219 37.3343C121.853 36.185 121.453 35.0528 121.018 33.9378C123.021 30.472 122.838 28.1431 120.113 24.1692C119.265 25.8161 118.705 27.1704 118.658 28.6452C118.239 27.8149 117.801 26.9957 117.345 26.1878C118.725 22.6291 118.169 20.3714 114.997 16.8957C114.441 18.4774 114.086 19.802 114.143 21.1286C113.678 20.4695 113.2 19.8211 112.71 19.1832C113.368 16.0654 112.548 14.1813 109.433 11.5894C109.177 12.8487 109.027 13.9183 109.123 14.9306C108.755 14.5351 108.382 14.1397 108.006 13.7562C108.299 10.2687 107.266 8.46763 103.615 6.29685C103.552 7.71241 103.583 8.87688 103.915 9.94448C103.499 9.59125 103.077 9.24263 102.649 8.89863C102.546 5.595 101.452 4.08257 97.8658 2.57014C97.992 3.93825 98.1773 5.03155 98.686 5.99041C98.1234 5.61082 97.5563 5.24177 96.9845 4.88327C96.5587 2.08379 95.4999 0.919321 92.3099 0C92.5504 1.12098 92.8107 2.01064 93.3174 2.76785L92.9369 2.57014L93.3312 2.76785C93.7985 3.44992 94.4727 4.01338 95.5256 4.52741C93.1853 3.77811 91.9097 4.36727 90.1175 5.63652C93.1616 7.16477 94.735 6.98486 97.018 5.11063L96.9983 4.96038C97.6036 5.35578 98.2029 5.75119 98.7944 6.17428C99.2499 6.94927 99.9379 7.64123 101.005 8.32726C98.3587 7.11732 96.7795 7.63135 94.4984 8.86897C97.85 11.0892 99.7329 11.101 102.669 9.22088V9.14378C103.14 9.53919 103.606 9.94118 104.066 10.3498C104.449 11.3185 105.115 12.222 106.235 13.1789C103.485 11.4352 101.653 11.7673 98.9403 12.7835C102.331 15.749 104.409 16.0535 107.95 14.4126L107.98 14.1556C108.402 14.6063 108.817 15.0676 109.224 15.5395C109.437 16.5992 109.955 17.6292 110.951 18.7957C108.506 16.6427 106.647 16.6802 103.804 17.2694C106.691 20.7391 108.694 21.3579 112.448 20.2923C112.5 20.1064 112.549 19.9245 112.595 19.7466C113.182 20.5506 113.748 21.3704 114.295 22.206C114.544 23.2495 114.981 24.2388 115.582 25.1261C113.197 22.3583 111.127 22.1191 107.881 22.3365C110.555 26.6287 112.686 27.6251 117.016 27.0162L117.069 26.8936C117.737 28.1536 118.361 29.4387 118.942 30.7488C119.104 31.3146 119.31 31.8667 119.559 32.3996C117.578 29.3293 115.561 28.8034 112.315 28.5681C114.326 33.0916 116.259 34.4142 120.438 34.4696C121.096 36.2766 121.667 38.1218 122.152 40.0053C120.641 37.2374 118.694 36.4466 115.645 35.7448C116.976 40.6873 118.731 42.437 122.869 43.214C123.189 44.8233 123.444 46.4557 123.634 48.1111C122.477 45.5153 120.63 44.4457 117.808 43.301C118.376 48.639 119.89 50.7939 123.964 52.3024C124.003 53.1901 124.025 54.0817 124.025 54.9773C124.025 55.2344 124.025 55.4894 124.025 55.7444C123.151 53.6606 121.59 52.4823 119.309 51.136C119.098 56.3474 120.208 58.7139 123.755 60.7562C123.595 62.4327 123.367 64.0869 123.07 65.7186C122.627 63.0575 121.152 61.4719 118.833 59.5423C117.718 65.0128 118.522 67.6482 122.022 70.4298C121.722 71.5633 121.389 72.6837 121.022 73.7908C120.959 70.8252 119.606 68.8482 117.404 66.3354C115.218 72.2032 115.653 75.2676 119.05 78.9548C118.169 80.9746 117.176 82.9435 116.075 84.8523C115.887 85.133 115.702 85.4303 115.519 85.7439C117.491 80.9338 116.458 78.1482 114.096 74.1625C110.468 80.1865 110.498 83.5237 113.826 88.4545C112.804 89.9675 111.717 91.4279 110.565 92.8356C112.424 89.1227 111.856 86.2481 110.419 82.2268C105.529 87.6478 104.82 91.0938 107.118 96.6908C105.506 98.3416 103.799 99.8969 102.006 101.349C101.612 101.606 101.198 101.89 100.778 102.209C104.64 98.2961 104.762 95.1546 104.06 90.2951C98.0373 94.7474 96.744 98.0371 98.0511 104.289C95.7379 105.864 93.3144 107.271 90.7997 108.498L90.5237 108.622C95.5867 105.376 96.468 102.039 96.88 96.6769C89.3979 99.9806 87.2193 103.181 87.1128 110.143C84.0633 111.375 80.9144 112.345 77.7006 113.041C82.2983 111.153 83.9366 108.181 85.6559 103.478C77.3161 104.664 74.1951 107.201 72.123 113.956C67.4964 114.495 62.8221 114.478 58.1997 113.903C56.1276 107.181 53.0007 104.648 44.6826 103.472C46.3388 108.007 47.9239 110.933 52.1608 112.829C49.1092 112.114 46.1204 111.152 43.2237 109.953C43.0817 103.118 40.8736 99.945 33.4604 96.671C33.837 101.614 34.6138 104.82 38.6831 107.839C36.4912 106.7 34.3734 105.422 32.3426 104.014C33.5551 97.9363 32.2105 94.6782 26.276 90.2911C25.6294 94.7632 25.6846 97.7821 28.707 101.285C26.8252 99.7544 25.0388 98.1091 23.3581 96.3586C25.4933 90.9515 24.7165 87.5351 19.9256 82.2209C18.6539 85.7795 18.0625 88.4347 19.2257 91.5703C18.3582 90.4473 17.5301 89.294 16.7415 88.1105C19.8448 83.3656 19.7915 80.0422 16.2466 74.1565C14.2001 77.6124 13.1572 80.1667 14.1962 83.9172C13.2459 82.2037 12.3797 80.4343 11.5977 78.6088C14.7147 75.0699 15.0578 72.0174 12.9383 66.3295C11.0279 68.5042 9.75819 70.2934 9.41316 72.656C9.15029 71.8204 8.91041 70.9755 8.69354 70.1214C11.8776 67.4524 12.5835 64.8091 11.5089 59.5384C9.53934 61.1892 8.15924 62.585 7.53228 64.6114C7.31541 63.2552 7.14323 61.8838 7.01573 60.4972C10.2235 58.5202 11.2349 56.1319 11.0318 51.1379C9.09968 52.2787 7.68015 53.2988 6.76534 54.8508C6.76534 53.9374 6.78834 53.0286 6.83435 52.1245C10.5606 50.6259 11.9821 48.4373 12.5282 43.297C10.1446 44.2658 8.45695 45.1792 7.29175 47.0059C7.46525 45.6879 7.68081 44.391 7.93843 43.1151C11.7416 42.2927 13.4115 40.4956 14.6911 35.7408C12.1497 36.3339 10.3694 36.9824 8.9735 38.7993C9.38622 37.3271 9.85085 35.8772 10.3674 34.4498C14.2317 34.3035 16.0968 32.9137 18.0329 28.5602C15.2569 28.7579 13.38 29.1771 11.6548 31.2154C12.266 29.7985 12.9298 28.4106 13.6461 27.0517C17.7667 27.5658 19.8605 26.516 22.4669 22.3286C19.2217 22.1111 17.1437 22.3543 14.766 25.1182C15.0497 24.6803 15.3026 24.2232 15.5231 23.7501C16.267 22.5362 17.0517 21.35 17.8771 20.1914L17.9008 20.2784C21.6468 21.3441 23.6597 20.7252 26.5442 17.2555C23.7012 16.6624 21.842 16.6288 19.3972 18.7818C20.0521 18.0546 20.5656 17.2111 20.9114 16.2947C21.4371 15.6766 21.976 15.067 22.5281 14.466C25.9901 16.0476 28.0485 15.7174 31.4001 12.7795C28.6853 11.7535 26.8557 11.4213 24.1053 13.175C24.8304 12.5852 25.4475 11.8734 25.929 11.0714C26.5691 10.4875 27.2178 9.91482 27.875 9.35335C30.6943 11.101 32.5575 11.0398 35.8362 8.87095C33.557 7.63333 31.9778 7.1193 29.33 8.32924C29.9894 7.9232 30.5815 7.41622 31.0847 6.8267C31.8497 6.26522 32.6284 5.72549 33.423 5.1996C35.643 6.99277 37.2163 7.14302 40.2111 5.6385C38.4189 4.36924 37.1433 3.78009 34.8011 4.52938C35.492 4.21777 36.1161 3.77463 36.6386 3.22454C37.0434 2.99916 37.4456 2.78103 37.8452 2.57014Z" fill="url(#paint0_linear_320_81)"/>
<path fill-rule="evenodd" clip-rule="evenodd" d="M51.7131 19.0883C52.1029 19.462 52.4634 19.8652 52.7916 20.2943C53.8444 19.9622 54.8775 20.2469 55.8948 20.6897C57.7087 21.4805 57.4386 23.4358 55.262 22.8269C54.1401 22.5145 53.4245 21.5557 52.6989 20.6007C51.9793 20.8795 51.2537 21.4825 50.5302 22.5778C50.5972 21.5596 52.2494 20.4347 52.5313 20.403C52.2142 19.9769 51.8599 19.58 51.4726 19.2168C49.7058 20.041 48.0114 21.0132 46.4076 22.1231C41.6246 25.4188 38.1822 19.7328 41.8099 17.5443C43.1131 16.7534 45.481 16.8029 46.5417 17.8388C48.0697 17.6174 50.2877 17.9001 51.581 18.9618C53.5408 18.1334 56.2793 18.2738 58.6136 20.4485C57.0186 19.292 54.4733 17.7953 51.7131 19.0883ZM58.6136 16.9571C59.625 18.8432 60.2993 20.6858 60.0844 22.4117H70.2656C70.0527 20.6917 70.7211 18.8531 71.7266 16.9768C71.8265 17.0594 71.9519 17.1048 72.0814 17.1054C72.208 17.1036 72.33 17.058 72.4268 16.9763C72.5236 16.8946 72.5893 16.7819 72.6126 16.6572C72.6359 16.5325 72.6155 16.4035 72.5548 16.2922C72.4942 16.1808 72.3969 16.094 72.2797 16.0464C72.1624 15.9987 72.0323 15.9933 71.9114 16.0309C71.7906 16.0685 71.6864 16.1469 71.6167 16.2527C71.5469 16.3586 71.5158 16.4853 71.5286 16.6116C71.5415 16.7378 71.5975 16.8557 71.6871 16.9452C70.0665 18.6712 68.8836 18.9796 68.5287 16.6665C68.5576 16.6685 68.5865 16.6685 68.6154 16.6665C68.7251 16.6668 68.8324 16.6346 68.9237 16.5738C69.0151 16.513 69.0864 16.4264 69.1287 16.3249C69.1709 16.2234 69.1822 16.1116 69.161 16.0037C69.1398 15.8958 69.0872 15.7967 69.0098 15.7188C68.9324 15.6409 68.8337 15.5878 68.7262 15.5662C68.6187 15.5446 68.5072 15.5555 68.4058 15.5975C68.3045 15.6394 68.2178 15.7107 68.1569 15.8021C68.0959 15.8935 68.0634 16.0009 68.0634 16.1109C68.0628 16.2199 68.0946 16.3265 68.1546 16.4173C68.2146 16.5082 68.3002 16.579 68.4005 16.621C67.2176 18.4339 66.2318 18.1215 65.4589 15.5395C65.6793 15.4533 65.8615 15.2904 65.9721 15.0807C66.0827 14.871 66.1143 14.6284 66.0613 14.3971C66.0083 14.1659 65.8741 13.9615 65.6833 13.8213C65.4925 13.6811 65.2577 13.6143 65.0218 13.6333C64.786 13.6522 64.5648 13.7556 64.3987 13.9245C64.2326 14.0935 64.1326 14.3167 64.117 14.5534C64.1013 14.7901 64.1711 15.0246 64.3136 15.214C64.4561 15.4034 64.6618 15.5351 64.8931 15.585C64.1163 18.1295 63.1325 18.4221 61.9574 16.6111C62.0796 16.5518 62.1757 16.4494 62.2273 16.3235C62.279 16.1976 62.2825 16.057 62.2374 15.9287C62.1922 15.8003 62.1014 15.6931 61.9825 15.6276C61.8635 15.5621 61.7246 15.5429 61.5923 15.5736C61.4601 15.6043 61.3437 15.6827 61.2655 15.794C61.1873 15.9053 61.1528 16.0415 61.1684 16.1767C61.1841 16.3119 61.2489 16.4366 61.3504 16.527C61.4519 16.6173 61.5831 16.667 61.7189 16.6665C61.7587 16.666 61.7983 16.6613 61.8372 16.6526C61.4941 18.9855 60.2993 18.6633 58.6511 16.9195C58.7498 16.8128 58.8027 16.6715 58.7986 16.5261C58.7945 16.3806 58.7337 16.2426 58.6291 16.1416C58.5246 16.0407 58.3847 15.9849 58.2396 15.9863C58.0945 15.9876 57.9557 16.0461 57.8531 16.149C57.7505 16.2519 57.6922 16.391 57.6909 16.5365C57.6895 16.6821 57.7451 16.8223 57.8458 16.9271C57.9464 17.032 58.0841 17.093 58.2292 17.0971C58.3742 17.1012 58.5151 17.0481 58.6215 16.9492L58.6136 16.9571ZM60.5615 21.7949H69.7215V22.0776H60.5694V21.7949H60.5615ZM78.6133 19.0883C75.8531 17.7953 73.3097 19.286 71.7128 20.4485C74.0471 18.2738 76.7836 18.1334 78.7434 18.9618C80.0407 17.9001 82.2567 17.6174 83.7827 17.8388C84.8513 16.8029 87.2172 16.7594 88.5145 17.5443C92.1422 19.7328 88.6998 25.4188 83.9168 22.1231C82.3102 21.0054 80.6118 20.0266 78.84 19.1971C78.4527 19.5602 78.0984 19.9572 77.7813 20.3833C78.0632 20.4228 79.7154 21.5477 79.7824 22.558C79.0608 21.4706 78.3372 20.8676 77.6137 20.581C76.8901 21.5359 76.1725 22.4947 75.0506 22.8071C72.8819 23.416 72.6039 21.4568 74.4178 20.6699C75.4351 20.2251 76.4682 19.9404 77.521 20.2745C77.8492 19.8454 78.2097 19.4422 78.5995 19.0685L78.6133 19.0883ZM81.4287 20.405C82.1897 20.8538 83.0454 21.3599 84.0469 21.8937C85.9041 22.8822 87.4222 22.8071 88.4001 22.2298C88.7434 22.0361 89.0326 21.759 89.241 21.4239C89.4494 21.0887 89.5705 20.7064 89.593 20.3121C89.7014 17.8013 85.9396 16.4608 84.1179 17.8942C85.5079 18.1611 87.0614 18.6712 87.7278 19.6142C88.6722 20.9507 87.1364 21.9076 85.7385 21.7712C83.0808 21.5141 82.1503 19.3216 83.5698 18.0741C82.1897 17.91 80.1945 18.1769 79.0095 19.0784C79.7469 19.4165 80.5178 19.8692 81.4208 20.405H81.4287ZM83.5461 18.7008C83.0611 20.2983 85.013 22.0104 86.7657 21.4271C88.4869 20.8558 86.7283 18.5822 83.8793 18.1176C83.7251 18.2876 83.6112 18.4903 83.5461 18.7107V18.7008ZM77.3653 20.5157C76.4169 20.2469 75.4627 20.5157 74.538 20.9309C73.4004 21.4469 73.5345 22.9613 74.9994 22.5758C76.0108 22.3109 76.6831 21.4153 77.3653 20.5157ZM48.8898 20.405C49.7928 19.8732 50.5637 19.4165 51.303 19.0784C50.1201 18.1769 48.117 17.91 46.7408 18.0741C48.1682 19.3216 47.2377 21.5141 44.5721 21.7712C43.1782 21.9076 41.6364 20.9507 42.5828 19.6142C43.2492 18.6712 44.8047 18.1611 46.1927 17.8942C44.369 16.4608 40.6073 17.8013 40.7177 20.3121C40.7398 20.7065 40.8607 21.089 41.0691 21.4241C41.2776 21.7593 41.567 22.0364 41.9105 22.2298C42.8963 22.8071 44.4065 22.8783 46.2617 21.8937C47.2653 21.3599 48.1209 20.8538 48.8819 20.405H48.8898ZM46.7724 18.7008C46.7073 18.4805 46.5934 18.2777 46.4392 18.1077C43.5902 18.5723 41.8336 20.8459 43.5528 21.4173C45.3055 22.0104 47.2574 20.2884 46.7724 18.6909V18.7008ZM52.9532 20.5157C53.6354 21.4153 54.3077 22.3109 55.3191 22.5758C56.784 22.9712 56.9181 21.4469 55.7805 20.9309C54.8637 20.5078 53.9095 20.2469 52.9611 20.5157H52.9532Z" fill="url(#paint1_linear_320_81)"/>
<path d="M32.6201 49.9062V53.1875C32.6201 53.7292 32.6488 54.0677 32.7061 54.2031C32.7686 54.3385 32.8857 54.4583 33.0576 54.5625C33.2347 54.6615 33.4717 54.7109 33.7686 54.7109H34.1201V55H28.5811V54.7109H28.9326C29.2399 54.7109 29.4873 54.6562 29.6748 54.5469C29.8102 54.474 29.9144 54.349 29.9873 54.1719C30.0446 54.0469 30.0732 53.7188 30.0732 53.1875V46.2188C30.0732 45.6771 30.0446 45.3385 29.9873 45.2031C29.93 45.0677 29.8128 44.9505 29.6357 44.8516C29.4639 44.7474 29.2295 44.6953 28.9326 44.6953H28.5811V44.4062H34.1201V44.6953H33.7686C33.4613 44.6953 33.2139 44.75 33.0264 44.8594C32.891 44.9323 32.7842 45.0573 32.7061 45.2344C32.6488 45.3594 32.6201 45.6875 32.6201 46.2188V49.2188H36.3623V46.2188C36.3623 45.6771 36.3337 45.3385 36.2764 45.2031C36.2191 45.0677 36.1019 44.9505 35.9248 44.8516C35.7477 44.7474 35.5107 44.6953 35.2139 44.6953H34.8701V44.4062H40.4014V44.6953H40.0576C39.7451 44.6953 39.4977 44.75 39.3154 44.8594C39.18 44.9323 39.0732 45.0573 38.9951 45.2344C38.9378 45.3594 38.9092 45.6875 38.9092 46.2188V53.1875C38.9092 53.7292 38.9378 54.0677 38.9951 54.2031C39.0524 54.3385 39.1696 54.4583 39.3467 54.5625C39.5238 54.6615 39.7607 54.7109 40.0576 54.7109H40.4014V55H34.8701V54.7109H35.2139C35.5264 54.7109 35.7738 54.6562 35.9561 54.5469C36.0915 54.474 36.1982 54.349 36.2764 54.1719C36.3337 54.0469 36.3623 53.7188 36.3623 53.1875V49.9062H32.6201ZM46.5576 54.7109V55H41.0186V54.7109H41.3701C41.6774 54.7109 41.9248 54.6562 42.1123 54.5469C42.2477 54.474 42.3519 54.349 42.4248 54.1719C42.4821 54.0469 42.5107 53.7188 42.5107 53.1875V46.2188C42.5107 45.6771 42.4821 45.3385 42.4248 45.2031C42.3675 45.0677 42.2503 44.9505 42.0732 44.8516C41.9014 44.7474 41.667 44.6953 41.3701 44.6953H41.0186V44.4062H46.5576V44.6953H46.2061C45.8988 44.6953 45.6514 44.75 45.4639 44.8594C45.3285 44.9323 45.2217 45.0573 45.1436 45.2344C45.0863 45.3594 45.0576 45.6875 45.0576 46.2188V53.1875C45.0576 53.7292 45.0863 54.0677 45.1436 54.2031C45.2061 54.3385 45.3232 54.4583 45.4951 54.5625C45.6722 54.6615 45.9092 54.7109 46.2061 54.7109H46.5576ZM57.9717 44.1641V47.8984H57.6826C57.3337 46.8776 56.8102 46.1016 56.1123 45.5703C55.4144 45.0391 54.6514 44.7734 53.8232 44.7734C53.0316 44.7734 52.3727 44.9974 51.8467 45.4453C51.3206 45.888 50.9482 46.5078 50.7295 47.3047C50.5107 48.1016 50.4014 48.9193 50.4014 49.7578C50.4014 50.7734 50.5212 51.6641 50.7607 52.4297C51.0003 53.1953 51.3857 53.7578 51.917 54.1172C52.4535 54.4766 53.0889 54.6562 53.8232 54.6562C54.0785 54.6562 54.3389 54.6302 54.6045 54.5781C54.8753 54.5208 55.1514 54.4401 55.4326 54.3359V52.1328C55.4326 51.7161 55.404 51.4479 55.3467 51.3281C55.2894 51.2031 55.1696 51.0911 54.9873 50.9922C54.8102 50.8932 54.5941 50.8438 54.3389 50.8438H54.0654V50.5547H59.2139V50.8438C58.8232 50.8698 58.5498 50.9245 58.3936 51.0078C58.2425 51.0859 58.1253 51.2188 58.042 51.4062C57.9951 51.5052 57.9717 51.7474 57.9717 52.1328V54.3359C57.2946 54.638 56.5889 54.8646 55.8545 55.0156C55.1253 55.1719 54.3675 55.25 53.5811 55.25C52.5758 55.25 51.7399 55.1146 51.0732 54.8438C50.4118 54.5677 49.8258 54.2083 49.3154 53.7656C48.8102 53.3177 48.4144 52.8151 48.1279 52.2578C47.7633 51.5391 47.5811 50.7344 47.5811 49.8438C47.5811 48.25 48.141 46.9036 49.2607 45.8047C50.3805 44.7057 51.7894 44.1562 53.4873 44.1562C54.0133 44.1562 54.4873 44.1979 54.9092 44.2812C55.1383 44.3229 55.5081 44.4427 56.0186 44.6406C56.5342 44.8333 56.8389 44.9297 56.9326 44.9297C57.0785 44.9297 57.2139 44.8776 57.3389 44.7734C57.4639 44.6641 57.5785 44.4609 57.6826 44.1641H57.9717ZM63.7607 49.9062V53.1875C63.7607 53.7292 63.7894 54.0677 63.8467 54.2031C63.9092 54.3385 64.0264 54.4583 64.1982 54.5625C64.3753 54.6615 64.6123 54.7109 64.9092 54.7109H65.2607V55H59.7217V54.7109H60.0732C60.3805 54.7109 60.6279 54.6562 60.8154 54.5469C60.9508 54.474 61.055 54.349 61.1279 54.1719C61.1852 54.0469 61.2139 53.7188 61.2139 53.1875V46.2188C61.2139 45.6771 61.1852 45.3385 61.1279 45.2031C61.0706 45.0677 60.9535 44.9505 60.7764 44.8516C60.6045 44.7474 60.3701 44.6953 60.0732 44.6953H59.7217V44.4062H65.2607V44.6953H64.9092C64.6019 44.6953 64.3545 44.75 64.167 44.8594C64.0316 44.9323 63.9248 45.0573 63.8467 45.2344C63.7894 45.3594 63.7607 45.6875 63.7607 46.2188V49.2188H67.5029V46.2188C67.5029 45.6771 67.4743 45.3385 67.417 45.2031C67.3597 45.0677 67.2425 44.9505 67.0654 44.8516C66.8883 44.7474 66.6514 44.6953 66.3545 44.6953H66.0107V44.4062H71.542V44.6953H71.1982C70.8857 44.6953 70.6383 44.75 70.4561 44.8594C70.3206 44.9323 70.2139 45.0573 70.1357 45.2344C70.0785 45.3594 70.0498 45.6875 70.0498 46.2188V53.1875C70.0498 53.7292 70.0785 54.0677 70.1357 54.2031C70.193 54.3385 70.3102 54.4583 70.4873 54.5625C70.6644 54.6615 70.9014 54.7109 71.1982 54.7109H71.542V55H66.0107V54.7109H66.3545C66.667 54.7109 66.9144 54.6562 67.0967 54.5469C67.2321 54.474 67.3389 54.349 67.417 54.1719C67.4743 54.0469 67.5029 53.7188 67.5029 53.1875V49.9062H63.7607ZM76.1982 45.0156V49.3281H76.4092C77.0811 49.3281 77.568 49.1172 77.8701 48.6953C78.1722 48.2734 78.3649 47.651 78.4482 46.8281H78.7451V52.375H78.4482C78.3857 51.7708 78.2529 51.276 78.0498 50.8906C77.8519 50.5052 77.6201 50.2474 77.3545 50.1172C77.0889 49.9818 76.7035 49.9141 76.1982 49.9141V52.8984C76.1982 53.4818 76.2217 53.8385 76.2686 53.9688C76.3206 54.099 76.4144 54.2057 76.5498 54.2891C76.6852 54.3724 76.904 54.4141 77.2061 54.4141H77.8389C78.8285 54.4141 79.6201 54.1849 80.2139 53.7266C80.8128 53.2682 81.2425 52.5703 81.5029 51.6328H81.792L81.3154 55H72.1592V54.7109H72.5107C72.818 54.7109 73.0654 54.6562 73.2529 54.5469C73.3883 54.474 73.4925 54.349 73.5654 54.1719C73.6227 54.0469 73.6514 53.7188 73.6514 53.1875V46.2188C73.6514 45.7396 73.6383 45.4453 73.6123 45.3359C73.5602 45.1536 73.4639 45.013 73.3232 44.9141C73.1253 44.7682 72.8545 44.6953 72.5107 44.6953H72.1592V44.4062H81.0264V47.5391H80.7295C80.5785 46.7734 80.3649 46.224 80.0889 45.8906C79.818 45.5573 79.4326 45.3125 78.9326 45.1562C78.641 45.0625 78.0941 45.0156 77.292 45.0156H76.1982ZM90.0264 44.1641L90.1123 47.6953H89.792C89.641 46.8099 89.2686 46.099 88.6748 45.5625C88.0863 45.0208 87.4482 44.75 86.7607 44.75C86.2295 44.75 85.8076 44.8932 85.4951 45.1797C85.1878 45.4609 85.0342 45.7865 85.0342 46.1562C85.0342 46.3906 85.0889 46.599 85.1982 46.7812C85.3493 47.026 85.5915 47.2682 85.9248 47.5078C86.1696 47.6797 86.7347 47.9844 87.6201 48.4219C88.8597 49.0312 89.6956 49.6068 90.1279 50.1484C90.555 50.6901 90.7686 51.3099 90.7686 52.0078C90.7686 52.8932 90.4222 53.6562 89.7295 54.2969C89.042 54.9323 88.167 55.25 87.1045 55.25C86.7712 55.25 86.4561 55.2161 86.1592 55.1484C85.8623 55.0807 85.4899 54.9531 85.042 54.7656C84.792 54.6615 84.5863 54.6094 84.4248 54.6094C84.2894 54.6094 84.1462 54.6615 83.9951 54.7656C83.8441 54.8698 83.7217 55.0286 83.6279 55.2422H83.3389V51.2422H83.6279C83.8571 52.3672 84.2972 53.2266 84.9482 53.8203C85.6045 54.4089 86.3102 54.7031 87.0654 54.7031C87.6488 54.7031 88.1123 54.5443 88.4561 54.2266C88.805 53.9089 88.9795 53.5391 88.9795 53.1172C88.9795 52.8672 88.9118 52.625 88.7764 52.3906C88.6462 52.1562 88.4456 51.9349 88.1748 51.7266C87.904 51.513 87.4248 51.237 86.7373 50.8984C85.7738 50.4245 85.0811 50.0208 84.6592 49.6875C84.2373 49.3542 83.9118 48.9818 83.6826 48.5703C83.4587 48.1589 83.3467 47.7057 83.3467 47.2109C83.3467 46.3672 83.6566 45.6484 84.2764 45.0547C84.8962 44.4609 85.6774 44.1641 86.6201 44.1641C86.9639 44.1641 87.2972 44.2057 87.6201 44.2891C87.8649 44.3516 88.1618 44.4688 88.5107 44.6406C88.8649 44.8073 89.1123 44.8906 89.2529 44.8906C89.3883 44.8906 89.4951 44.849 89.5732 44.7656C89.6514 44.6823 89.7243 44.4818 89.792 44.1641H90.0264ZM101.511 44.4062V47.2734H101.229C101.063 46.612 100.878 46.138 100.675 45.8516C100.472 45.5599 100.193 45.3281 99.8389 45.1562C99.641 45.0625 99.2946 45.0156 98.7998 45.0156H98.0107V53.1875C98.0107 53.7292 98.0394 54.0677 98.0967 54.2031C98.1592 54.3385 98.2764 54.4583 98.4482 54.5625C98.6253 54.6615 98.8649 54.7109 99.167 54.7109H99.5186V55H93.9717V54.7109H94.3232C94.6305 54.7109 94.8779 54.6562 95.0654 54.5469C95.2008 54.474 95.3076 54.349 95.3857 54.1719C95.443 54.0469 95.4717 53.7188 95.4717 53.1875V45.0156H94.7061C93.9925 45.0156 93.4743 45.1667 93.1514 45.4688C92.6982 45.8906 92.4118 46.4922 92.292 47.2734H91.9951V44.4062H101.511Z" fill="url(#paint2_linear_320_81)"/>
<path d="M31.4701 76L30.8581 74.272H27.8581L27.2461 76H25.2781L28.4581 67.6H30.2461L33.4261 76H31.4701ZM28.4341 72.688H30.2821L29.3581 70.084L28.4341 72.688ZM35.2084 76L33.0124 69.952H34.7764L36.0004 73.96L37.2244 69.952H39.0004L36.8044 76H35.2084ZM45.2801 72.82C45.2801 73.084 45.2721 73.304 45.2561 73.48H40.9121C41.0881 74.248 41.5601 74.632 42.3281 74.632C42.9761 74.632 43.3681 74.372 43.5041 73.852L45.1601 74.296C44.9841 74.864 44.6401 75.308 44.1281 75.628C43.6161 75.94 43.0001 76.096 42.2801 76.096C41.3041 76.096 40.5401 75.784 39.9881 75.16C39.4441 74.528 39.1721 73.8 39.1721 72.976C39.1721 72.448 39.2721 71.956 39.4721 71.5C39.6721 71.044 40.0041 70.656 40.4681 70.336C40.9401 70.016 41.5081 69.856 42.1721 69.856C42.6921 69.856 43.1561 69.948 43.5641 70.132C43.9801 70.308 44.3081 70.544 44.5481 70.84C44.7881 71.136 44.9681 71.452 45.0881 71.788C45.2161 72.124 45.2801 72.468 45.2801 72.82ZM40.9361 72.232H43.3961C43.3641 71.912 43.2441 71.656 43.0361 71.464C42.8361 71.264 42.5481 71.164 42.1721 71.164C41.5161 71.164 41.1041 71.52 40.9361 72.232ZM50.431 71.644C50.223 71.548 49.967 71.5 49.663 71.5C49.223 71.5 48.855 71.688 48.559 72.064C48.263 72.432 48.115 73.016 48.115 73.816V76H46.351V69.952H48.115V70.996C48.251 70.676 48.491 70.408 48.835 70.192C49.179 69.968 49.531 69.856 49.891 69.856C50.147 69.856 50.363 69.888 50.539 69.952L50.431 71.644ZM53.5783 69.856C54.4263 69.856 55.0983 70.076 55.5943 70.516C56.0903 70.948 56.3383 71.58 56.3383 72.412V76H54.6343V75.232C54.4583 75.496 54.2143 75.708 53.9023 75.868C53.5903 76.02 53.2663 76.096 52.9303 76.096C52.3463 76.096 51.8663 75.924 51.4903 75.58C51.1143 75.236 50.9263 74.808 50.9263 74.296C50.9263 73.128 51.7983 72.452 53.5423 72.268L54.6343 72.16V72.124C54.6343 71.828 54.5383 71.596 54.3463 71.428C54.1623 71.252 53.9063 71.164 53.5783 71.164C53.2903 71.164 53.0503 71.248 52.8583 71.416C52.6663 71.584 52.5543 71.812 52.5223 72.1L50.9863 71.812C51.0823 71.228 51.3743 70.756 51.8623 70.396C52.3503 70.036 52.9223 69.856 53.5783 69.856ZM53.3623 74.836C53.7463 74.836 54.0503 74.704 54.2743 74.44C54.5063 74.176 54.6263 73.86 54.6343 73.492V73.48V73.444V73.396L53.5063 73.528C53.2183 73.56 52.9943 73.64 52.8343 73.768C52.6823 73.896 52.6063 74.052 52.6063 74.236C52.6063 74.412 52.6703 74.556 52.7983 74.668C52.9343 74.78 53.1223 74.836 53.3623 74.836ZM61.7265 69.952H63.4665V75.568C63.4665 76.376 63.1825 77.028 62.6145 77.524C62.0465 78.028 61.2985 78.28 60.3705 78.28C59.6585 78.28 59.0385 78.104 58.5105 77.752C57.9905 77.4 57.6785 76.94 57.5745 76.372L59.1825 76.12C59.2225 76.36 59.3545 76.548 59.5785 76.684C59.8025 76.828 60.0665 76.9 60.3705 76.9C60.7785 76.9 61.1065 76.792 61.3545 76.576C61.6105 76.368 61.7385 76.096 61.7385 75.76V75.184C61.4105 75.6 60.8905 75.808 60.1785 75.808C59.3225 75.808 58.6465 75.54 58.1505 75.004C57.6545 74.468 57.4065 73.744 57.4065 72.832C57.4065 71.92 57.6505 71.196 58.1385 70.66C58.6345 70.124 59.3025 69.856 60.1425 69.856C60.8465 69.856 61.3745 70.06 61.7265 70.468V69.952ZM60.4665 74.308C60.8825 74.308 61.2105 74.176 61.4505 73.912C61.6985 73.64 61.8225 73.28 61.8225 72.832C61.8225 72.384 61.6985 72.028 61.4505 71.764C61.2105 71.492 60.8825 71.356 60.4665 71.356C60.0585 71.356 59.7305 71.492 59.4825 71.764C59.2425 72.028 59.1225 72.384 59.1225 72.832C59.1225 73.28 59.2425 73.64 59.4825 73.912C59.7305 74.176 60.0585 74.308 60.4665 74.308ZM70.6512 72.82C70.6512 73.084 70.6432 73.304 70.6272 73.48H66.2832C66.4592 74.248 66.9312 74.632 67.6992 74.632C68.3472 74.632 68.7392 74.372 68.8752 73.852L70.5312 74.296C70.3552 74.864 70.0112 75.308 69.4992 75.628C68.9872 75.94 68.3712 76.096 67.6512 76.096C66.6752 76.096 65.9112 75.784 65.3592 75.16C64.8152 74.528 64.5432 73.8 64.5432 72.976C64.5432 72.448 64.6432 71.956 64.8432 71.5C65.0432 71.044 65.3752 70.656 65.8392 70.336C66.3112 70.016 66.8792 69.856 67.5432 69.856C68.0632 69.856 68.5272 69.948 68.9352 70.132C69.3512 70.308 69.6792 70.544 69.9192 70.84C70.1592 71.136 70.3392 71.452 70.4592 71.788C70.5872 72.124 70.6512 72.468 70.6512 72.82ZM66.3072 72.232H68.7672C68.7352 71.912 68.6152 71.656 68.4072 71.464C68.2072 71.264 67.9192 71.164 67.5432 71.164C66.8872 71.164 66.4752 71.52 66.3072 72.232ZM74.6652 76V67.6H76.5612V76H74.6652ZM78.0033 76V69.952H79.7673V70.756C80.1753 70.156 80.7913 69.856 81.6153 69.856C82.2793 69.856 82.8153 70.056 83.2233 70.456C83.6313 70.856 83.8353 71.388 83.8353 72.052V76H82.0833V72.52C82.0833 72.192 81.9873 71.928 81.7953 71.728C81.6113 71.52 81.3593 71.416 81.0393 71.416C80.1913 71.416 79.7673 72.06 79.7673 73.348V76H78.0033ZM85.1626 67.504H87.0226V69.196H85.1626V67.504ZM85.1986 76V69.952H86.9626V76H85.1986ZM92.0956 75.94C91.7836 76.044 91.4556 76.096 91.1116 76.096C90.4236 76.096 89.8676 75.912 89.4436 75.544C89.0196 75.176 88.8076 74.64 88.8076 73.936V71.416H87.8476V69.952H88.8076V68.2H90.5716V69.952H92.0356V71.416H90.5716V73.708C90.5716 73.972 90.6356 74.18 90.7636 74.332C90.8996 74.484 91.0756 74.56 91.2916 74.56C91.5636 74.56 91.7916 74.512 91.9756 74.416L92.0956 75.94ZM93.0259 67.504H94.8859V69.196H93.0259V67.504ZM93.0619 76V69.952H94.8259V76H93.0619ZM98.5548 69.856C99.4028 69.856 100.075 70.076 100.571 70.516C101.067 70.948 101.315 71.58 101.315 72.412V76H99.6108V75.232C99.4348 75.496 99.1908 75.708 98.8788 75.868C98.5668 76.02 98.2428 76.096 97.9068 76.096C97.3228 76.096 96.8428 75.924 96.4668 75.58C96.0908 75.236 95.9028 74.808 95.9028 74.296C95.9028 73.128 96.7748 72.452 98.5188 72.268L99.6108 72.16V72.124C99.6108 71.828 99.5148 71.596 99.3228 71.428C99.1388 71.252 98.8828 71.164 98.5548 71.164C98.2668 71.164 98.0268 71.248 97.8348 71.416C97.6428 71.584 97.5308 71.812 97.4988 72.1L95.9628 71.812C96.0588 71.228 96.3508 70.756 96.8388 70.396C97.3268 70.036 97.8988 69.856 98.5548 69.856ZM98.3388 74.836C98.7228 74.836 99.0268 74.704 99.2508 74.44C99.4828 74.176 99.6028 73.86 99.6108 73.492V73.48V73.444V73.396L98.4828 73.528C98.1948 73.56 97.9708 73.64 97.8108 73.768C97.6588 73.896 97.5828 74.052 97.5828 74.236C97.5828 74.412 97.6468 74.556 97.7748 74.668C97.9108 74.78 98.0988 74.836 98.3388 74.836ZM102.683 76V67.504H104.447V76H102.683Z" fill="url(#paint3_linear_320_81)"/>
</g>
<defs>
<linearGradient id="paint0_linear_320_81" x1="5.82687" y1="59.999" x2="124.508" y2="59.999" gradientUnits="userSpaceOnUse">
<stop stop-color="#DBA73E"/>
<stop offset="0.25" stop-color="#F4F3B8"/>
<stop offset="0.5" stop-color="#D5B767"/>
<stop offset="0.8" stop-color="#F7ED9A"/>
<stop offset="0.94" stop-color="#D0AB5B"/>
<stop offset="1" stop-color="#E0C77D"/>
</linearGradient>
<linearGradient id="paint1_linear_320_81" x1="46.2598" y1="18.3845" x2="84.0725" y2="18.3845" gradientUnits="userSpaceOnUse">
<stop stop-color="#CABE90"/>
<stop offset="0.11" stop-color="#926F3E"/>
<stop offset="0.41" stop-color="#F8EDD6"/>
<stop offset="0.65" stop-color="#F3E7CF"/>
<stop offset="0.86" stop-color="#906A3A"/>
<stop offset="1" stop-color="#C8BE8C"/>
</linearGradient>
<linearGradient id="paint2_linear_320_81" x1="37.7874" y1="49.9913" x2="92.5461" y2="49.9913" gradientUnits="userSpaceOnUse">
<stop stop-color="#CABE90"/>
<stop offset="0.11" stop-color="#926F3E"/>
<stop offset="0.41" stop-color="#F8EDD6"/>
<stop offset="0.65" stop-color="#F3E7CF"/>
<stop offset="0.86" stop-color="#906A3A"/>
<stop offset="1" stop-color="#C8BE8C"/>
</linearGradient>
<linearGradient id="paint3_linear_320_81" x1="35.5674" y1="71.9931" x2="94.766" y2="71.9931" gradientUnits="userSpaceOnUse">
<stop stop-color="#CABE90"/>
<stop offset="0.11" stop-color="#926F3E"/>
<stop offset="0.41" stop-color="#F8EDD6"/>
<stop offset="0.65" stop-color="#F3E7CF"/>
<stop offset="0.86" stop-color="#906A3A"/>
<stop offset="1" stop-color="#C8BE8C"/>
</linearGradient>
<clipPath id="clip0_320_81">
<rect width="129" height="120" fill="white" transform="translate(0.666992)"/>
</clipPath>
</defs>
</svg>
