<svg width="129" height="120" viewBox="0 0 129 120" fill="none" xmlns="http://www.w3.org/2000/svg">
<g clip-path="url(#clip0_320_60)">
<path fill-rule="evenodd" clip-rule="evenodd" d="M37.1782 2.57014C36.7839 2.76785 36.4054 2.97939 36.0209 3.19093C36.7563 2.34872 37.0658 1.34043 37.3576 0C34.0888 0.945022 33.0517 2.14904 32.6594 5.11261L32.7067 5.15215C32.0166 5.59369 31.3358 6.04906 30.6641 6.51828C31.4271 5.42893 31.6618 4.19131 31.8116 2.56421C28.105 4.13398 27.0562 5.69188 27.0089 9.22681L27.0522 9.25252C26.5396 9.67165 26.0349 10.0967 25.5381 10.5336C26.0704 9.3059 26.1295 7.98524 26.0507 6.31069C22.2554 8.56846 21.2873 10.4249 21.7132 14.1951C21.2913 14.636 20.8753 15.0808 20.4672 15.5355C20.7018 14.3493 20.548 13.1097 20.2424 11.6032C16.9676 14.3137 16.2263 16.2552 17.0603 19.6497C16.5017 20.3891 15.9621 21.1417 15.4416 21.9075C15.7078 20.3081 15.3332 18.7996 14.6688 16.9056C11.3605 20.5295 10.9011 22.8268 12.5119 26.6642C11.9651 27.6488 11.4472 28.6492 10.9583 29.6654C11.1968 27.7734 10.5896 26.1917 9.55254 24.1771C6.70756 28.3289 6.63462 30.6776 8.92164 34.4083C8.388 35.8173 7.90562 37.2532 7.47451 38.7162C7.64209 36.3023 6.70362 34.608 5.12636 32.4233C2.80976 37.2671 3.13507 39.7483 6.19693 43.3128L6.33297 43.2931C5.98991 44.9314 5.71389 46.5954 5.50491 48.2851C5.46745 45.2741 4.16029 43.5244 1.92847 41.3062C0.296009 46.7944 1.05112 49.3507 4.86809 52.5891L5.12833 52.5041C5.07444 53.5466 5.0475 54.5964 5.0475 55.6535C5.0475 56.3441 5.05867 57.0302 5.08102 57.7116C5.02581 58.0134 4.97849 58.3317 4.93906 58.6665C4.82471 54.5246 3.20999 52.8006 0.24672 50.614C-0.56754 56.2861 0.554286 58.7179 4.80303 61.3533C4.97061 61.2702 5.13228 61.1872 5.29198 61.1042C5.45627 62.9296 5.70075 64.7281 6.0254 66.4995C5.03961 63.5339 3.17451 62.2133 0.256578 60.7167C0.366986 66.7328 1.93636 69.0538 6.7884 71.0803L7.00724 70.9221C7.38841 72.3719 7.81953 73.7941 8.30059 75.1886C6.67405 71.8276 4.35745 70.6651 0.751443 69.4769C1.91467 76.1217 4.0558 78.419 9.78322 79.8188C9.86208 79.7417 9.93897 79.6665 10.0119 79.5894C10.3918 80.4567 10.79 81.3134 11.2067 82.1596C9.29821 80.6392 7.08019 80.1193 4.12875 79.7298C6.56955 86.2323 9.16414 88.3042 14.9842 88.7391C15.7334 89.8674 16.5221 90.9692 17.3501 92.0447C14.7417 90.2654 12.0959 90.1152 8.47804 90.3346C12.4212 96.7461 15.5875 98.304 22.0227 97.4519C22.8416 98.2928 23.6835 99.1087 24.5483 99.8995C22.074 99.1937 19.6963 99.5852 16.662 100.398C21.6284 105.722 24.99 106.724 30.7667 104.862C31.9693 105.696 33.2022 106.487 34.4653 107.234C31.435 106.916 28.8799 107.926 25.6406 109.623C32.2572 114.142 36.0899 114.389 41.8785 110.947C44.3337 111.973 46.8552 112.832 49.4256 113.517C45.8945 113.899 43.4754 115.692 40.4846 118.529C48.5089 121.226 52.4362 120.328 57.3592 115.055C62.1246 115.646 66.9433 115.661 71.7123 115.101C76.6156 120.334 80.543 121.218 88.5436 118.529C85.6434 115.785 83.2795 114.008 79.916 113.557C82.4417 112.891 84.9208 112.059 87.337 111.066C93.0171 114.391 96.8439 114.103 103.388 109.63C100.34 108.035 97.8948 107.044 95.0892 107.199C96.2722 106.495 97.4334 105.75 98.573 104.963C104.162 106.695 107.49 105.627 112.374 100.402C109.59 99.6563 107.36 99.2669 105.103 99.7492C105.891 99.0217 106.66 98.2744 107.41 97.5073C113.577 98.2447 116.698 96.6196 120.552 90.3425C117.319 90.1448 114.862 90.2476 112.518 91.5287C113.209 90.6061 113.874 89.6637 114.511 88.7016C120.002 88.1876 122.522 86.0524 124.894 79.7338C122.293 80.0778 120.262 80.5246 118.513 81.6614C118.811 81.0432 119.098 80.4185 119.375 79.7871C125.002 78.3834 127.115 76.0703 128.271 69.4789C125.351 70.4397 123.275 71.3927 121.729 73.5002C121.992 72.6725 122.232 71.8362 122.449 70.9913C127.135 68.9846 128.657 66.6418 128.758 60.7107C126.443 61.897 124.797 62.9705 123.718 64.8467C123.9 63.6829 124.046 62.5072 124.156 61.3197L124.211 61.3473C128.448 58.7179 129.568 56.2861 128.754 50.6121C126.506 52.2708 125.035 53.6626 124.405 56.0449V55.6495C124.405 54.5661 124.376 53.4906 124.32 52.423C127.971 49.2598 128.675 46.6896 127.07 41.2983C125.327 43.0282 124.148 44.4615 123.703 46.4583C123.523 45.2998 123.311 44.1505 123.068 43.0104C125.889 39.6039 126.134 37.1287 123.882 32.4233C122.61 34.1631 121.759 35.5965 121.552 37.3343C121.186 36.185 120.786 35.0528 120.351 33.9378C122.354 30.472 122.171 28.1431 119.446 24.1692C118.598 25.8161 118.038 27.1704 117.991 28.6452C117.572 27.8149 117.134 26.9957 116.678 26.1878C118.058 22.6291 117.502 20.3714 114.33 16.8957C113.774 18.4774 113.419 19.802 113.476 21.1286C113.011 20.4695 112.533 19.8211 112.043 19.1832C112.701 16.0654 111.881 14.1813 108.766 11.5894C108.51 12.8487 108.36 13.9183 108.456 14.9306C108.088 14.5351 107.715 14.1397 107.339 13.7562C107.632 10.2687 106.599 8.46763 102.948 6.29685C102.885 7.71241 102.916 8.87688 103.248 9.94448C102.832 9.59125 102.41 9.24263 101.982 8.89863C101.879 5.595 100.785 4.08257 97.1988 2.57014C97.325 3.93825 97.5103 5.03155 98.019 5.99041C97.4564 5.61082 96.8893 5.24177 96.3175 4.88327C95.8917 2.08379 94.8329 0.919321 91.6429 0C91.8835 1.12098 92.1437 2.01064 92.6504 2.76785L92.2699 2.57014L92.6642 2.76785C93.1315 3.44992 93.8057 4.01338 94.8586 4.52741C92.5183 3.77811 91.2427 4.36727 89.4505 5.63652C92.4946 7.16477 94.068 6.98486 96.351 5.11063L96.3313 4.96038C96.9366 5.35578 97.536 5.75119 98.1274 6.17428C98.5829 6.94927 99.2709 7.64123 100.338 8.32726C97.6917 7.11732 96.1125 7.63135 93.8314 8.86897C97.183 11.0892 99.0659 11.101 102.002 9.22088V9.14378C102.473 9.53919 102.939 9.94118 103.399 10.3498C103.782 11.3185 104.448 12.222 105.568 13.1789C102.818 11.4352 100.986 11.7673 98.2733 12.7835C101.664 15.749 103.742 16.0535 107.283 14.4126L107.313 14.1556C107.735 14.6063 108.15 15.0676 108.557 15.5395C108.77 16.5992 109.289 17.6292 110.284 18.7957C107.839 16.6427 105.98 16.6802 103.137 17.2694C106.024 20.7391 108.027 21.3579 111.781 20.2923C111.833 20.1064 111.882 19.9245 111.928 19.7466C112.515 20.5506 113.081 21.3704 113.628 22.206C113.877 23.2495 114.314 24.2388 114.915 25.1261C112.53 22.3583 110.46 22.1191 107.214 22.3365C109.888 26.6287 112.019 27.6251 116.349 27.0162L116.402 26.8936C117.07 28.1536 117.694 29.4387 118.275 30.7488C118.437 31.3146 118.643 31.8667 118.892 32.3996C116.911 29.3293 114.894 28.8034 111.648 28.5681C113.659 33.0916 115.592 34.4142 119.771 34.4696C120.429 36.2766 121 38.1218 121.485 40.0053C119.974 37.2374 118.027 36.4466 114.978 35.7448C116.309 40.6873 118.064 42.437 122.202 43.214C122.522 44.8233 122.777 46.4557 122.967 48.1111C121.81 45.5153 119.963 44.4457 117.141 43.301C117.709 48.639 119.223 50.7939 123.297 52.3024C123.336 53.1901 123.358 54.0817 123.358 54.9773C123.358 55.2344 123.358 55.4894 123.358 55.7444C122.484 53.6606 120.923 52.4823 118.642 51.136C118.431 56.3474 119.541 58.7139 123.088 60.7562C122.929 62.4327 122.7 64.0869 122.403 65.7186C121.96 63.0575 120.485 61.4719 118.166 59.5423C117.051 65.0128 117.855 67.6482 121.355 70.4298C121.055 71.5633 120.722 72.6837 120.355 73.7908C120.292 70.8252 118.939 68.8482 116.737 66.3354C114.551 72.2032 114.986 75.2676 118.383 78.9548C117.502 80.9746 116.509 82.9435 115.408 84.8523C115.22 85.133 115.035 85.4303 114.852 85.7439C116.824 80.9338 115.791 78.1482 113.429 74.1625C109.801 80.1865 109.831 83.5237 113.159 88.4545C112.137 89.9675 111.05 91.4279 109.898 92.8356C111.757 89.1227 111.189 86.2481 109.752 82.2268C104.862 87.6478 104.153 91.0938 106.451 96.6908C104.839 98.3416 103.132 99.8969 101.339 101.349C100.945 101.606 100.531 101.89 100.111 102.209C103.973 98.2961 104.095 95.1546 103.394 90.2951C97.3703 94.7474 96.077 98.0371 97.3841 104.289C95.0709 105.864 92.6474 107.271 90.1327 108.498L89.8567 108.622C94.9197 105.376 95.801 102.039 96.213 96.6769C88.7309 99.9806 86.5523 103.181 86.4459 110.143C83.3963 111.375 80.2475 112.345 77.0336 113.041C81.6313 111.153 83.2697 108.181 84.9889 103.478C76.6491 104.664 73.5281 107.201 71.456 113.956C66.8294 114.495 62.1551 114.478 57.5327 113.903C55.4606 107.181 52.3337 104.648 44.0156 103.472C45.6718 108.007 47.2569 110.933 51.4938 112.829C48.4422 112.114 45.4534 111.152 42.5567 109.953C42.4147 103.118 40.2066 99.945 32.7934 96.671C33.17 101.614 33.9468 104.82 38.0161 107.839C35.8242 106.7 33.7064 105.422 31.6756 104.014C32.8881 97.9363 31.5435 94.6782 25.609 90.2911C24.9624 94.7632 25.0176 97.7821 28.04 101.285C26.1582 99.7544 24.3719 98.1091 22.6911 96.3586C24.8263 90.9515 24.0495 87.5351 19.2586 82.2209C17.9869 85.7795 17.3955 88.4347 18.5587 91.5703C17.6912 90.4473 16.8631 89.294 16.0745 88.1105C19.1778 83.3656 19.1245 80.0422 15.5796 74.1565C13.5331 77.6124 12.4902 80.1667 13.5292 83.9172C12.5789 82.2037 11.7127 80.4343 10.9307 78.6088C14.0477 75.0699 14.3908 72.0174 12.2713 66.3295C10.3609 68.5042 9.0912 70.2934 8.74617 72.656C8.48329 71.8204 8.24342 70.9755 8.02655 70.1214C11.2106 67.4524 11.9165 64.8091 10.842 59.5384C8.87235 61.1892 7.49225 62.585 6.86529 64.6114C6.64842 63.2552 6.47623 61.8838 6.34874 60.4972C9.55649 58.5202 10.5679 56.1319 10.3648 51.1379C8.43269 52.2787 7.01316 53.2988 6.09835 54.8508C6.09835 53.9374 6.12135 53.0286 6.16735 52.1245C9.89363 50.6259 11.3151 48.4373 11.8613 43.297C9.47762 44.2658 7.78996 45.1792 6.62476 47.0059C6.79826 45.6879 7.01382 44.391 7.27143 43.1151C11.0746 42.2927 12.7445 40.4956 14.0241 35.7408C11.4827 36.3339 9.70238 36.9824 8.30651 38.7993C8.71923 37.3271 9.18386 35.8772 9.70041 34.4498C13.5647 34.3035 15.4298 32.9137 17.3659 28.5602C14.5899 28.7579 12.713 29.1771 10.9878 31.2154C11.599 29.7985 12.2628 28.4106 12.9791 27.0517C17.0997 27.5658 19.1935 26.516 21.8 22.3286C18.5547 22.1111 16.4767 22.3543 14.099 25.1182C14.3827 24.6803 14.6356 24.2232 14.8561 23.7501C15.6 22.5362 16.3847 21.35 17.2101 20.1914L17.2338 20.2784C20.9798 21.3441 22.9928 20.7252 25.8772 17.2555C23.0342 16.6624 21.175 16.6288 18.7302 18.7818C19.3851 18.0546 19.8986 17.2111 20.2444 16.2947C20.7701 15.6766 21.309 15.067 21.8611 14.466C25.3232 16.0476 27.3815 15.7174 30.7332 12.7795C28.0183 11.7535 26.1887 11.4213 23.4383 13.175C24.1634 12.5852 24.7805 11.8734 25.262 11.0714C25.9021 10.4875 26.5508 9.91482 27.208 9.35335C30.0273 11.101 31.8905 11.0398 35.1692 8.87095C32.8901 7.63333 31.3108 7.1193 28.663 8.32924C29.3224 7.9232 29.9145 7.41622 30.4177 6.8267C31.1827 6.26522 31.9614 5.72549 32.756 5.1996C34.976 6.99277 36.5493 7.14302 39.5441 5.6385C37.752 4.36924 36.4763 3.78009 34.1341 4.52938C34.8251 4.21777 35.4491 3.77463 35.9716 3.22454C36.3765 2.99916 36.7787 2.78103 37.1782 2.57014Z" fill="url(#paint0_linear_320_60)"/>
<path fill-rule="evenodd" clip-rule="evenodd" d="M51.0461 19.0883C51.4359 19.462 51.7964 19.8652 52.1246 20.2943C53.1774 19.9622 54.2105 20.2469 55.2278 20.6897C57.0417 21.4805 56.7716 23.4358 54.595 22.8269C53.4731 22.5145 52.7575 21.5557 52.0319 20.6007C51.3123 20.8795 50.5868 21.4825 49.8632 22.5778C49.9302 21.5596 51.5824 20.4347 51.8643 20.403C51.5472 19.9769 51.1929 19.58 50.8056 19.2168C49.0388 20.041 47.3445 21.0132 45.7406 22.1231C40.9576 25.4188 37.5152 19.7328 41.1429 17.5443C42.4461 16.7534 44.814 16.8029 45.8747 17.8388C47.4027 17.6174 49.6207 17.9001 50.914 18.9618C52.8738 18.1334 55.6123 18.2738 57.9466 20.4485C56.3516 19.292 53.8063 17.7953 51.0461 19.0883ZM57.9466 16.9571C58.9581 18.8432 59.6323 20.6858 59.4174 22.4117H69.5986C69.3857 20.6917 70.0541 18.8531 71.0596 16.9768C71.1596 17.0594 71.2849 17.1048 71.4145 17.1054C71.541 17.1036 71.663 17.058 71.7598 16.9763C71.8566 16.8946 71.9223 16.7819 71.9456 16.6572C71.9689 16.5325 71.9485 16.4035 71.8879 16.2922C71.8272 16.1808 71.7299 16.094 71.6127 16.0464C71.4954 15.9987 71.3653 15.9933 71.2444 16.0309C71.1236 16.0685 71.0195 16.1469 70.9497 16.2527C70.8799 16.3586 70.8488 16.4853 70.8616 16.6116C70.8745 16.7378 70.9305 16.8557 71.0201 16.9452C69.3995 18.6712 68.2166 18.9796 67.8617 16.6665C67.8906 16.6685 67.9195 16.6685 67.9484 16.6665C68.0581 16.6668 68.1654 16.6346 68.2568 16.5738C68.3481 16.513 68.4194 16.4264 68.4617 16.3249C68.5039 16.2234 68.5152 16.1116 68.494 16.0037C68.4729 15.8958 68.4202 15.7967 68.3428 15.7188C68.2654 15.6409 68.1667 15.5878 68.0592 15.5662C67.9517 15.5446 67.8402 15.5555 67.7388 15.5975C67.6375 15.6394 67.5509 15.7107 67.4899 15.8021C67.4289 15.8935 67.3964 16.0009 67.3964 16.1109C67.3958 16.2199 67.4276 16.3265 67.4876 16.4173C67.5476 16.5082 67.6332 16.579 67.7335 16.621C66.5506 18.4339 65.5648 18.1215 64.7919 15.5395C65.0123 15.4533 65.1945 15.2904 65.3051 15.0807C65.4157 14.871 65.4473 14.6284 65.3943 14.3971C65.3413 14.1659 65.2071 13.9615 65.0163 13.8213C64.8255 13.6811 64.5907 13.6143 64.3549 13.6333C64.119 13.6522 63.8978 13.7556 63.7317 13.9245C63.5656 14.0935 63.4656 14.3167 63.45 14.5534C63.4343 14.7901 63.5042 15.0246 63.6466 15.214C63.7891 15.4034 63.9948 15.5351 64.2261 15.585C63.4493 18.1295 62.4655 18.4221 61.2904 16.6111C61.4126 16.5518 61.5087 16.4494 61.5603 16.3235C61.612 16.1976 61.6155 16.057 61.5704 15.9287C61.5252 15.8003 61.4344 15.6931 61.3155 15.6276C61.1965 15.5621 61.0576 15.5429 60.9253 15.5736C60.7931 15.6043 60.6767 15.6827 60.5985 15.794C60.5204 15.9053 60.4858 16.0415 60.5014 16.1767C60.5171 16.3119 60.5819 16.4366 60.6834 16.527C60.7849 16.6173 60.9161 16.667 61.0519 16.6665C61.0917 16.666 61.1313 16.6613 61.1702 16.6526C60.8271 18.9855 59.6323 18.6633 57.9841 16.9195C58.0828 16.8128 58.1357 16.6715 58.1316 16.5261C58.1275 16.3806 58.0667 16.2426 57.9621 16.1416C57.8576 16.0407 57.7177 15.9849 57.5726 15.9863C57.4275 15.9876 57.2887 16.0461 57.1861 16.149C57.0835 16.2519 57.0252 16.391 57.0239 16.5365C57.0225 16.6821 57.0781 16.8223 57.1788 16.9271C57.2794 17.032 57.4171 17.093 57.5622 17.0971C57.7072 17.1012 57.8481 17.0481 57.9545 16.9492L57.9466 16.9571ZM59.8946 21.7949H69.0545V22.0776H59.9024V21.7949H59.8946ZM77.9463 19.0883C75.1861 17.7953 72.6427 19.286 71.0458 20.4485C73.3801 18.2738 76.1167 18.1334 78.0764 18.9618C79.3737 17.9001 81.5897 17.6174 83.1157 17.8388C84.1843 16.8029 86.5502 16.7594 87.8475 17.5443C91.4752 19.7328 88.0328 25.4188 83.2498 22.1231C81.6432 21.0054 79.9448 20.0266 78.173 19.1971C77.7857 19.5602 77.4314 19.9572 77.1143 20.3833C77.3962 20.4228 79.0484 21.5477 79.1154 22.558C78.3938 21.4706 77.6703 20.8676 76.9467 20.581C76.2231 21.5359 75.5055 22.4947 74.3836 22.8071C72.2149 23.416 71.9369 21.4568 73.7508 20.6699C74.7681 20.2251 75.8012 19.9404 76.854 20.2745C77.1822 19.8454 77.5427 19.4422 77.9325 19.0685L77.9463 19.0883ZM80.7617 20.405C81.5227 20.8538 82.3784 21.3599 83.3799 21.8937C85.2371 22.8822 86.7553 22.8071 87.7332 22.2298C88.0764 22.0361 88.3656 21.759 88.574 21.4239C88.7825 21.0887 88.9035 20.7064 88.926 20.3121C89.0344 17.8013 85.2726 16.4608 83.4509 17.8942C84.8409 18.1611 86.3945 18.6712 87.0608 19.6142C88.0052 20.9507 86.4694 21.9076 85.0715 21.7712C82.4139 21.5141 81.4833 19.3216 82.9028 18.0741C81.5227 17.91 79.5275 18.1769 78.3426 19.0784C79.0799 19.4165 79.8508 19.8692 80.7538 20.405H80.7617ZM82.8791 18.7008C82.3941 20.2983 84.346 22.0104 86.0987 21.4271C87.8199 20.8558 86.0613 18.5822 83.2123 18.1176C83.0581 18.2876 82.9442 18.4903 82.8791 18.7107V18.7008ZM76.6983 20.5157C75.7499 20.2469 74.7957 20.5157 73.871 20.9309C72.7334 21.4469 72.8675 22.9613 74.3324 22.5758C75.3438 22.3109 76.0161 21.4153 76.6983 20.5157ZM48.2228 20.405C49.1258 19.8732 49.8967 19.4165 50.636 19.0784C49.4531 18.1769 47.45 17.91 46.0738 18.0741C47.5012 19.3216 46.5707 21.5141 43.9051 21.7712C42.5112 21.9076 40.9694 20.9507 41.9158 19.6142C42.5822 18.6712 44.1377 18.1611 45.5257 17.8942C43.702 16.4608 39.9403 17.8013 40.0507 20.3121C40.0728 20.7065 40.1937 21.089 40.4021 21.4241C40.6106 21.7593 40.9 22.0364 41.2435 22.2298C42.2293 22.8071 43.7395 22.8783 45.5947 21.8937C46.5983 21.3599 47.4539 20.8538 48.215 20.405H48.2228ZM46.1054 18.7008C46.0403 18.4805 45.9264 18.2777 45.7722 18.1077C42.9233 18.5723 41.1666 20.8459 42.8858 21.4173C44.6385 22.0104 46.5904 20.2884 46.1054 18.6909V18.7008ZM52.2863 20.5157C52.9684 21.4153 53.6407 22.3109 54.6521 22.5758C56.117 22.9712 56.2511 21.4469 55.1135 20.9309C54.1967 20.5078 53.2425 20.2469 52.2941 20.5157H52.2863Z" fill="url(#paint1_linear_320_60)"/>
<path d="M32.4531 45.9062V49.1875C32.4531 49.7292 32.4818 50.0677 32.5391 50.2031C32.6016 50.3385 32.7188 50.4583 32.8906 50.5625C33.0677 50.6615 33.3047 50.7109 33.6016 50.7109H33.9531V51H28.4141V50.7109H28.7656C29.0729 50.7109 29.3203 50.6562 29.5078 50.5469C29.6432 50.474 29.7474 50.349 29.8203 50.1719C29.8776 50.0469 29.9062 49.7188 29.9062 49.1875V42.2188C29.9062 41.6771 29.8776 41.3385 29.8203 41.2031C29.763 41.0677 29.6458 40.9505 29.4688 40.8516C29.2969 40.7474 29.0625 40.6953 28.7656 40.6953H28.4141V40.4062H33.9531V40.6953H33.6016C33.2943 40.6953 33.0469 40.75 32.8594 40.8594C32.724 40.9323 32.6172 41.0573 32.5391 41.2344C32.4818 41.3594 32.4531 41.6875 32.4531 42.2188V45.2188H36.1953V42.2188C36.1953 41.6771 36.1667 41.3385 36.1094 41.2031C36.0521 41.0677 35.9349 40.9505 35.7578 40.8516C35.5807 40.7474 35.3438 40.6953 35.0469 40.6953H34.7031V40.4062H40.2344V40.6953H39.8906C39.5781 40.6953 39.3307 40.75 39.1484 40.8594C39.013 40.9323 38.9062 41.0573 38.8281 41.2344C38.7708 41.3594 38.7422 41.6875 38.7422 42.2188V49.1875C38.7422 49.7292 38.7708 50.0677 38.8281 50.2031C38.8854 50.3385 39.0026 50.4583 39.1797 50.5625C39.3568 50.6615 39.5938 50.7109 39.8906 50.7109H40.2344V51H34.7031V50.7109H35.0469C35.3594 50.7109 35.6068 50.6562 35.7891 50.5469C35.9245 50.474 36.0312 50.349 36.1094 50.1719C36.1667 50.0469 36.1953 49.7188 36.1953 49.1875V45.9062H32.4531ZM46.3906 50.7109V51H40.8516V50.7109H41.2031C41.5104 50.7109 41.7578 50.6562 41.9453 50.5469C42.0807 50.474 42.1849 50.349 42.2578 50.1719C42.3151 50.0469 42.3438 49.7188 42.3438 49.1875V42.2188C42.3438 41.6771 42.3151 41.3385 42.2578 41.2031C42.2005 41.0677 42.0833 40.9505 41.9062 40.8516C41.7344 40.7474 41.5 40.6953 41.2031 40.6953H40.8516V40.4062H46.3906V40.6953H46.0391C45.7318 40.6953 45.4844 40.75 45.2969 40.8594C45.1615 40.9323 45.0547 41.0573 44.9766 41.2344C44.9193 41.3594 44.8906 41.6875 44.8906 42.2188V49.1875C44.8906 49.7292 44.9193 50.0677 44.9766 50.2031C45.0391 50.3385 45.1562 50.4583 45.3281 50.5625C45.5052 50.6615 45.7422 50.7109 46.0391 50.7109H46.3906ZM57.8047 40.1641V43.8984H57.5156C57.1667 42.8776 56.6432 42.1016 55.9453 41.5703C55.2474 41.0391 54.4844 40.7734 53.6562 40.7734C52.8646 40.7734 52.2057 40.9974 51.6797 41.4453C51.1536 41.888 50.7812 42.5078 50.5625 43.3047C50.3438 44.1016 50.2344 44.9193 50.2344 45.7578C50.2344 46.7734 50.3542 47.6641 50.5938 48.4297C50.8333 49.1953 51.2188 49.7578 51.75 50.1172C52.2865 50.4766 52.9219 50.6562 53.6562 50.6562C53.9115 50.6562 54.1719 50.6302 54.4375 50.5781C54.7083 50.5208 54.9844 50.4401 55.2656 50.3359V48.1328C55.2656 47.7161 55.237 47.4479 55.1797 47.3281C55.1224 47.2031 55.0026 47.0911 54.8203 46.9922C54.6432 46.8932 54.4271 46.8438 54.1719 46.8438H53.8984V46.5547H59.0469V46.8438C58.6562 46.8698 58.3828 46.9245 58.2266 47.0078C58.0755 47.0859 57.9583 47.2188 57.875 47.4062C57.8281 47.5052 57.8047 47.7474 57.8047 48.1328V50.3359C57.1276 50.638 56.4219 50.8646 55.6875 51.0156C54.9583 51.1719 54.2005 51.25 53.4141 51.25C52.4089 51.25 51.5729 51.1146 50.9062 50.8438C50.2448 50.5677 49.6589 50.2083 49.1484 49.7656C48.6432 49.3177 48.2474 48.8151 47.9609 48.2578C47.5964 47.5391 47.4141 46.7344 47.4141 45.8438C47.4141 44.25 47.974 42.9036 49.0938 41.8047C50.2135 40.7057 51.6224 40.1562 53.3203 40.1562C53.8464 40.1562 54.3203 40.1979 54.7422 40.2812C54.9714 40.3229 55.3411 40.4427 55.8516 40.6406C56.3672 40.8333 56.6719 40.9297 56.7656 40.9297C56.9115 40.9297 57.0469 40.8776 57.1719 40.7734C57.2969 40.6641 57.4115 40.4609 57.5156 40.1641H57.8047ZM63.5938 45.9062V49.1875C63.5938 49.7292 63.6224 50.0677 63.6797 50.2031C63.7422 50.3385 63.8594 50.4583 64.0312 50.5625C64.2083 50.6615 64.4453 50.7109 64.7422 50.7109H65.0938V51H59.5547V50.7109H59.9062C60.2135 50.7109 60.4609 50.6562 60.6484 50.5469C60.7839 50.474 60.888 50.349 60.9609 50.1719C61.0182 50.0469 61.0469 49.7188 61.0469 49.1875V42.2188C61.0469 41.6771 61.0182 41.3385 60.9609 41.2031C60.9036 41.0677 60.7865 40.9505 60.6094 40.8516C60.4375 40.7474 60.2031 40.6953 59.9062 40.6953H59.5547V40.4062H65.0938V40.6953H64.7422C64.4349 40.6953 64.1875 40.75 64 40.8594C63.8646 40.9323 63.7578 41.0573 63.6797 41.2344C63.6224 41.3594 63.5938 41.6875 63.5938 42.2188V45.2188H67.3359V42.2188C67.3359 41.6771 67.3073 41.3385 67.25 41.2031C67.1927 41.0677 67.0755 40.9505 66.8984 40.8516C66.7214 40.7474 66.4844 40.6953 66.1875 40.6953H65.8438V40.4062H71.375V40.6953H71.0312C70.7188 40.6953 70.4714 40.75 70.2891 40.8594C70.1536 40.9323 70.0469 41.0573 69.9688 41.2344C69.9115 41.3594 69.8828 41.6875 69.8828 42.2188V49.1875C69.8828 49.7292 69.9115 50.0677 69.9688 50.2031C70.026 50.3385 70.1432 50.4583 70.3203 50.5625C70.4974 50.6615 70.7344 50.7109 71.0312 50.7109H71.375V51H65.8438V50.7109H66.1875C66.5 50.7109 66.7474 50.6562 66.9297 50.5469C67.0651 50.474 67.1719 50.349 67.25 50.1719C67.3073 50.0469 67.3359 49.7188 67.3359 49.1875V45.9062H63.5938ZM76.0312 41.0156V45.3281H76.2422C76.9141 45.3281 77.401 45.1172 77.7031 44.6953C78.0052 44.2734 78.1979 43.651 78.2812 42.8281H78.5781V48.375H78.2812C78.2188 47.7708 78.0859 47.276 77.8828 46.8906C77.6849 46.5052 77.4531 46.2474 77.1875 46.1172C76.9219 45.9818 76.5365 45.9141 76.0312 45.9141V48.8984C76.0312 49.4818 76.0547 49.8385 76.1016 49.9688C76.1536 50.099 76.2474 50.2057 76.3828 50.2891C76.5182 50.3724 76.737 50.4141 77.0391 50.4141H77.6719C78.6615 50.4141 79.4531 50.1849 80.0469 49.7266C80.6458 49.2682 81.0755 48.5703 81.3359 47.6328H81.625L81.1484 51H71.9922V50.7109H72.3438C72.651 50.7109 72.8984 50.6562 73.0859 50.5469C73.2214 50.474 73.3255 50.349 73.3984 50.1719C73.4557 50.0469 73.4844 49.7188 73.4844 49.1875V42.2188C73.4844 41.7396 73.4714 41.4453 73.4453 41.3359C73.3932 41.1536 73.2969 41.013 73.1562 40.9141C72.9583 40.7682 72.6875 40.6953 72.3438 40.6953H71.9922V40.4062H80.8594V43.5391H80.5625C80.4115 42.7734 80.1979 42.224 79.9219 41.8906C79.651 41.5573 79.2656 41.3125 78.7656 41.1562C78.474 41.0625 77.9271 41.0156 77.125 41.0156H76.0312ZM89.8594 40.1641L89.9453 43.6953H89.625C89.474 42.8099 89.1016 42.099 88.5078 41.5625C87.9193 41.0208 87.2812 40.75 86.5938 40.75C86.0625 40.75 85.6406 40.8932 85.3281 41.1797C85.0208 41.4609 84.8672 41.7865 84.8672 42.1562C84.8672 42.3906 84.9219 42.599 85.0312 42.7812C85.1823 43.026 85.4245 43.2682 85.7578 43.5078C86.0026 43.6797 86.5677 43.9844 87.4531 44.4219C88.6927 45.0312 89.5286 45.6068 89.9609 46.1484C90.388 46.6901 90.6016 47.3099 90.6016 48.0078C90.6016 48.8932 90.2552 49.6562 89.5625 50.2969C88.875 50.9323 88 51.25 86.9375 51.25C86.6042 51.25 86.2891 51.2161 85.9922 51.1484C85.6953 51.0807 85.3229 50.9531 84.875 50.7656C84.625 50.6615 84.4193 50.6094 84.2578 50.6094C84.1224 50.6094 83.9792 50.6615 83.8281 50.7656C83.6771 50.8698 83.5547 51.0286 83.4609 51.2422H83.1719V47.2422H83.4609C83.6901 48.3672 84.1302 49.2266 84.7812 49.8203C85.4375 50.4089 86.1432 50.7031 86.8984 50.7031C87.4818 50.7031 87.9453 50.5443 88.2891 50.2266C88.638 49.9089 88.8125 49.5391 88.8125 49.1172C88.8125 48.8672 88.7448 48.625 88.6094 48.3906C88.4792 48.1562 88.2786 47.9349 88.0078 47.7266C87.737 47.513 87.2578 47.237 86.5703 46.8984C85.6068 46.4245 84.9141 46.0208 84.4922 45.6875C84.0703 45.3542 83.7448 44.9818 83.5156 44.5703C83.2917 44.1589 83.1797 43.7057 83.1797 43.2109C83.1797 42.3672 83.4896 41.6484 84.1094 41.0547C84.7292 40.4609 85.5104 40.1641 86.4531 40.1641C86.7969 40.1641 87.1302 40.2057 87.4531 40.2891C87.6979 40.3516 87.9948 40.4688 88.3438 40.6406C88.6979 40.8073 88.9453 40.8906 89.0859 40.8906C89.2214 40.8906 89.3281 40.849 89.4062 40.7656C89.4844 40.6823 89.5573 40.4818 89.625 40.1641H89.8594ZM101.344 40.4062V43.2734H101.062C100.896 42.612 100.711 42.138 100.508 41.8516C100.305 41.5599 100.026 41.3281 99.6719 41.1562C99.474 41.0625 99.1276 41.0156 98.6328 41.0156H97.8438V49.1875C97.8438 49.7292 97.8724 50.0677 97.9297 50.2031C97.9922 50.3385 98.1094 50.4583 98.2812 50.5625C98.4583 50.6615 98.6979 50.7109 99 50.7109H99.3516V51H93.8047V50.7109H94.1562C94.4635 50.7109 94.7109 50.6562 94.8984 50.5469C95.0339 50.474 95.1406 50.349 95.2188 50.1719C95.276 50.0469 95.3047 49.7188 95.3047 49.1875V41.0156H94.5391C93.8255 41.0156 93.3073 41.1667 92.9844 41.4688C92.5312 41.8906 92.2448 42.4922 92.125 43.2734H91.8281V40.4062H101.344Z" fill="url(#paint2_linear_320_60)"/>
<path d="M37.5958 68V59.6H39.6838L42.1198 65.312L44.5558 59.6H46.6438V68H44.8798V63.116L42.8158 68H41.4358L39.3598 63.116V68H37.5958ZM53.9144 61.952V68H52.1624V67.196C51.7384 67.796 51.1224 68.096 50.3144 68.096C49.6424 68.096 49.1024 67.896 48.6944 67.496C48.2864 67.096 48.0824 66.564 48.0824 65.9V61.952H49.8464V65.432C49.8464 65.76 49.9384 66.028 50.1224 66.236C50.3144 66.436 50.5664 66.536 50.8784 66.536C51.2944 66.536 51.6104 66.372 51.8264 66.044C52.0504 65.708 52.1624 65.228 52.1624 64.604V61.952H53.9144ZM55.2895 68V59.504H57.0535V68H55.2895ZM62.1864 67.94C61.8744 68.044 61.5464 68.096 61.2024 68.096C60.5144 68.096 59.9584 67.912 59.5344 67.544C59.1104 67.176 58.8984 66.64 58.8984 65.936V63.416H57.9384V61.952H58.8984V60.2H60.6624V61.952H62.1264V63.416H60.6624V65.708C60.6624 65.972 60.7264 66.18 60.8544 66.332C60.9904 66.484 61.1664 66.56 61.3824 66.56C61.6544 66.56 61.8824 66.512 62.0664 66.416L62.1864 67.94ZM63.1168 59.504H64.9768V61.196H63.1168V59.504ZM63.1528 68V61.952H64.9168V68H63.1528ZM71.3248 68V64.532L68.4808 59.6H70.4968L72.2728 62.756L74.0608 59.6H76.0648L73.2208 64.532V68H71.3248ZM81.2889 64.82C81.2889 65.084 81.2809 65.304 81.2649 65.48H76.9209C77.0969 66.248 77.5689 66.632 78.3369 66.632C78.9849 66.632 79.3769 66.372 79.5129 65.852L81.1689 66.296C80.9929 66.864 80.6489 67.308 80.1369 67.628C79.6249 67.94 79.0089 68.096 78.2889 68.096C77.3129 68.096 76.5489 67.784 75.9969 67.16C75.4529 66.528 75.1809 65.8 75.1809 64.976C75.1809 64.448 75.2809 63.956 75.4809 63.5C75.6809 63.044 76.0129 62.656 76.4769 62.336C76.9489 62.016 77.5169 61.856 78.1809 61.856C78.7009 61.856 79.1649 61.948 79.5729 62.132C79.9889 62.308 80.3169 62.544 80.5569 62.84C80.7969 63.136 80.9769 63.452 81.0969 63.788C81.2249 64.124 81.2889 64.468 81.2889 64.82ZM76.9449 64.232H79.4049C79.3729 63.912 79.2529 63.656 79.0449 63.464C78.8449 63.264 78.5569 63.164 78.1809 63.164C77.5249 63.164 77.1129 63.52 76.9449 64.232ZM84.7121 61.856C85.5601 61.856 86.2321 62.076 86.7281 62.516C87.2241 62.948 87.4721 63.58 87.4721 64.412V68H85.7681V67.232C85.5921 67.496 85.3481 67.708 85.0361 67.868C84.7241 68.02 84.4001 68.096 84.0641 68.096C83.4801 68.096 83.0001 67.924 82.6241 67.58C82.2481 67.236 82.0601 66.808 82.0601 66.296C82.0601 65.128 82.9321 64.452 84.6761 64.268L85.7681 64.16V64.124C85.7681 63.828 85.6721 63.596 85.4801 63.428C85.2961 63.252 85.0401 63.164 84.7121 63.164C84.4241 63.164 84.1841 63.248 83.9921 63.416C83.8001 63.584 83.6881 63.812 83.6561 64.1L82.1201 63.812C82.2161 63.228 82.5081 62.756 82.9961 62.396C83.4841 62.036 84.0561 61.856 84.7121 61.856ZM84.4961 66.836C84.8801 66.836 85.1841 66.704 85.4081 66.44C85.6401 66.176 85.7601 65.86 85.7681 65.492V65.48V65.444V65.396L84.6401 65.528C84.3521 65.56 84.1281 65.64 83.9681 65.768C83.8161 65.896 83.7401 66.052 83.7401 66.236C83.7401 66.412 83.8041 66.556 83.9321 66.668C84.0681 66.78 84.2561 66.836 84.4961 66.836ZM92.9203 63.644C92.7123 63.548 92.4563 63.5 92.1523 63.5C91.7123 63.5 91.3443 63.688 91.0483 64.064C90.7523 64.432 90.6043 65.016 90.6043 65.816V68H88.8403V61.952H90.6043V62.996C90.7403 62.676 90.9803 62.408 91.3242 62.192C91.6683 61.968 92.0203 61.856 92.3803 61.856C92.6363 61.856 92.8523 61.888 93.0283 61.952L92.9203 63.644Z" fill="url(#paint3_linear_320_60)"/>
<path d="M33.2582 86.184V77.952H35.0222V78.552C35.3902 78.088 35.9542 77.856 36.7142 77.856C37.5542 77.856 38.2262 78.14 38.7302 78.708C39.2342 79.276 39.4862 80.032 39.4862 80.976C39.4862 81.92 39.2182 82.676 38.6822 83.244C38.1462 83.812 37.4422 84.096 36.5702 84.096C35.8742 84.096 35.3582 83.908 35.0222 83.532V86.184H33.2582ZM35.3102 82.152C35.5742 82.448 35.9182 82.596 36.3422 82.596C36.7662 82.596 37.1062 82.448 37.3622 82.152C37.6262 81.856 37.7582 81.464 37.7582 80.976C37.7582 80.488 37.6262 80.096 37.3622 79.8C37.1062 79.504 36.7662 79.356 36.3422 79.356C35.9182 79.356 35.5742 79.504 35.3102 79.8C35.0462 80.096 34.9142 80.488 34.9142 80.976C34.9142 81.464 35.0462 81.856 35.3102 82.152ZM46.3553 80.82C46.3553 81.084 46.3473 81.304 46.3313 81.48H41.9873C42.1633 82.248 42.6353 82.632 43.4033 82.632C44.0513 82.632 44.4433 82.372 44.5793 81.852L46.2353 82.296C46.0593 82.864 45.7153 83.308 45.2033 83.628C44.6913 83.94 44.0753 84.096 43.3553 84.096C42.3793 84.096 41.6153 83.784 41.0633 83.16C40.5193 82.528 40.2473 81.8 40.2473 80.976C40.2473 80.448 40.3473 79.956 40.5473 79.5C40.7473 79.044 41.0793 78.656 41.5433 78.336C42.0153 78.016 42.5833 77.856 43.2473 77.856C43.7673 77.856 44.2313 77.948 44.6393 78.132C45.0553 78.308 45.3833 78.544 45.6233 78.84C45.8633 79.136 46.0433 79.452 46.1633 79.788C46.2913 80.124 46.3553 80.468 46.3553 80.82ZM42.0113 80.232H44.4713C44.4393 79.912 44.3193 79.656 44.1113 79.464C43.9113 79.264 43.6233 79.164 43.2473 79.164C42.5913 79.164 42.1793 79.52 42.0113 80.232ZM51.5062 79.644C51.2982 79.548 51.0422 79.5 50.7382 79.5C50.2982 79.5 49.9302 79.688 49.6342 80.064C49.3382 80.432 49.1902 81.016 49.1902 81.816V84H47.4262V77.952H49.1902V78.996C49.3262 78.676 49.5662 78.408 49.9102 78.192C50.2542 77.968 50.6062 77.856 50.9662 77.856C51.2222 77.856 51.4382 77.888 51.6142 77.952L51.5062 79.644ZM55.0386 84.096C54.1266 84.096 53.3826 83.808 52.8066 83.232C52.2306 82.648 51.9426 81.896 51.9426 80.976C51.9426 80.056 52.2306 79.308 52.8066 78.732C53.3826 78.148 54.1266 77.856 55.0386 77.856C55.8466 77.856 56.5146 78.048 57.0426 78.432C57.5706 78.816 57.8826 79.34 57.9786 80.004L56.2746 80.34C56.2266 80.036 56.0986 79.796 55.8906 79.62C55.6826 79.444 55.4226 79.356 55.1106 79.356C54.6946 79.356 54.3626 79.504 54.1146 79.8C53.8746 80.088 53.7546 80.48 53.7546 80.976C53.7546 81.464 53.8786 81.856 54.1266 82.152C54.3746 82.448 54.7026 82.596 55.1106 82.596C55.7346 82.596 56.1146 82.292 56.2506 81.684L57.9666 82.032C57.8546 82.672 57.5386 83.176 57.0186 83.544C56.4986 83.912 55.8386 84.096 55.0386 84.096ZM64.8592 80.82C64.8592 81.084 64.8512 81.304 64.8352 81.48H60.4912C60.6672 82.248 61.1392 82.632 61.9072 82.632C62.5552 82.632 62.9472 82.372 63.0832 81.852L64.7392 82.296C64.5632 82.864 64.2192 83.308 63.7072 83.628C63.1952 83.94 62.5792 84.096 61.8592 84.096C60.8832 84.096 60.1192 83.784 59.5672 83.16C59.0232 82.528 58.7512 81.8 58.7512 80.976C58.7512 80.448 58.8512 79.956 59.0512 79.5C59.2512 79.044 59.5832 78.656 60.0472 78.336C60.5192 78.016 61.0872 77.856 61.7512 77.856C62.2712 77.856 62.7352 77.948 63.1432 78.132C63.5592 78.308 63.8872 78.544 64.1272 78.84C64.3672 79.136 64.5472 79.452 64.6672 79.788C64.7952 80.124 64.8592 80.468 64.8592 80.82ZM60.5152 80.232H62.9752C62.9432 79.912 62.8232 79.656 62.6152 79.464C62.4152 79.264 62.1272 79.164 61.7512 79.164C61.0952 79.164 60.6832 79.52 60.5152 80.232ZM65.9301 84V77.952H67.6941V78.756C68.1021 78.156 68.7181 77.856 69.5421 77.856C70.2061 77.856 70.7421 78.056 71.1501 78.456C71.5581 78.856 71.7621 79.388 71.7621 80.052V84H70.0101V80.52C70.0101 80.192 69.9141 79.928 69.7221 79.728C69.5381 79.52 69.2861 79.416 68.9661 79.416C68.1181 79.416 67.6941 80.06 67.6941 81.348V84H65.9301ZM76.7059 83.94C76.3939 84.044 76.0659 84.096 75.7219 84.096C75.0339 84.096 74.4779 83.912 74.0539 83.544C73.6299 83.176 73.4179 82.64 73.4179 81.936V79.416H72.4579V77.952H73.4179V76.2H75.1819V77.952H76.6459V79.416H75.1819V81.708C75.1819 81.972 75.2459 82.18 75.3739 82.332C75.5099 82.484 75.6859 82.56 75.9019 82.56C76.1739 82.56 76.4019 82.512 76.5859 82.416L76.7059 83.94ZM79.966 77.856C80.814 77.856 81.486 78.076 81.982 78.516C82.478 78.948 82.726 79.58 82.726 80.412V84H81.022V83.232C80.846 83.496 80.602 83.708 80.29 83.868C79.978 84.02 79.654 84.096 79.318 84.096C78.734 84.096 78.254 83.924 77.878 83.58C77.502 83.236 77.314 82.808 77.314 82.296C77.314 81.128 78.186 80.452 79.93 80.268L81.022 80.16V80.124C81.022 79.828 80.926 79.596 80.734 79.428C80.55 79.252 80.294 79.164 79.966 79.164C79.678 79.164 79.438 79.248 79.246 79.416C79.054 79.584 78.942 79.812 78.91 80.1L77.374 79.812C77.47 79.228 77.762 78.756 78.25 78.396C78.738 78.036 79.31 77.856 79.966 77.856ZM79.75 82.836C80.134 82.836 80.438 82.704 80.662 82.44C80.894 82.176 81.014 81.86 81.022 81.492V81.48V81.444V81.396L79.894 81.528C79.606 81.56 79.382 81.64 79.222 81.768C79.07 81.896 78.994 82.052 78.994 82.236C78.994 82.412 79.058 82.556 79.186 82.668C79.322 82.78 79.51 82.836 79.75 82.836ZM88.1142 77.952H89.8542V83.568C89.8542 84.376 89.5702 85.028 89.0022 85.524C88.4342 86.028 87.6862 86.28 86.7582 86.28C86.0462 86.28 85.4262 86.104 84.8982 85.752C84.3782 85.4 84.0662 84.94 83.9622 84.372L85.5702 84.12C85.6102 84.36 85.7422 84.548 85.9662 84.684C86.1902 84.828 86.4542 84.9 86.7582 84.9C87.1662 84.9 87.4942 84.792 87.7422 84.576C87.9982 84.368 88.1262 84.096 88.1262 83.76V83.184C87.7982 83.6 87.2782 83.808 86.5662 83.808C85.7102 83.808 85.0342 83.54 84.5382 83.004C84.0422 82.468 83.7942 81.744 83.7942 80.832C83.7942 79.92 84.0382 79.196 84.5262 78.66C85.0222 78.124 85.6902 77.856 86.5302 77.856C87.2342 77.856 87.7622 78.06 88.1142 78.468V77.952ZM86.8542 82.308C87.2702 82.308 87.5982 82.176 87.8382 81.912C88.0862 81.64 88.2102 81.28 88.2102 80.832C88.2102 80.384 88.0862 80.028 87.8382 79.764C87.5982 79.492 87.2702 79.356 86.8542 79.356C86.4462 79.356 86.1182 79.492 85.8702 79.764C85.6302 80.028 85.5102 80.384 85.5102 80.832C85.5102 81.28 85.6302 81.64 85.8702 81.912C86.1182 82.176 86.4462 82.308 86.8542 82.308ZM97.0389 80.82C97.0389 81.084 97.0309 81.304 97.0149 81.48H92.6709C92.8469 82.248 93.3189 82.632 94.0869 82.632C94.7349 82.632 95.1269 82.372 95.2629 81.852L96.9189 82.296C96.7429 82.864 96.3989 83.308 95.8869 83.628C95.3749 83.94 94.7589 84.096 94.0389 84.096C93.0629 84.096 92.2989 83.784 91.7469 83.16C91.2029 82.528 90.9309 81.8 90.9309 80.976C90.9309 80.448 91.0309 79.956 91.2309 79.5C91.4309 79.044 91.7629 78.656 92.2269 78.336C92.6989 78.016 93.2669 77.856 93.9309 77.856C94.4509 77.856 94.9149 77.948 95.3229 78.132C95.7389 78.308 96.0669 78.544 96.3069 78.84C96.5469 79.136 96.7269 79.452 96.8469 79.788C96.9749 80.124 97.0389 80.468 97.0389 80.82ZM92.6949 80.232H95.1549C95.1229 79.912 95.0029 79.656 94.7949 79.464C94.5949 79.264 94.3069 79.164 93.9309 79.164C93.2749 79.164 92.8629 79.52 92.6949 80.232Z" fill="url(#paint4_linear_320_60)"/>
</g>
<defs>
<linearGradient id="paint0_linear_320_60" x1="5.15988" y1="59.999" x2="123.841" y2="59.999" gradientUnits="userSpaceOnUse">
<stop stop-color="#DBA73E"/>
<stop offset="0.25" stop-color="#F4F3B8"/>
<stop offset="0.5" stop-color="#D5B767"/>
<stop offset="0.8" stop-color="#F7ED9A"/>
<stop offset="0.94" stop-color="#D0AB5B"/>
<stop offset="1" stop-color="#E0C77D"/>
</linearGradient>
<linearGradient id="paint1_linear_320_60" x1="45.5928" y1="18.3845" x2="83.4056" y2="18.3845" gradientUnits="userSpaceOnUse">
<stop stop-color="#CABE90"/>
<stop offset="0.11" stop-color="#926F3E"/>
<stop offset="0.41" stop-color="#F8EDD6"/>
<stop offset="0.65" stop-color="#F3E7CF"/>
<stop offset="0.86" stop-color="#906A3A"/>
<stop offset="1" stop-color="#C8BE8C"/>
</linearGradient>
<linearGradient id="paint2_linear_320_60" x1="37.6204" y1="45.9913" x2="92.3791" y2="45.9913" gradientUnits="userSpaceOnUse">
<stop stop-color="#CABE90"/>
<stop offset="0.11" stop-color="#926F3E"/>
<stop offset="0.41" stop-color="#F8EDD6"/>
<stop offset="0.65" stop-color="#F3E7CF"/>
<stop offset="0.86" stop-color="#906A3A"/>
<stop offset="1" stop-color="#C8BE8C"/>
</linearGradient>
<linearGradient id="paint3_linear_320_60" x1="43.9103" y1="63.9931" x2="86.0893" y2="63.9931" gradientUnits="userSpaceOnUse">
<stop stop-color="#CABE90"/>
<stop offset="0.11" stop-color="#926F3E"/>
<stop offset="0.41" stop-color="#F8EDD6"/>
<stop offset="0.65" stop-color="#F3E7CF"/>
<stop offset="0.86" stop-color="#906A3A"/>
<stop offset="1" stop-color="#C8BE8C"/>
</linearGradient>
<linearGradient id="paint4_linear_320_60" x1="40.9504" y1="79.9931" x2="89.0492" y2="79.9931" gradientUnits="userSpaceOnUse">
<stop stop-color="#CABE90"/>
<stop offset="0.11" stop-color="#926F3E"/>
<stop offset="0.41" stop-color="#F8EDD6"/>
<stop offset="0.65" stop-color="#F3E7CF"/>
<stop offset="0.86" stop-color="#906A3A"/>
<stop offset="1" stop-color="#C8BE8C"/>
</linearGradient>
<clipPath id="clip0_320_60">
<rect width="129" height="120" fill="white"/>
</clipPath>
</defs>
</svg>
