<svg width="129" height="120" viewBox="0 0 129 120" fill="none" xmlns="http://www.w3.org/2000/svg">
<g clip-path="url(#clip0_320_91)">
<path fill-rule="evenodd" clip-rule="evenodd" d="M37.1782 2.57014C36.7839 2.76785 36.4054 2.97939 36.0209 3.19093C36.7563 2.34872 37.0658 1.34043 37.3576 0C34.0888 0.945022 33.0517 2.14904 32.6594 5.11261L32.7067 5.15215C32.0166 5.59369 31.3358 6.04906 30.6641 6.51828C31.4271 5.42893 31.6618 4.19131 31.8116 2.56421C28.105 4.13398 27.0562 5.69188 27.0089 9.22681L27.0522 9.25252C26.5396 9.67165 26.0349 10.0967 25.5381 10.5336C26.0704 9.3059 26.1295 7.98524 26.0507 6.31069C22.2554 8.56846 21.2873 10.4249 21.7132 14.1951C21.2913 14.636 20.8753 15.0808 20.4672 15.5355C20.7018 14.3493 20.548 13.1097 20.2424 11.6032C16.9676 14.3137 16.2263 16.2552 17.0603 19.6497C16.5017 20.3891 15.9621 21.1417 15.4416 21.9075C15.7078 20.3081 15.3332 18.7996 14.6688 16.9056C11.3605 20.5295 10.9011 22.8268 12.5119 26.6642C11.9651 27.6488 11.4472 28.6492 10.9583 29.6654C11.1968 27.7734 10.5896 26.1917 9.55254 24.1771C6.70756 28.3289 6.63462 30.6776 8.92164 34.4083C8.388 35.8173 7.90562 37.2532 7.47451 38.7162C7.64209 36.3023 6.70362 34.608 5.12636 32.4233C2.80976 37.2671 3.13507 39.7483 6.19693 43.3128L6.33297 43.2931C5.98991 44.9314 5.71389 46.5954 5.50491 48.2851C5.46745 45.2741 4.16029 43.5244 1.92847 41.3062C0.296009 46.7944 1.05112 49.3507 4.86809 52.5891L5.12833 52.5041C5.07444 53.5466 5.0475 54.5964 5.0475 55.6535C5.0475 56.3441 5.05867 57.0302 5.08102 57.7116C5.02581 58.0134 4.97849 58.3317 4.93906 58.6665C4.82471 54.5246 3.20999 52.8006 0.24672 50.614C-0.56754 56.2861 0.554286 58.7179 4.80303 61.3533C4.97061 61.2702 5.13228 61.1872 5.29198 61.1042C5.45627 62.9296 5.70075 64.7281 6.0254 66.4995C5.03961 63.5339 3.17451 62.2133 0.256578 60.7167C0.366986 66.7328 1.93636 69.0538 6.7884 71.0803L7.00724 70.9221C7.38841 72.3719 7.81953 73.7941 8.30059 75.1886C6.67405 71.8276 4.35745 70.6651 0.751443 69.4769C1.91467 76.1217 4.0558 78.419 9.78322 79.8188C9.86208 79.7417 9.93897 79.6665 10.0119 79.5894C10.3918 80.4567 10.79 81.3134 11.2067 82.1596C9.29821 80.6392 7.08019 80.1193 4.12875 79.7298C6.56955 86.2323 9.16414 88.3042 14.9842 88.7391C15.7334 89.8674 16.5221 90.9692 17.3501 92.0447C14.7417 90.2654 12.0959 90.1152 8.47804 90.3346C12.4212 96.7461 15.5875 98.304 22.0227 97.4519C22.8416 98.2928 23.6835 99.1087 24.5483 99.8995C22.074 99.1937 19.6963 99.5852 16.662 100.398C21.6284 105.722 24.99 106.724 30.7667 104.862C31.9693 105.696 33.2022 106.487 34.4653 107.234C31.435 106.916 28.8799 107.926 25.6406 109.623C32.2572 114.142 36.0899 114.389 41.8785 110.947C44.3337 111.973 46.8552 112.832 49.4256 113.517C45.8945 113.899 43.4754 115.692 40.4846 118.529C48.5089 121.226 52.4362 120.328 57.3592 115.055C62.1246 115.646 66.9433 115.661 71.7123 115.101C76.6156 120.334 80.543 121.218 88.5436 118.529C85.6434 115.785 83.2795 114.008 79.916 113.557C82.4417 112.891 84.9208 112.059 87.337 111.066C93.0171 114.391 96.8439 114.103 103.388 109.63C100.34 108.035 97.8948 107.044 95.0892 107.199C96.2722 106.495 97.4334 105.75 98.573 104.963C104.162 106.695 107.49 105.627 112.374 100.402C109.59 99.6563 107.36 99.2669 105.103 99.7492C105.891 99.0217 106.66 98.2744 107.41 97.5073C113.577 98.2447 116.698 96.6196 120.552 90.3425C117.319 90.1448 114.862 90.2476 112.518 91.5287C113.209 90.6061 113.874 89.6637 114.511 88.7016C120.002 88.1876 122.522 86.0524 124.894 79.7338C122.293 80.0778 120.262 80.5246 118.513 81.6614C118.811 81.0432 119.098 80.4185 119.375 79.7871C125.002 78.3834 127.115 76.0703 128.271 69.4789C125.351 70.4397 123.275 71.3927 121.729 73.5002C121.992 72.6725 122.232 71.8362 122.449 70.9913C127.135 68.9846 128.657 66.6418 128.758 60.7107C126.443 61.897 124.797 62.9705 123.718 64.8467C123.9 63.6829 124.046 62.5072 124.156 61.3197L124.211 61.3473C128.448 58.7179 129.568 56.2861 128.754 50.6121C126.506 52.2708 125.035 53.6626 124.405 56.0449V55.6495C124.405 54.5661 124.376 53.4906 124.32 52.423C127.971 49.2598 128.675 46.6896 127.07 41.2983C125.327 43.0282 124.148 44.4615 123.703 46.4583C123.523 45.2998 123.311 44.1505 123.068 43.0104C125.889 39.6039 126.134 37.1287 123.882 32.4233C122.61 34.1631 121.759 35.5965 121.552 37.3343C121.186 36.185 120.786 35.0528 120.351 33.9378C122.354 30.472 122.171 28.1431 119.446 24.1692C118.598 25.8161 118.038 27.1704 117.991 28.6452C117.572 27.8149 117.134 26.9957 116.678 26.1878C118.058 22.6291 117.502 20.3714 114.33 16.8957C113.774 18.4774 113.419 19.802 113.476 21.1286C113.011 20.4695 112.533 19.8211 112.043 19.1832C112.701 16.0654 111.881 14.1813 108.766 11.5894C108.51 12.8487 108.36 13.9183 108.456 14.9306C108.088 14.5351 107.715 14.1397 107.339 13.7562C107.632 10.2687 106.599 8.46763 102.948 6.29685C102.885 7.71241 102.916 8.87688 103.248 9.94448C102.832 9.59125 102.41 9.24263 101.982 8.89863C101.879 5.595 100.785 4.08257 97.1988 2.57014C97.325 3.93825 97.5103 5.03155 98.019 5.99041C97.4564 5.61082 96.8893 5.24177 96.3175 4.88327C95.8917 2.08379 94.8329 0.919321 91.6429 0C91.8835 1.12098 92.1437 2.01064 92.6504 2.76785L92.2699 2.57014L92.6642 2.76785C93.1315 3.44992 93.8057 4.01338 94.8586 4.52741C92.5183 3.77811 91.2427 4.36727 89.4505 5.63652C92.4946 7.16477 94.068 6.98486 96.351 5.11063L96.3313 4.96038C96.9366 5.35578 97.536 5.75119 98.1274 6.17428C98.5829 6.94927 99.2709 7.64123 100.338 8.32726C97.6917 7.11732 96.1125 7.63135 93.8314 8.86897C97.183 11.0892 99.0659 11.101 102.002 9.22088V9.14378C102.473 9.53919 102.939 9.94118 103.399 10.3498C103.782 11.3185 104.448 12.222 105.568 13.1789C102.818 11.4352 100.986 11.7673 98.2733 12.7835C101.664 15.749 103.742 16.0535 107.283 14.4126L107.313 14.1556C107.735 14.6063 108.15 15.0676 108.557 15.5395C108.77 16.5992 109.289 17.6292 110.284 18.7957C107.839 16.6427 105.98 16.6802 103.137 17.2694C106.024 20.7391 108.027 21.3579 111.781 20.2923C111.833 20.1064 111.882 19.9245 111.928 19.7466C112.515 20.5506 113.081 21.3704 113.628 22.206C113.877 23.2495 114.314 24.2388 114.915 25.1261C112.53 22.3583 110.46 22.1191 107.214 22.3365C109.888 26.6287 112.019 27.6251 116.349 27.0162L116.402 26.8936C117.07 28.1536 117.694 29.4387 118.275 30.7488C118.437 31.3146 118.643 31.8667 118.892 32.3996C116.911 29.3293 114.894 28.8034 111.648 28.5681C113.659 33.0916 115.592 34.4142 119.771 34.4696C120.429 36.2766 121 38.1218 121.485 40.0053C119.974 37.2374 118.027 36.4466 114.978 35.7448C116.309 40.6873 118.064 42.437 122.202 43.214C122.522 44.8233 122.777 46.4557 122.967 48.1111C121.81 45.5153 119.963 44.4457 117.141 43.301C117.709 48.639 119.223 50.7939 123.297 52.3024C123.336 53.1901 123.358 54.0817 123.358 54.9773C123.358 55.2344 123.358 55.4894 123.358 55.7444C122.484 53.6606 120.923 52.4823 118.642 51.136C118.431 56.3474 119.541 58.7139 123.088 60.7562C122.929 62.4327 122.7 64.0869 122.403 65.7186C121.96 63.0575 120.485 61.4719 118.166 59.5423C117.051 65.0128 117.855 67.6482 121.355 70.4298C121.055 71.5633 120.722 72.6837 120.355 73.7908C120.292 70.8252 118.939 68.8482 116.737 66.3354C114.551 72.2032 114.986 75.2676 118.383 78.9548C117.502 80.9746 116.509 82.9435 115.408 84.8523C115.22 85.133 115.035 85.4303 114.852 85.7439C116.824 80.9338 115.791 78.1482 113.429 74.1625C109.801 80.1865 109.831 83.5237 113.159 88.4545C112.137 89.9675 111.05 91.4279 109.898 92.8356C111.757 89.1227 111.189 86.2481 109.752 82.2268C104.862 87.6478 104.153 91.0938 106.451 96.6908C104.839 98.3416 103.132 99.8969 101.339 101.349C100.945 101.606 100.531 101.89 100.111 102.209C103.973 98.2961 104.095 95.1546 103.394 90.2951C97.3703 94.7474 96.077 98.0371 97.3841 104.289C95.0709 105.864 92.6474 107.271 90.1327 108.498L89.8567 108.622C94.9197 105.376 95.801 102.039 96.213 96.6769C88.7309 99.9806 86.5523 103.181 86.4459 110.143C83.3963 111.375 80.2475 112.345 77.0336 113.041C81.6313 111.153 83.2697 108.181 84.9889 103.478C76.6491 104.664 73.5281 107.201 71.456 113.956C66.8294 114.495 62.1551 114.478 57.5327 113.903C55.4606 107.181 52.3337 104.648 44.0156 103.472C45.6718 108.007 47.2569 110.933 51.4938 112.829C48.4422 112.114 45.4534 111.152 42.5567 109.953C42.4147 103.118 40.2066 99.945 32.7934 96.671C33.17 101.614 33.9468 104.82 38.0161 107.839C35.8242 106.7 33.7064 105.422 31.6756 104.014C32.8881 97.9363 31.5435 94.6782 25.609 90.2911C24.9624 94.7632 25.0176 97.7821 28.04 101.285C26.1582 99.7544 24.3719 98.1091 22.6911 96.3586C24.8263 90.9515 24.0495 87.5351 19.2586 82.2209C17.9869 85.7795 17.3955 88.4347 18.5587 91.5703C17.6912 90.4473 16.8631 89.294 16.0745 88.1105C19.1778 83.3656 19.1245 80.0422 15.5796 74.1565C13.5331 77.6124 12.4902 80.1667 13.5292 83.9172C12.5789 82.2037 11.7127 80.4343 10.9307 78.6088C14.0477 75.0699 14.3908 72.0174 12.2713 66.3295C10.3609 68.5042 9.0912 70.2934 8.74617 72.656C8.48329 71.8204 8.24342 70.9755 8.02655 70.1214C11.2106 67.4524 11.9165 64.8091 10.842 59.5384C8.87235 61.1892 7.49225 62.585 6.86529 64.6114C6.64842 63.2552 6.47623 61.8838 6.34874 60.4972C9.55649 58.5202 10.5679 56.1319 10.3648 51.1379C8.43269 52.2787 7.01316 53.2988 6.09835 54.8508C6.09835 53.9374 6.12135 53.0286 6.16735 52.1245C9.89363 50.6259 11.3151 48.4373 11.8613 43.297C9.47762 44.2658 7.78996 45.1792 6.62476 47.0059C6.79826 45.6879 7.01382 44.391 7.27143 43.1151C11.0746 42.2927 12.7445 40.4956 14.0241 35.7408C11.4827 36.3339 9.70238 36.9824 8.30651 38.7993C8.71923 37.3271 9.18386 35.8772 9.70041 34.4498C13.5647 34.3035 15.4298 32.9137 17.3659 28.5602C14.5899 28.7579 12.713 29.1771 10.9878 31.2154C11.599 29.7985 12.2628 28.4106 12.9791 27.0517C17.0997 27.5658 19.1935 26.516 21.8 22.3286C18.5547 22.1111 16.4767 22.3543 14.099 25.1182C14.3827 24.6803 14.6356 24.2232 14.8561 23.7501C15.6 22.5362 16.3847 21.35 17.2101 20.1914L17.2338 20.2784C20.9798 21.3441 22.9928 20.7252 25.8772 17.2555C23.0342 16.6624 21.175 16.6288 18.7302 18.7818C19.3851 18.0546 19.8986 17.2111 20.2444 16.2947C20.7701 15.6766 21.309 15.067 21.8611 14.466C25.3232 16.0476 27.3815 15.7174 30.7332 12.7795C28.0183 11.7535 26.1887 11.4213 23.4383 13.175C24.1634 12.5852 24.7805 11.8734 25.262 11.0714C25.9021 10.4875 26.5508 9.91482 27.208 9.35335C30.0273 11.101 31.8905 11.0398 35.1692 8.87095C32.8901 7.63333 31.3108 7.1193 28.663 8.32924C29.3224 7.9232 29.9145 7.41622 30.4177 6.8267C31.1827 6.26522 31.9614 5.72549 32.756 5.1996C34.976 6.99277 36.5493 7.14302 39.5441 5.6385C37.752 4.36924 36.4763 3.78009 34.1341 4.52938C34.8251 4.21777 35.4491 3.77463 35.9716 3.22454C36.3765 2.99916 36.7787 2.78103 37.1782 2.57014Z" fill="url(#paint0_linear_320_91)"/>
<path fill-rule="evenodd" clip-rule="evenodd" d="M51.0461 19.0883C51.4359 19.462 51.7964 19.8652 52.1246 20.2943C53.1774 19.9622 54.2105 20.2469 55.2278 20.6897C57.0417 21.4805 56.7716 23.4358 54.595 22.8269C53.4731 22.5145 52.7575 21.5557 52.0319 20.6007C51.3123 20.8795 50.5868 21.4825 49.8632 22.5778C49.9302 21.5596 51.5824 20.4347 51.8643 20.403C51.5472 19.9769 51.1929 19.58 50.8056 19.2168C49.0388 20.041 47.3445 21.0132 45.7406 22.1231C40.9576 25.4188 37.5152 19.7328 41.1429 17.5443C42.4461 16.7534 44.814 16.8029 45.8747 17.8388C47.4027 17.6174 49.6207 17.9001 50.914 18.9618C52.8738 18.1334 55.6123 18.2738 57.9466 20.4485C56.3516 19.292 53.8063 17.7953 51.0461 19.0883ZM57.9466 16.9571C58.9581 18.8432 59.6323 20.6858 59.4174 22.4117H69.5986C69.3857 20.6917 70.0541 18.8531 71.0596 16.9768C71.1596 17.0594 71.2849 17.1048 71.4145 17.1054C71.541 17.1036 71.663 17.058 71.7598 16.9763C71.8566 16.8946 71.9223 16.7819 71.9456 16.6572C71.9689 16.5325 71.9485 16.4035 71.8879 16.2922C71.8272 16.1808 71.7299 16.094 71.6127 16.0464C71.4954 15.9987 71.3653 15.9933 71.2444 16.0309C71.1236 16.0685 71.0195 16.1469 70.9497 16.2527C70.8799 16.3586 70.8488 16.4853 70.8616 16.6116C70.8745 16.7378 70.9305 16.8557 71.0201 16.9452C69.3995 18.6712 68.2166 18.9796 67.8617 16.6665C67.8906 16.6685 67.9195 16.6685 67.9484 16.6665C68.0581 16.6668 68.1654 16.6346 68.2568 16.5738C68.3481 16.513 68.4194 16.4264 68.4617 16.3249C68.5039 16.2234 68.5152 16.1116 68.494 16.0037C68.4729 15.8958 68.4202 15.7967 68.3428 15.7188C68.2654 15.6409 68.1667 15.5878 68.0592 15.5662C67.9517 15.5446 67.8402 15.5555 67.7388 15.5975C67.6375 15.6394 67.5509 15.7107 67.4899 15.8021C67.4289 15.8935 67.3964 16.0009 67.3964 16.1109C67.3958 16.2199 67.4276 16.3265 67.4876 16.4173C67.5476 16.5082 67.6332 16.579 67.7335 16.621C66.5506 18.4339 65.5648 18.1215 64.7919 15.5395C65.0123 15.4533 65.1945 15.2904 65.3051 15.0807C65.4157 14.871 65.4473 14.6284 65.3943 14.3971C65.3413 14.1659 65.2071 13.9615 65.0163 13.8213C64.8255 13.6811 64.5907 13.6143 64.3549 13.6333C64.119 13.6522 63.8978 13.7556 63.7317 13.9245C63.5656 14.0935 63.4656 14.3167 63.45 14.5534C63.4343 14.7901 63.5042 15.0246 63.6466 15.214C63.7891 15.4034 63.9948 15.5351 64.2261 15.585C63.4493 18.1295 62.4655 18.4221 61.2904 16.6111C61.4126 16.5518 61.5087 16.4494 61.5603 16.3235C61.612 16.1976 61.6155 16.057 61.5704 15.9287C61.5252 15.8003 61.4344 15.6931 61.3155 15.6276C61.1965 15.5621 61.0576 15.5429 60.9253 15.5736C60.7931 15.6043 60.6767 15.6827 60.5985 15.794C60.5204 15.9053 60.4858 16.0415 60.5014 16.1767C60.5171 16.3119 60.5819 16.4366 60.6834 16.527C60.7849 16.6173 60.9161 16.667 61.0519 16.6665C61.0917 16.666 61.1313 16.6613 61.1702 16.6526C60.8271 18.9855 59.6323 18.6633 57.9841 16.9195C58.0828 16.8128 58.1357 16.6715 58.1316 16.5261C58.1275 16.3806 58.0667 16.2426 57.9621 16.1416C57.8576 16.0407 57.7177 15.9849 57.5726 15.9863C57.4275 15.9876 57.2887 16.0461 57.1861 16.149C57.0835 16.2519 57.0252 16.391 57.0239 16.5365C57.0225 16.6821 57.0781 16.8223 57.1788 16.9271C57.2794 17.032 57.4171 17.093 57.5622 17.0971C57.7072 17.1012 57.8481 17.0481 57.9545 16.9492L57.9466 16.9571ZM59.8946 21.7949H69.0545V22.0776H59.9024V21.7949H59.8946ZM77.9463 19.0883C75.1861 17.7953 72.6427 19.286 71.0458 20.4485C73.3801 18.2738 76.1167 18.1334 78.0764 18.9618C79.3737 17.9001 81.5897 17.6174 83.1157 17.8388C84.1843 16.8029 86.5502 16.7594 87.8475 17.5443C91.4752 19.7328 88.0328 25.4188 83.2498 22.1231C81.6432 21.0054 79.9448 20.0266 78.173 19.1971C77.7857 19.5602 77.4314 19.9572 77.1143 20.3833C77.3962 20.4228 79.0484 21.5477 79.1154 22.558C78.3938 21.4706 77.6703 20.8676 76.9467 20.581C76.2231 21.5359 75.5055 22.4947 74.3836 22.8071C72.2149 23.416 71.9369 21.4568 73.7508 20.6699C74.7681 20.2251 75.8012 19.9404 76.854 20.2745C77.1822 19.8454 77.5427 19.4422 77.9325 19.0685L77.9463 19.0883ZM80.7617 20.405C81.5227 20.8538 82.3784 21.3599 83.3799 21.8937C85.2371 22.8822 86.7553 22.8071 87.7332 22.2298C88.0764 22.0361 88.3656 21.759 88.574 21.4239C88.7825 21.0887 88.9035 20.7064 88.926 20.3121C89.0344 17.8013 85.2726 16.4608 83.4509 17.8942C84.8409 18.1611 86.3945 18.6712 87.0608 19.6142C88.0052 20.9507 86.4694 21.9076 85.0715 21.7712C82.4139 21.5141 81.4833 19.3216 82.9028 18.0741C81.5227 17.91 79.5275 18.1769 78.3426 19.0784C79.0799 19.4165 79.8508 19.8692 80.7538 20.405H80.7617ZM82.8791 18.7008C82.3941 20.2983 84.346 22.0104 86.0987 21.4271C87.8199 20.8558 86.0613 18.5822 83.2123 18.1176C83.0581 18.2876 82.9442 18.4903 82.8791 18.7107V18.7008ZM76.6983 20.5157C75.7499 20.2469 74.7957 20.5157 73.871 20.9309C72.7334 21.4469 72.8675 22.9613 74.3324 22.5758C75.3438 22.3109 76.0161 21.4153 76.6983 20.5157ZM48.2228 20.405C49.1258 19.8732 49.8967 19.4165 50.636 19.0784C49.4531 18.1769 47.45 17.91 46.0738 18.0741C47.5012 19.3216 46.5707 21.5141 43.9051 21.7712C42.5112 21.9076 40.9694 20.9507 41.9158 19.6142C42.5822 18.6712 44.1377 18.1611 45.5257 17.8942C43.702 16.4608 39.9403 17.8013 40.0507 20.3121C40.0728 20.7065 40.1937 21.089 40.4021 21.4241C40.6106 21.7593 40.9 22.0364 41.2435 22.2298C42.2293 22.8071 43.7395 22.8783 45.5947 21.8937C46.5983 21.3599 47.4539 20.8538 48.215 20.405H48.2228ZM46.1054 18.7008C46.0403 18.4805 45.9264 18.2777 45.7722 18.1077C42.9233 18.5723 41.1666 20.8459 42.8858 21.4173C44.6385 22.0104 46.5904 20.2884 46.1054 18.6909V18.7008ZM52.2863 20.5157C52.9684 21.4153 53.6407 22.3109 54.6521 22.5758C56.117 22.9712 56.2511 21.4469 55.1135 20.9309C54.1967 20.5078 53.2425 20.2469 52.2941 20.5157H52.2863Z" fill="url(#paint1_linear_320_91)"/>
<path d="M32.4531 45.9062V49.1875C32.4531 49.7292 32.4818 50.0677 32.5391 50.2031C32.6016 50.3385 32.7188 50.4583 32.8906 50.5625C33.0677 50.6615 33.3047 50.7109 33.6016 50.7109H33.9531V51H28.4141V50.7109H28.7656C29.0729 50.7109 29.3203 50.6562 29.5078 50.5469C29.6432 50.474 29.7474 50.349 29.8203 50.1719C29.8776 50.0469 29.9062 49.7188 29.9062 49.1875V42.2188C29.9062 41.6771 29.8776 41.3385 29.8203 41.2031C29.763 41.0677 29.6458 40.9505 29.4688 40.8516C29.2969 40.7474 29.0625 40.6953 28.7656 40.6953H28.4141V40.4062H33.9531V40.6953H33.6016C33.2943 40.6953 33.0469 40.75 32.8594 40.8594C32.724 40.9323 32.6172 41.0573 32.5391 41.2344C32.4818 41.3594 32.4531 41.6875 32.4531 42.2188V45.2188H36.1953V42.2188C36.1953 41.6771 36.1667 41.3385 36.1094 41.2031C36.0521 41.0677 35.9349 40.9505 35.7578 40.8516C35.5807 40.7474 35.3438 40.6953 35.0469 40.6953H34.7031V40.4062H40.2344V40.6953H39.8906C39.5781 40.6953 39.3307 40.75 39.1484 40.8594C39.013 40.9323 38.9062 41.0573 38.8281 41.2344C38.7708 41.3594 38.7422 41.6875 38.7422 42.2188V49.1875C38.7422 49.7292 38.7708 50.0677 38.8281 50.2031C38.8854 50.3385 39.0026 50.4583 39.1797 50.5625C39.3568 50.6615 39.5938 50.7109 39.8906 50.7109H40.2344V51H34.7031V50.7109H35.0469C35.3594 50.7109 35.6068 50.6562 35.7891 50.5469C35.9245 50.474 36.0312 50.349 36.1094 50.1719C36.1667 50.0469 36.1953 49.7188 36.1953 49.1875V45.9062H32.4531ZM46.3906 50.7109V51H40.8516V50.7109H41.2031C41.5104 50.7109 41.7578 50.6562 41.9453 50.5469C42.0807 50.474 42.1849 50.349 42.2578 50.1719C42.3151 50.0469 42.3438 49.7188 42.3438 49.1875V42.2188C42.3438 41.6771 42.3151 41.3385 42.2578 41.2031C42.2005 41.0677 42.0833 40.9505 41.9062 40.8516C41.7344 40.7474 41.5 40.6953 41.2031 40.6953H40.8516V40.4062H46.3906V40.6953H46.0391C45.7318 40.6953 45.4844 40.75 45.2969 40.8594C45.1615 40.9323 45.0547 41.0573 44.9766 41.2344C44.9193 41.3594 44.8906 41.6875 44.8906 42.2188V49.1875C44.8906 49.7292 44.9193 50.0677 44.9766 50.2031C45.0391 50.3385 45.1562 50.4583 45.3281 50.5625C45.5052 50.6615 45.7422 50.7109 46.0391 50.7109H46.3906ZM57.8047 40.1641V43.8984H57.5156C57.1667 42.8776 56.6432 42.1016 55.9453 41.5703C55.2474 41.0391 54.4844 40.7734 53.6562 40.7734C52.8646 40.7734 52.2057 40.9974 51.6797 41.4453C51.1536 41.888 50.7812 42.5078 50.5625 43.3047C50.3438 44.1016 50.2344 44.9193 50.2344 45.7578C50.2344 46.7734 50.3542 47.6641 50.5938 48.4297C50.8333 49.1953 51.2188 49.7578 51.75 50.1172C52.2865 50.4766 52.9219 50.6562 53.6562 50.6562C53.9115 50.6562 54.1719 50.6302 54.4375 50.5781C54.7083 50.5208 54.9844 50.4401 55.2656 50.3359V48.1328C55.2656 47.7161 55.237 47.4479 55.1797 47.3281C55.1224 47.2031 55.0026 47.0911 54.8203 46.9922C54.6432 46.8932 54.4271 46.8438 54.1719 46.8438H53.8984V46.5547H59.0469V46.8438C58.6562 46.8698 58.3828 46.9245 58.2266 47.0078C58.0755 47.0859 57.9583 47.2188 57.875 47.4062C57.8281 47.5052 57.8047 47.7474 57.8047 48.1328V50.3359C57.1276 50.638 56.4219 50.8646 55.6875 51.0156C54.9583 51.1719 54.2005 51.25 53.4141 51.25C52.4089 51.25 51.5729 51.1146 50.9062 50.8438C50.2448 50.5677 49.6589 50.2083 49.1484 49.7656C48.6432 49.3177 48.2474 48.8151 47.9609 48.2578C47.5964 47.5391 47.4141 46.7344 47.4141 45.8438C47.4141 44.25 47.974 42.9036 49.0938 41.8047C50.2135 40.7057 51.6224 40.1562 53.3203 40.1562C53.8464 40.1562 54.3203 40.1979 54.7422 40.2812C54.9714 40.3229 55.3411 40.4427 55.8516 40.6406C56.3672 40.8333 56.6719 40.9297 56.7656 40.9297C56.9115 40.9297 57.0469 40.8776 57.1719 40.7734C57.2969 40.6641 57.4115 40.4609 57.5156 40.1641H57.8047ZM63.5938 45.9062V49.1875C63.5938 49.7292 63.6224 50.0677 63.6797 50.2031C63.7422 50.3385 63.8594 50.4583 64.0312 50.5625C64.2083 50.6615 64.4453 50.7109 64.7422 50.7109H65.0938V51H59.5547V50.7109H59.9062C60.2135 50.7109 60.4609 50.6562 60.6484 50.5469C60.7839 50.474 60.888 50.349 60.9609 50.1719C61.0182 50.0469 61.0469 49.7188 61.0469 49.1875V42.2188C61.0469 41.6771 61.0182 41.3385 60.9609 41.2031C60.9036 41.0677 60.7865 40.9505 60.6094 40.8516C60.4375 40.7474 60.2031 40.6953 59.9062 40.6953H59.5547V40.4062H65.0938V40.6953H64.7422C64.4349 40.6953 64.1875 40.75 64 40.8594C63.8646 40.9323 63.7578 41.0573 63.6797 41.2344C63.6224 41.3594 63.5938 41.6875 63.5938 42.2188V45.2188H67.3359V42.2188C67.3359 41.6771 67.3073 41.3385 67.25 41.2031C67.1927 41.0677 67.0755 40.9505 66.8984 40.8516C66.7214 40.7474 66.4844 40.6953 66.1875 40.6953H65.8438V40.4062H71.375V40.6953H71.0312C70.7188 40.6953 70.4714 40.75 70.2891 40.8594C70.1536 40.9323 70.0469 41.0573 69.9688 41.2344C69.9115 41.3594 69.8828 41.6875 69.8828 42.2188V49.1875C69.8828 49.7292 69.9115 50.0677 69.9688 50.2031C70.026 50.3385 70.1432 50.4583 70.3203 50.5625C70.4974 50.6615 70.7344 50.7109 71.0312 50.7109H71.375V51H65.8438V50.7109H66.1875C66.5 50.7109 66.7474 50.6562 66.9297 50.5469C67.0651 50.474 67.1719 50.349 67.25 50.1719C67.3073 50.0469 67.3359 49.7188 67.3359 49.1875V45.9062H63.5938ZM76.0312 41.0156V45.3281H76.2422C76.9141 45.3281 77.401 45.1172 77.7031 44.6953C78.0052 44.2734 78.1979 43.651 78.2812 42.8281H78.5781V48.375H78.2812C78.2188 47.7708 78.0859 47.276 77.8828 46.8906C77.6849 46.5052 77.4531 46.2474 77.1875 46.1172C76.9219 45.9818 76.5365 45.9141 76.0312 45.9141V48.8984C76.0312 49.4818 76.0547 49.8385 76.1016 49.9688C76.1536 50.099 76.2474 50.2057 76.3828 50.2891C76.5182 50.3724 76.737 50.4141 77.0391 50.4141H77.6719C78.6615 50.4141 79.4531 50.1849 80.0469 49.7266C80.6458 49.2682 81.0755 48.5703 81.3359 47.6328H81.625L81.1484 51H71.9922V50.7109H72.3438C72.651 50.7109 72.8984 50.6562 73.0859 50.5469C73.2214 50.474 73.3255 50.349 73.3984 50.1719C73.4557 50.0469 73.4844 49.7188 73.4844 49.1875V42.2188C73.4844 41.7396 73.4714 41.4453 73.4453 41.3359C73.3932 41.1536 73.2969 41.013 73.1562 40.9141C72.9583 40.7682 72.6875 40.6953 72.3438 40.6953H71.9922V40.4062H80.8594V43.5391H80.5625C80.4115 42.7734 80.1979 42.224 79.9219 41.8906C79.651 41.5573 79.2656 41.3125 78.7656 41.1562C78.474 41.0625 77.9271 41.0156 77.125 41.0156H76.0312ZM89.8594 40.1641L89.9453 43.6953H89.625C89.474 42.8099 89.1016 42.099 88.5078 41.5625C87.9193 41.0208 87.2812 40.75 86.5938 40.75C86.0625 40.75 85.6406 40.8932 85.3281 41.1797C85.0208 41.4609 84.8672 41.7865 84.8672 42.1562C84.8672 42.3906 84.9219 42.599 85.0312 42.7812C85.1823 43.026 85.4245 43.2682 85.7578 43.5078C86.0026 43.6797 86.5677 43.9844 87.4531 44.4219C88.6927 45.0312 89.5286 45.6068 89.9609 46.1484C90.388 46.6901 90.6016 47.3099 90.6016 48.0078C90.6016 48.8932 90.2552 49.6562 89.5625 50.2969C88.875 50.9323 88 51.25 86.9375 51.25C86.6042 51.25 86.2891 51.2161 85.9922 51.1484C85.6953 51.0807 85.3229 50.9531 84.875 50.7656C84.625 50.6615 84.4193 50.6094 84.2578 50.6094C84.1224 50.6094 83.9792 50.6615 83.8281 50.7656C83.6771 50.8698 83.5547 51.0286 83.4609 51.2422H83.1719V47.2422H83.4609C83.6901 48.3672 84.1302 49.2266 84.7812 49.8203C85.4375 50.4089 86.1432 50.7031 86.8984 50.7031C87.4818 50.7031 87.9453 50.5443 88.2891 50.2266C88.638 49.9089 88.8125 49.5391 88.8125 49.1172C88.8125 48.8672 88.7448 48.625 88.6094 48.3906C88.4792 48.1562 88.2786 47.9349 88.0078 47.7266C87.737 47.513 87.2578 47.237 86.5703 46.8984C85.6068 46.4245 84.9141 46.0208 84.4922 45.6875C84.0703 45.3542 83.7448 44.9818 83.5156 44.5703C83.2917 44.1589 83.1797 43.7057 83.1797 43.2109C83.1797 42.3672 83.4896 41.6484 84.1094 41.0547C84.7292 40.4609 85.5104 40.1641 86.4531 40.1641C86.7969 40.1641 87.1302 40.2057 87.4531 40.2891C87.6979 40.3516 87.9948 40.4688 88.3438 40.6406C88.6979 40.8073 88.9453 40.8906 89.0859 40.8906C89.2214 40.8906 89.3281 40.849 89.4062 40.7656C89.4844 40.6823 89.5573 40.4818 89.625 40.1641H89.8594ZM101.344 40.4062V43.2734H101.062C100.896 42.612 100.711 42.138 100.508 41.8516C100.305 41.5599 100.026 41.3281 99.6719 41.1562C99.474 41.0625 99.1276 41.0156 98.6328 41.0156H97.8438V49.1875C97.8438 49.7292 97.8724 50.0677 97.9297 50.2031C97.9922 50.3385 98.1094 50.4583 98.2812 50.5625C98.4583 50.6615 98.6979 50.7109 99 50.7109H99.3516V51H93.8047V50.7109H94.1562C94.4635 50.7109 94.7109 50.6562 94.8984 50.5469C95.0339 50.474 95.1406 50.349 95.2188 50.1719C95.276 50.0469 95.3047 49.7188 95.3047 49.1875V41.0156H94.5391C93.8255 41.0156 93.3073 41.1667 92.9844 41.4688C92.5312 41.8906 92.2448 42.4922 92.125 43.2734H91.8281V40.4062H101.344Z" fill="url(#paint2_linear_320_91)"/>
<path d="M40.8899 68.096C40.0499 68.096 39.3179 67.844 38.6939 67.34C38.0699 66.828 37.7179 66.188 37.6379 65.42L39.2939 64.928C39.3499 65.392 39.5339 65.768 39.8459 66.056C40.1659 66.344 40.5379 66.488 40.9619 66.488C41.3379 66.488 41.6379 66.408 41.8619 66.248C42.0939 66.08 42.2099 65.864 42.2099 65.6C42.2099 65.384 42.1299 65.204 41.9699 65.06C41.8099 64.916 41.6019 64.8 41.3459 64.712C41.0979 64.616 40.8219 64.528 40.5179 64.448C40.2139 64.36 39.9059 64.256 39.5939 64.136C39.2899 64.008 39.0099 63.86 38.7539 63.692C38.5059 63.516 38.3019 63.272 38.1419 62.96C37.9819 62.648 37.9019 62.284 37.9019 61.868C37.9019 61.188 38.1859 60.624 38.7539 60.176C39.3299 59.728 40.0339 59.504 40.8659 59.504C41.6739 59.504 42.3739 59.704 42.9659 60.104C43.5659 60.496 43.9379 61.012 44.0819 61.652L42.3899 62.36C42.3019 61.976 42.1219 61.672 41.8499 61.448C41.5859 61.224 41.2579 61.112 40.8659 61.112C40.5379 61.112 40.2779 61.18 40.0859 61.316C39.8939 61.444 39.7979 61.624 39.7979 61.856C39.7979 62.032 39.8779 62.18 40.0379 62.3C40.1979 62.412 40.4019 62.504 40.6499 62.576C40.9059 62.648 41.1859 62.72 41.4899 62.792C41.8019 62.856 42.1099 62.952 42.4139 63.08C42.7259 63.208 43.0059 63.364 43.2539 63.548C43.5099 63.732 43.7179 63.996 43.8779 64.34C44.0379 64.684 44.1179 65.088 44.1179 65.552C44.1179 66.312 43.8219 66.928 43.2299 67.4C42.6379 67.864 41.8579 68.096 40.8899 68.096ZM47.5109 61.856C48.3589 61.856 49.0309 62.076 49.5269 62.516C50.0229 62.948 50.2709 63.58 50.2709 64.412V68H48.5669V67.232C48.3909 67.496 48.1469 67.708 47.8349 67.868C47.5229 68.02 47.1989 68.096 46.8629 68.096C46.2789 68.096 45.7989 67.924 45.4229 67.58C45.0469 67.236 44.8589 66.808 44.8589 66.296C44.8589 65.128 45.7309 64.452 47.4749 64.268L48.5669 64.16V64.124C48.5669 63.828 48.4709 63.596 48.2789 63.428C48.0949 63.252 47.8389 63.164 47.5109 63.164C47.2229 63.164 46.9829 63.248 46.7909 63.416C46.5989 63.584 46.4869 63.812 46.4549 64.1L44.9189 63.812C45.0149 63.228 45.3069 62.756 45.7949 62.396C46.2829 62.036 46.8549 61.856 47.5109 61.856ZM47.2949 66.836C47.6789 66.836 47.9829 66.704 48.2069 66.44C48.4389 66.176 48.5589 65.86 48.5669 65.492V65.48V65.444V65.396L47.4389 65.528C47.1509 65.56 46.9269 65.64 46.7669 65.768C46.6149 65.896 46.5389 66.052 46.5389 66.236C46.5389 66.412 46.6029 66.556 46.7309 66.668C46.8669 66.78 47.0549 66.836 47.2949 66.836ZM51.6391 68V61.952H53.4031V62.768C53.7951 62.16 54.3631 61.856 55.1071 61.856C56.0111 61.856 56.6191 62.216 56.9311 62.936C57.1071 62.624 57.3751 62.368 57.7351 62.168C58.0951 61.96 58.5071 61.856 58.9711 61.856C59.6191 61.856 60.1431 62.048 60.5431 62.432C60.9431 62.816 61.1431 63.3 61.1431 63.884V68H59.3911V64.4C59.3911 64.064 59.3031 63.804 59.1271 63.62C58.9591 63.428 58.7191 63.332 58.4071 63.332C58.0471 63.332 57.7631 63.472 57.5551 63.752C57.3551 64.032 57.2551 64.416 57.2551 64.904V68H55.5151V64.4C55.5151 64.072 55.4271 63.812 55.2511 63.62C55.0831 63.428 54.8471 63.332 54.5431 63.332C54.1831 63.332 53.9031 63.476 53.7031 63.764C53.5031 64.044 53.4031 64.424 53.4031 64.904V68H51.6391ZM68.3221 64.82C68.3221 65.084 68.3141 65.304 68.2981 65.48H63.9541C64.1301 66.248 64.6021 66.632 65.3701 66.632C66.0181 66.632 66.4101 66.372 66.5461 65.852L68.2021 66.296C68.0261 66.864 67.6821 67.308 67.1701 67.628C66.6581 67.94 66.0421 68.096 65.3221 68.096C64.3461 68.096 63.5821 67.784 63.0301 67.16C62.4861 66.528 62.2141 65.8 62.2141 64.976C62.2141 64.448 62.3141 63.956 62.5141 63.5C62.7141 63.044 63.0461 62.656 63.5101 62.336C63.9821 62.016 64.5501 61.856 65.2141 61.856C65.7341 61.856 66.1981 61.948 66.6061 62.132C67.0221 62.308 67.3501 62.544 67.5901 62.84C67.8301 63.136 68.0101 63.452 68.1301 63.788C68.2581 64.124 68.3221 64.468 68.3221 64.82ZM63.9781 64.232H66.4381C66.4061 63.912 66.2861 63.656 66.0781 63.464C65.8781 63.264 65.5901 63.164 65.2141 63.164C64.5581 63.164 64.1461 63.52 63.9781 64.232ZM72.3361 68V59.6H75.2041C75.7961 59.6 76.3481 59.688 76.8601 59.864C77.3721 60.032 77.8321 60.284 78.2401 60.62C78.6481 60.948 78.9681 61.388 79.2001 61.94C79.4401 62.484 79.5601 63.104 79.5601 63.8C79.5601 64.496 79.4401 65.12 79.2001 65.672C78.9681 66.216 78.6481 66.656 78.2401 66.992C77.8321 67.32 77.3721 67.572 76.8601 67.748C76.3481 67.916 75.7961 68 75.2041 68H72.3361ZM74.1961 66.368H75.0001C75.3601 66.368 75.6881 66.324 75.9841 66.236C76.2881 66.148 76.5681 66.008 76.8241 65.816C77.0881 65.624 77.2921 65.356 77.4361 65.012C77.5801 64.668 77.6521 64.264 77.6521 63.8C77.6521 62.896 77.4001 62.24 76.8961 61.832C76.3921 61.424 75.7601 61.22 75.0001 61.22H74.1961V66.368ZM82.9953 61.856C83.8433 61.856 84.5153 62.076 85.0113 62.516C85.5073 62.948 85.7553 63.58 85.7553 64.412V68H84.0513V67.232C83.8753 67.496 83.6313 67.708 83.3193 67.868C83.0073 68.02 82.6833 68.096 82.3473 68.096C81.7633 68.096 81.2833 67.924 80.9073 67.58C80.5313 67.236 80.3433 66.808 80.3433 66.296C80.3433 65.128 81.2153 64.452 82.9593 64.268L84.0513 64.16V64.124C84.0513 63.828 83.9553 63.596 83.7633 63.428C83.5793 63.252 83.3233 63.164 82.9953 63.164C82.7073 63.164 82.4673 63.248 82.2753 63.416C82.0833 63.584 81.9713 63.812 81.9393 64.1L80.4033 63.812C80.4993 63.228 80.7913 62.756 81.2793 62.396C81.7673 62.036 82.3393 61.856 82.9953 61.856ZM82.7793 66.836C83.1633 66.836 83.4673 66.704 83.6913 66.44C83.9233 66.176 84.0433 65.86 84.0513 65.492V65.48V65.444V65.396L82.9233 65.528C82.6353 65.56 82.4113 65.64 82.2513 65.768C82.0993 65.896 82.0233 66.052 82.0233 66.236C82.0233 66.412 82.0873 66.556 82.2153 66.668C82.3513 66.78 82.5393 66.836 82.7793 66.836ZM90.7902 61.952H92.5902L89.3982 70.184H87.5982L88.5582 67.7L86.2302 61.952H88.1382L89.4342 65.456L90.7902 61.952Z" fill="url(#paint3_linear_320_91)"/>
<path d="M44.8391 84.096C43.9991 84.096 43.2671 83.844 42.6431 83.34C42.0191 82.828 41.6671 82.188 41.5871 81.42L43.2431 80.928C43.2991 81.392 43.4831 81.768 43.7951 82.056C44.1151 82.344 44.4871 82.488 44.9111 82.488C45.2871 82.488 45.5871 82.408 45.8111 82.248C46.0431 82.08 46.1591 81.864 46.1591 81.6C46.1591 81.384 46.0791 81.204 45.9191 81.06C45.7591 80.916 45.5511 80.8 45.2951 80.712C45.0471 80.616 44.7711 80.528 44.4671 80.448C44.1631 80.36 43.8551 80.256 43.5431 80.136C43.2391 80.008 42.9591 79.86 42.7031 79.692C42.4551 79.516 42.2511 79.272 42.0911 78.96C41.9311 78.648 41.8511 78.284 41.8511 77.868C41.8511 77.188 42.1351 76.624 42.7031 76.176C43.2791 75.728 43.9831 75.504 44.8151 75.504C45.6231 75.504 46.3231 75.704 46.9151 76.104C47.5151 76.496 47.8871 77.012 48.0311 77.652L46.3391 78.36C46.2511 77.976 46.0711 77.672 45.7991 77.448C45.5351 77.224 45.2071 77.112 44.8151 77.112C44.4871 77.112 44.2271 77.18 44.0351 77.316C43.8431 77.444 43.7471 77.624 43.7471 77.856C43.7471 78.032 43.8271 78.18 43.9871 78.3C44.1471 78.412 44.3511 78.504 44.5991 78.576C44.8551 78.648 45.1351 78.72 45.4391 78.792C45.7511 78.856 46.0591 78.952 46.3631 79.08C46.6751 79.208 46.9551 79.364 47.2031 79.548C47.4591 79.732 47.6671 79.996 47.8271 80.34C47.9871 80.684 48.0671 81.088 48.0671 81.552C48.0671 82.312 47.7711 82.928 47.1791 83.4C46.5871 83.864 45.8071 84.096 44.8391 84.096ZM54.9041 80.82C54.9041 81.084 54.8961 81.304 54.8801 81.48H50.5361C50.7121 82.248 51.1841 82.632 51.9521 82.632C52.6001 82.632 52.9921 82.372 53.1281 81.852L54.7841 82.296C54.6081 82.864 54.2641 83.308 53.7521 83.628C53.2401 83.94 52.6241 84.096 51.9041 84.096C50.9281 84.096 50.1641 83.784 49.6121 83.16C49.0681 82.528 48.7961 81.8 48.7961 80.976C48.7961 80.448 48.8961 79.956 49.0961 79.5C49.2961 79.044 49.6281 78.656 50.0921 78.336C50.5641 78.016 51.1321 77.856 51.7961 77.856C52.3161 77.856 52.7801 77.948 53.1881 78.132C53.6041 78.308 53.9321 78.544 54.1721 78.84C54.4121 79.136 54.5921 79.452 54.7121 79.788C54.8401 80.124 54.9041 80.468 54.9041 80.82ZM50.5601 80.232H53.0201C52.9881 79.912 52.8681 79.656 52.6601 79.464C52.4601 79.264 52.1721 79.164 51.7961 79.164C51.1401 79.164 50.7281 79.52 50.5601 80.232ZM60.055 79.644C59.847 79.548 59.591 79.5 59.287 79.5C58.847 79.5 58.479 79.688 58.183 80.064C57.887 80.432 57.739 81.016 57.739 81.816V84H55.975V77.952H57.739V78.996C57.875 78.676 58.115 78.408 58.459 78.192C58.803 77.968 59.155 77.856 59.515 77.856C59.771 77.856 59.987 77.888 60.163 77.952L60.055 79.644ZM62.5629 84L60.3669 77.952H62.1309L63.3549 81.96L64.5789 77.952H66.3549L64.1589 84H62.5629ZM67.0718 75.504H68.9318V77.196H67.0718V75.504ZM67.1078 84V77.952H68.8718V84H67.1078ZM73.0327 84.096C72.1207 84.096 71.3767 83.808 70.8007 83.232C70.2247 82.648 69.9367 81.896 69.9367 80.976C69.9367 80.056 70.2247 79.308 70.8007 78.732C71.3767 78.148 72.1207 77.856 73.0327 77.856C73.8407 77.856 74.5087 78.048 75.0367 78.432C75.5647 78.816 75.8767 79.34 75.9727 80.004L74.2687 80.34C74.2207 80.036 74.0927 79.796 73.8847 79.62C73.6767 79.444 73.4167 79.356 73.1047 79.356C72.6887 79.356 72.3567 79.504 72.1087 79.8C71.8687 80.088 71.7487 80.48 71.7487 80.976C71.7487 81.464 71.8727 81.856 72.1207 82.152C72.3687 82.448 72.6967 82.596 73.1047 82.596C73.7287 82.596 74.1087 82.292 74.2447 81.684L75.9607 82.032C75.8487 82.672 75.5327 83.176 75.0127 83.544C74.4927 83.912 73.8327 84.096 73.0327 84.096ZM82.8533 80.82C82.8533 81.084 82.8453 81.304 82.8293 81.48H78.4853C78.6613 82.248 79.1333 82.632 79.9013 82.632C80.5493 82.632 80.9413 82.372 81.0773 81.852L82.7333 82.296C82.5573 82.864 82.2133 83.308 81.7013 83.628C81.1893 83.94 80.5733 84.096 79.8533 84.096C78.8773 84.096 78.1133 83.784 77.5613 83.16C77.0173 82.528 76.7453 81.8 76.7453 80.976C76.7453 80.448 76.8453 79.956 77.0453 79.5C77.2453 79.044 77.5773 78.656 78.0413 78.336C78.5133 78.016 79.0813 77.856 79.7453 77.856C80.2653 77.856 80.7293 77.948 81.1373 78.132C81.5533 78.308 81.8813 78.544 82.1213 78.84C82.3613 79.136 82.5413 79.452 82.6613 79.788C82.7893 80.124 82.8533 80.468 82.8533 80.82ZM78.5093 80.232H80.9693C80.9373 79.912 80.8173 79.656 80.6093 79.464C80.4093 79.264 80.1213 79.164 79.7453 79.164C79.0893 79.164 78.6773 79.52 78.5093 80.232ZM86.0256 84.096C85.3376 84.096 84.7576 83.92 84.2856 83.568C83.8216 83.216 83.5016 82.788 83.3256 82.284L84.7416 81.732C84.8136 82.028 84.9656 82.276 85.1976 82.476C85.4296 82.668 85.7056 82.764 86.0256 82.764C86.2576 82.764 86.4456 82.712 86.5896 82.608C86.7336 82.504 86.8056 82.368 86.8056 82.2C86.8056 82.032 86.6936 81.896 86.4696 81.792C86.2536 81.688 85.9856 81.6 85.6656 81.528C85.3536 81.448 85.0416 81.352 84.7296 81.24C84.4176 81.12 84.1496 80.924 83.9256 80.652C83.7096 80.372 83.6016 80.02 83.6016 79.596C83.6016 79.108 83.7976 78.696 84.1896 78.36C84.5896 78.024 85.1136 77.856 85.7616 77.856C86.3776 77.856 86.9176 77.992 87.3816 78.264C87.8536 78.536 88.1576 78.892 88.2936 79.332L86.8776 79.92C86.8056 79.664 86.6656 79.468 86.4576 79.332C86.2576 79.188 86.0456 79.116 85.8216 79.116C85.6216 79.116 85.4576 79.156 85.3296 79.236C85.2096 79.316 85.1496 79.42 85.1496 79.548C85.1496 79.692 85.2296 79.812 85.3896 79.908C85.5496 79.996 85.7496 80.064 85.9896 80.112C86.2296 80.152 86.4896 80.216 86.7696 80.304C87.0576 80.392 87.3216 80.496 87.5616 80.616C87.8016 80.728 88.0016 80.92 88.1616 81.192C88.3216 81.456 88.4016 81.78 88.4016 82.164C88.4016 82.7 88.1776 83.156 87.7296 83.532C87.2896 83.908 86.7216 84.096 86.0256 84.096Z" fill="url(#paint4_linear_320_91)"/>
</g>
<defs>
<linearGradient id="paint0_linear_320_91" x1="5.15988" y1="59.999" x2="123.841" y2="59.999" gradientUnits="userSpaceOnUse">
<stop stop-color="#DBA73E"/>
<stop offset="0.25" stop-color="#F4F3B8"/>
<stop offset="0.5" stop-color="#D5B767"/>
<stop offset="0.8" stop-color="#F7ED9A"/>
<stop offset="0.94" stop-color="#D0AB5B"/>
<stop offset="1" stop-color="#E0C77D"/>
</linearGradient>
<linearGradient id="paint1_linear_320_91" x1="45.5928" y1="18.3845" x2="83.4056" y2="18.3845" gradientUnits="userSpaceOnUse">
<stop stop-color="#CABE90"/>
<stop offset="0.11" stop-color="#926F3E"/>
<stop offset="0.41" stop-color="#F8EDD6"/>
<stop offset="0.65" stop-color="#F3E7CF"/>
<stop offset="0.86" stop-color="#906A3A"/>
<stop offset="1" stop-color="#C8BE8C"/>
</linearGradient>
<linearGradient id="paint2_linear_320_91" x1="37.6204" y1="45.9913" x2="92.3791" y2="45.9913" gradientUnits="userSpaceOnUse">
<stop stop-color="#CABE90"/>
<stop offset="0.11" stop-color="#926F3E"/>
<stop offset="0.41" stop-color="#F8EDD6"/>
<stop offset="0.65" stop-color="#F3E7CF"/>
<stop offset="0.86" stop-color="#906A3A"/>
<stop offset="1" stop-color="#C8BE8C"/>
</linearGradient>
<linearGradient id="paint3_linear_320_91" x1="44.2803" y1="63.9931" x2="85.7193" y2="63.9931" gradientUnits="userSpaceOnUse">
<stop stop-color="#CABE90"/>
<stop offset="0.11" stop-color="#926F3E"/>
<stop offset="0.41" stop-color="#F8EDD6"/>
<stop offset="0.65" stop-color="#F3E7CF"/>
<stop offset="0.86" stop-color="#906A3A"/>
<stop offset="1" stop-color="#C8BE8C"/>
</linearGradient>
<linearGradient id="paint4_linear_320_91" x1="47.2403" y1="79.9931" x2="82.7594" y2="79.9931" gradientUnits="userSpaceOnUse">
<stop stop-color="#CABE90"/>
<stop offset="0.11" stop-color="#926F3E"/>
<stop offset="0.41" stop-color="#F8EDD6"/>
<stop offset="0.65" stop-color="#F3E7CF"/>
<stop offset="0.86" stop-color="#906A3A"/>
<stop offset="1" stop-color="#C8BE8C"/>
</linearGradient>
<clipPath id="clip0_320_91">
<rect width="129" height="120" fill="white"/>
</clipPath>
</defs>
</svg>
