<svg width="35" height="24" viewBox="0 0 35 24" fill="none" xmlns="http://www.w3.org/2000/svg">
<g id=",,">
<path d="M5 11.7C3.86667 11.7 2.86667 11.1667 2 10.1C1.13333 9.03333 0.7 7.7 0.7 6.1C0.7 4.43333 1.33333 3 2.6 1.8C3.86667 0.6 5.43333 0 7.3 0C9.23333 0 10.9 0.766667 12.3 2.3C13.7667 3.76667 14.5 5.8 14.5 8.4C14.5 12.6667 13.4 16.3 11.2 19.3C9 22.3667 6.36667 23.9 3.3 23.9C1.1 23.9 0 23.1 0 21.5C2.2 20.9667 4 19.7667 5.4 17.9C6.86667 16.1 7.6 13.9 7.6 11.3C7.06667 11.5667 6.2 11.7 5 11.7Z" fill="#D09A4B"/>
<path d="M25.0742 11.7C23.9409 11.7 22.9409 11.1667 22.0742 10.1C21.2076 9.03333 20.7742 7.7 20.7742 6.1C20.7742 4.43333 21.4076 3 22.6742 1.8C23.9409 0.6 25.5076 0 27.3742 0C29.3076 0 30.9742 0.766667 32.3742 2.3C33.8409 3.76667 34.5742 5.8 34.5742 8.4C34.5742 12.6667 33.4742 16.3 31.2742 19.3C29.0742 22.3667 26.4409 23.9 23.3742 23.9C21.1742 23.9 20.0742 23.1 20.0742 21.5C22.2742 20.9667 24.0742 19.7667 25.4742 17.9C26.9409 16.1 27.6742 13.9 27.6742 11.3C27.1409 11.5667 26.2742 11.7 25.0742 11.7Z" fill="#D09A4B"/>
</g>
</svg>
